<svg width="369" height="223" viewBox="0 0 369 223" fill="none" xmlns="http://www.w3.org/2000/svg"><path opacity=".2" d="M345.902 134.258h-47.12c-12.672 0-22.941-10.236-22.941-22.856 0-12.625 10.274-22.856 22.941-22.856h47.12c12.672 0 22.941 10.235 22.941 22.856.004 12.62-10.269 22.856-22.941 22.856zm-218.362-.552h98.41c11.759 0 21.848-8.89 22.698-20.574.95-13.028-9.378-23.891-22.252-23.891H63.019c-12.326 0-22.316-9.953-22.316-22.233 0-12.28 9.99-22.233 22.316-22.233h110.713c12.159 0 22.437-9.5 22.77-21.61C196.849 10.603 186.728.31 174.196.31h-418.329c-12.159 0-22.437 9.496-22.77 21.61-.347 12.562 9.774 22.856 22.306 22.856h166.266c12.326 0 22.316 9.953 22.316 22.233 0 12.28-9.99 22.233-22.316 22.233h-32.431c-12.159 0-22.437 9.5-22.77 21.609-.347 12.563 9.774 22.856 22.306 22.856H23.959c12.325 0 22.315 9.953 22.315 22.233 0 12.28-9.99 22.233-22.316 22.233h-221.701c-12.325 0-22.315 9.953-22.315 22.233 0 12.28 9.99 22.233 22.315 22.233H164.8c12.325 0 22.315-9.953 22.315-22.233 0-12.28-9.99-22.233-22.315-22.233h-37.265c-12.325 0-22.315-9.953-22.315-22.233.004-12.275 9.994-22.233 22.32-22.233z" fill="#005CE1" fill-opacity=".36"/></svg>