<svg width="199" height="169" viewBox="0 0 199 169" fill="none" xmlns="http://www.w3.org/2000/svg"><path opacity=".6" d="M296.655 101.089h82.903c8.865 0 16.47-6.703 17.109-15.508.716-9.823-7.069-18.014-16.776-18.014H248.009c-9.292 0-16.82-7.505-16.82-16.758 0-9.259 7.532-16.76 16.82-16.76h83.466c9.167 0 16.916-7.159 17.168-16.287.261-9.473-7.367-17.234-16.816-17.234H17.925C8.758.528 1.009 7.688.757 16.816.496 26.289 8.124 34.05 17.573 34.05H141.45c9.292 0 16.821 7.505 16.821 16.759 0 9.258-7.533 16.758-16.821 16.758h-24.449c-9.166 0-16.916 7.16-17.168 16.288-.26 9.474 7.367 17.234 16.817 17.234h101.912c9.292 0 16.821 7.505 16.821 16.759 0 9.258-7.533 16.759-16.821 16.759H65.566c-9.293 0-16.82 7.505-16.82 16.758 0 9.258 7.532 16.759 16.82 16.759h259.182c9.292 0 16.821-7.505 16.821-16.759 0-9.258-7.533-16.758-16.821-16.758h-28.093c-9.293 0-16.822-7.506-16.822-16.759 0-9.258 7.529-16.759 16.822-16.759z" fill="#fff" fill-opacity=".26"/></svg>