<svg width="397" height="223" viewBox="0 0 397 223" fill="none" xmlns="http://www.w3.org/2000/svg"><path opacity=".2" d="M394.54 133.706h98.41c11.759 0 21.848-8.89 22.698-20.574.95-13.028-9.378-23.891-22.252-23.891H330.019c-12.326 0-22.316-9.953-22.316-22.233 0-12.28 9.99-22.233 22.316-22.233h110.713c12.159 0 22.437-9.5 22.77-21.61C463.849 10.603 453.728.31 441.196.31H22.866C10.707.31.43 9.805.096 21.92-.25 34.481 9.872 44.775 22.404 44.775H188.67c12.326 0 22.316 9.953 22.316 22.233 0 12.28-9.99 22.233-22.316 22.233h-32.431c-12.159 0-22.437 9.5-22.77 21.609-.347 12.563 9.774 22.856 22.306 22.856H290.96c12.325 0 22.315 9.953 22.315 22.233 0 12.28-9.99 22.233-22.315 22.233H69.257c-12.326 0-22.316 9.953-22.316 22.233 0 12.28 9.99 22.233 22.316 22.233H431.8c12.325 0 22.315-9.953 22.315-22.233 0-12.28-9.99-22.233-22.315-22.233h-37.265c-12.325 0-22.315-9.953-22.315-22.233.004-12.275 9.994-22.233 22.32-22.233z" fill="#fff" fill-opacity=".36"/></svg>