<svg width="275" height="78" viewBox="0 0 275 78" fill="none" xmlns="http://www.w3.org/2000/svg"><path d="M27.536 77.887H13.438C6.26 77.887.446 72.09.446 64.943.446 57.793 6.265 52 13.438 52h14.098c7.178 0 12.992 5.797 12.992 12.943 0 7.151-5.819 12.944-12.992 12.944zM294.404.217H133.002c-7.177 0-12.991 5.797-12.991 12.944 0 7.15 5.818 12.943 12.991 12.943h30.411c7.178 0 12.992 5.797 12.992 12.944 0 7.15-5.819 12.943-12.992 12.943H73.049c-6.845 0-12.717 5.174-13.217 11.98-.553 7.585 5.463 13.911 12.956 13.911H242.5c7.078 0 13.063-5.528 13.257-12.58.202-7.317-5.693-13.307-12.987-13.307h-16.335c-7.178 0-12.992-5.797-12.992-12.943 0-7.151 5.819-12.944 12.992-12.944H294.4c7.177 0 12.991-5.796 12.991-12.943.004-7.15-5.814-12.948-12.987-12.948z" opacity=".4" fill="#005CE1" fill-opacity=".36"/></svg>