<svg width="438" height="177" viewBox="0 0 438 177" fill="none" xmlns="http://www.w3.org/2000/svg"><path d="M130.667 70.614H-4.815c-9.22 0-17.118 6.923-17.914 16.078-.914 10.464 7.34 19.238 17.653 19.238h172.557c9.788 0 17.721 7.904 17.721 17.655 0 9.751-7.933 17.655-17.721 17.655h-42.282c-9.598 0-17.883 7.815-18.031 17.373-.153 9.881 7.839 17.938 17.721 17.938h186.07c9.599 0 17.883-7.815 18.032-17.373.153-9.881-7.839-17.938-17.717-17.938h-17.109c-9.787 0-17.721-7.904-17.721-17.655 0-9.751 7.934-17.655 17.721-17.655h55.607c9.598 0 17.883-7.815 18.031-17.373.153-9.882-7.839-17.938-17.721-17.938H223.749c-9.787 0-17.721-7.904-17.721-17.656 0-9.75 7.934-17.655 17.721-17.655h30.645c9.788 0 17.721-7.904 17.721-17.655 0-9.752-7.933-17.656-17.721-17.656H40.954c-9.787 0-17.72 7.904-17.72 17.656 0 9.75 7.933 17.655 17.72 17.655h89.713c9.787 0 17.721 7.904 17.721 17.655 0 9.747-7.934 17.651-17.721 17.651zm289.197 105.937h-43.007c-9.787 0-17.721-7.904-17.721-17.655 0-9.752 7.934-17.656 17.721-17.656h43.007c9.787 0 17.721 7.904 17.721 17.656 0 9.751-7.934 17.655-17.721 17.655z" opacity=".4" fill="#fff" fill-opacity=".26"/></svg>