<svg width="48" height="46" viewBox="0 0 48 46" fill="none" xmlns="http://www.w3.org/2000/svg"><path d="M21.747 45.458c12.011 0 21.748-9.724 21.748-21.718 0-11.995-9.737-21.719-21.748-21.719C9.737 2.021 0 11.745 0 23.74c0 11.995 9.737 21.719 21.747 21.719z" fill="#FFA800"/><path d="M26.253 44.338C38.263 44.338 48 34.614 48 22.62 48 10.625 38.263.9 26.253.9 14.242.901 4.505 10.625 4.505 22.62c0 11.994 9.737 21.718 21.748 21.718z" fill="#FFE000"/><path d="M47.28 28.178a21.806 21.806 0 01-6.261 10.39L5.228 17.065a21.806 21.806 0 016.26-10.391L47.28 28.178z" fill="#FFEE71"/><path d="M26.253 38.904c9.005 0 16.306-7.291 16.306-16.285 0-8.993-7.3-16.284-16.306-16.284S9.947 13.626 9.947 22.62s7.3 16.285 16.306 16.285z" fill="#FFCE00"/><path d="M29.122 19.094c.592-.148.952-.745.805-1.336l-.213-.854a1.106 1.106 0 00-2.144.532l.213.854c.148.591.749.952 1.339.804z" fill="url(#paint0_linear_6106_7365)"/><path d="M23.331 20.77c.592-.148.952-.745.806-1.336l-.214-.854a1.106 1.106 0 00-2.144.532l.213.854c.148.591.749.95 1.339.804z" fill="url(#paint1_linear_6106_7365)"/><path d="M25.674 25.534c-2.715 0-4.89-1.004-4.934-1.023a.865.865 0 01-.41-1.154.87.87 0 011.155-.412c.296.138 7.155 3.261 10.756-3.117a.865.865 0 111.51.85c-2.19 3.878-5.396 4.856-8.077 4.856z" fill="#FFA800"/><path d="M42.077 18.69C39.903 9.962 31.057 4.646 22.316 6.817a16.244 16.244 0 00-8.27 5.004 16.256 16.256 0 016.854-3.59c8.74-2.171 17.588 3.144 19.761 11.873 1.347 5.404-.183 10.85-3.619 14.73 4.413-3.894 6.555-10.045 5.035-16.144z" fill="#FFA800"/><defs><linearGradient id="paint0_linear_6106_7365" x1="28.832" y1="16.01" x2="28.4" y2="19.854" gradientUnits="userSpaceOnUse"><stop stop-color="#3F3E40"/><stop offset=".09" stop-color="#313032"/><stop offset=".268" stop-color="#1B1B1C"/><stop offset=".464" stop-color="#0C0C0C"/><stop offset=".687" stop-color="#030303"/><stop offset="1"/></linearGradient><linearGradient id="paint1_linear_6106_7365" x1="23.149" y1="17.189" x2="22.175" y2="23.363" gradientUnits="userSpaceOnUse"><stop stop-color="#3F3E40"/><stop offset=".09" stop-color="#313032"/><stop offset=".268" stop-color="#1B1B1C"/><stop offset=".464" stop-color="#0C0C0C"/><stop offset=".687" stop-color="#030303"/><stop offset="1"/></linearGradient></defs></svg>