<svg width="64" height="65" viewBox="0 0 64 65" fill="none" xmlns="http://www.w3.org/2000/svg"><g clip-path="url(#clip0_6106_8794)"><path d="M33.33 53.583c-.754.094-1.789-.047-2.542 0-.47 0-2.447.33-2.73.047-.564-.565 0-4 0-4.847 0-2.541.048-5.13-.093-7.67-.142-2.4.988-6.777-2.071-7.436-1.459-.33-3.2.33-4.565-.047-1.6-.518-.847-3.859-.8-5.223 0-.33-.235-1.647-.094-1.836 0 .047 1.177-.047 1.6-.047 1.365-.047 3.388.706 4.659 0 1.177-.706.8-1.976.8-3.153 0-2.023.141-3.953.847-5.835 2.024-5.176 7.388-7.53 12.659-6.541.235.094.423.235.565.47.235.518.094 4.848-.142 5.318-.611 1.13-1.035.33-2.07.235-.753-.047-1.788-.047-2.494.189-.753.235-1.27.517-1.742 1.176-1.223 1.553-2.164 6.259-.8 7.859.612.753 1.365.659 2.306.659 1.695.047 3.436.14 5.13.33.047 1.505 0 3.058-.141 4.517-.142 1.6.047 1.412-1.27 1.506-.942.094-1.93 0-2.871.047-2.965.094-3.295.423-3.106 3.34.282 4.283.847 8.519.564 12.848-.047.753-.047 1.6-.188 2.353-.188 1.318-.094 1.6-1.412 1.741z" fill="#F2F2F2"/><path fill-rule="evenodd" clip-rule="evenodd" d="M6.223 4.077c.8-.611 2.4-.282 3.341-.282h.095c-.032-.031-.047-.063-.047-.094a7.192 7.192 0 001.74.047c2.26-.188 4.612-.377 6.871-.377h.236c3.388 0 6.87.047 10.306-.14.282.03.58.046.894.046l12.847-.094c2.07 0 4.094-.047 6.164.047 1.883.141 3.718.565 5.647.565 1.46 0 4.424-.612 5.318.518.988 1.223.377 4.14.377 5.647 0 7.388-.189 14.823.517 22.164.094 1.177.377 2.306.518 3.483.282 2.211.047 4.564.047 6.776 0 1.694-.282 3.341-.33 4.988-.094 2.071.236 4.142-.047 6.165-.188 1.459-.282 2.87-.47 4.282-.094 1.271-.377 2.024-1.647 2.118-.706.094-1.46-.047-2.165-.047-1.412 0-2.73-.188-4.141-.282-1.93-.094-3.953.047-5.93.047-1.976 0-4-.094-5.976-.094-1.647.047-3.247.282-4.894.329-1.788.047-3.53.235-5.318.282-2.07.047-4.14.377-6.259.33-1.835-.047-3.67-.094-5.553-.094-1.882 0-3.67-.236-5.505-.283-1.553 0-3.06-.188-4.565-.423-.518-.047-1.035-.047-1.553-.094-1.694-.236-1.788-1.13-1.6-2.683.188-1.553-.188-3.106-.188-4.658 0-1.977.188-4.048 0-6.024-.141-1.647-.094-3.294-.33-4.941-.235-1.977-.047-3.953-.235-5.93-.188-2.211-.235-4.423-.235-6.682 0-2.212-.236-4.612.047-6.776.564-3.906.706-8.047.706-12 0-1.883-.424-4.471 1.317-5.836zM35.588 35.09c.8-.376 3.059 0 3.765.047 1.411.047 2.917.518 3.482-1.035.424-1.13.235-2.541.282-3.718.047-1.27.142-2.588.047-3.859-.047-.517-.376-.8-.847-.847-1.835-.235-4.235.047-5.976-.423-1.27-.377-.988 1.082-1.035-1.694-.047-1.13-.047-2.73.564-3.718 1.647-2.635 4.989.659 6.541-1.506.706-.988.33-2.823.377-3.953.047-1.035.612-3.059.094-4.047-.47-.941-1.788-1.082-3.059-.988-7.059-1.459-13.74 4.188-14.212 11.435-.094.941.048 2.118-.188 3.012-.282 1.223-.517 1.13-1.835 1.13-1.177-.048-3.53-.236-4.47.658-.848.847-.283 2.212-.33 3.294-.047 1.553-.847 4.189-.141 5.694.753 1.6 2.682.847 4.094.753.847-.047 2.494-.33 3.059.706.517.988 0 3.106.047 4.188.094 2.918.094 5.789.094 8.66 0 1.505-.612 4.329.188 5.74.612 1.083 1.835.847 2.918.8 1.27 0 2.541-.094 3.812.047.706.048 1.129.189 1.788-.094 1.13-.517 1.506-1.506 1.6-2.635.235-2.494.33-5.035.235-7.53-.094-2.823-.517-5.646-.612-8.517-.047-.47.189-1.788-.282-1.6z" fill="#3A5898"/><path fill-rule="evenodd" clip-rule="evenodd" d="M18.93 34.477c-.706-1.506.093-4.141.14-5.694.048-1.082-.517-2.4.33-3.247.941-.941 3.341-.753 4.47-.706 1.318.047 1.553.141 1.836-1.082.235-.941.094-2.07.188-3.012.47-7.294 7.153-12.894 14.212-11.482 1.27-.095 2.588.047 3.059.988.517 1.035-.047 3.012-.094 4.047-.047 1.176.329 2.965-.377 4-1.553 2.118-4.894-1.177-6.541 1.459-.612.988-.565 2.588-.565 3.717.047 2.777-.235 1.365 1.035 1.695 1.742.517 4.142.188 5.977.423.47.047.8.377.847.894.094 1.27.047 2.588-.047 3.859-.047 1.13.188 2.588-.282 3.67-.565 1.553-2.071 1.13-3.436 1.036-.753-.047-3.012-.377-3.812 0 .471-.188.236 1.082.283 1.6.094 2.823.517 5.647.612 8.517.094 2.448.047 4.989-.236 7.483-.094 1.176-.47 2.117-1.6 2.635-.659.282-1.082.188-1.788.094-1.27-.14-2.541-.047-3.812 0-1.082 0-2.306.283-2.917-.847-.8-1.364-.188-4.188-.188-5.741 0-2.87.046-5.741-.095-8.612-.047-1.13.471-3.2-.047-4.188-.564-1.082-2.164-.753-3.059-.706-1.411.047-3.34.8-4.094-.8zm1.6-6.07c-.048 1.364-.8 4.705.8 5.223 1.364.377 3.105-.282 4.564.047 3.059.659 1.93 5.035 2.07 7.435.142 2.542.095 5.13.095 7.671 0 .847-.565 4.282 0 4.847.282.282 2.259-.047 2.73-.047.752-.047 1.787.094 2.54 0 1.318-.141 1.224-.423 1.412-1.741.141-.753.141-1.6.188-2.353.283-4.33-.282-8.565-.564-12.847-.189-2.918.14-3.247 3.105-3.341.942-.047 1.93.047 2.871-.047 1.318-.094 1.13.094 1.27-1.506.142-1.46.189-3.012.142-4.518-1.694-.188-3.435-.282-5.13-.33-.94 0-1.694.095-2.305-.658-1.365-1.6-.424-6.306.8-7.859.47-.659.988-.941 1.74-1.176.707-.236 1.742-.236 2.495-.189 1.035.094 1.459.894 2.07-.235.236-.47.377-4.8.142-5.318a1.099 1.099 0 00-.565-.47c-5.27-.988-10.635 1.365-12.659 6.541-.706 1.882-.847 3.812-.847 5.835 0 1.177.377 2.447-.8 3.153-1.27.706-3.294-.047-4.659 0-.423 0-1.6.094-1.6.047-.14.188.094 1.506.094 1.836z" fill="#000"/><path fill-rule="evenodd" clip-rule="evenodd" d="M2.13 61.583c-.942-5.365-.613-10.87-.613-16.33 0-2.964-.047-5.882 0-8.846.048-2.26-.282-4.471-.235-6.73 0-1.317-.282-2.588-.33-3.906-.046-1.317.236-2.588.283-3.859.094-2.729.047-5.458.094-8.14 0-1.177.047-2.307-.094-3.436-.047-.753-.188-1.647.094-2.353.377-.988.894-.894 1.553-.659.063-.376.11-.753.141-1.13.236-1.6.565-2.4 1.318-3.011 0-.094.031-.188.094-.282 1.035-1.177 2.494-1.694 4-1.412.612-.188 1.27-.282 2.024-.33 2.494-.047 4.988.095 7.435 0 2.494-.094 4.988-.517 7.482-.235.408.063.816.094 1.224.094.33-.047.659-.14.941-.14 1.553-.19 3.106-.142 4.706-.19 1.318-.046 2.635.236 4 .236 1.318 0 2.635-.047 3.906.094 1.553.189 3.106 0 4.611.189 1.553.235 3.06.282 4.66.235 1.694 0 3.435.047 5.176 0 1.459 0 2.73.282 4.141.376.157.032.282.079.377.141.705.048 1.411.236 1.929.895 1.176 1.411.894 3.2.894 4.94-.094 2.495 0 4.989 0 7.53a557.58 557.58 0 00-.047 7.247c0 1.835.33 3.67.282 5.46 0 3.576.8 7.01.753 10.587 0 4.236-.235 8.424-.235 12.612 0 2.024-.33 4-.518 5.977-.094 1.27-.14 2.87-1.082 3.811-.941.941-2.306.424-3.482.377h-.66c.048 1.459-.658 1.788-2.164 1.976-2.118.235-4.235.33-6.306.565-2.635.282-5.364.141-8 .047-2.588-.094-5.13.33-7.67.377-5.083.046-10.165-.33-15.153-.283-2.541 0-5.13-.612-7.624-.847-1.13-.141-2.212-.423-3.294-.659-1.318-.282-2.541-.235-3.859-.376-.33-.047-.706-.236-.753-.612zm3.105-9.412c0 1.553.377 3.106.188 4.66-.188 1.552-.094 2.493 1.6 2.681.518.047 1.036.047 1.6.142a35 35 0 004.518.423c1.835 0 3.624.282 5.506.282 1.882 0 3.718.047 5.6.095 2.07 0 4.141-.33 6.212-.377 1.788-.047 3.53-.235 5.317-.282 1.647 0 3.247-.283 4.894-.283 1.977-.047 4 .047 5.977.047 1.976 0 4-.14 5.93 0 1.411.047 2.729.283 4.14.236.706 0 1.46.14 2.165.094 1.27-.094 1.553-.894 1.694-2.118.142-1.459.236-2.87.424-4.282.282-2.07-.047-4.141.047-6.165.047-1.694.33-3.294.33-5.035 0-2.165.235-4.565-.048-6.73-.14-1.176-.376-2.352-.517-3.529-.706-7.341-.518-14.776-.518-22.118 0-1.505.612-4.47-.377-5.694-.894-1.13-3.858-.47-5.317-.47-1.93 0-3.765-.47-5.647-.565-2.07-.141-4.094-.047-6.165-.047-4.267.031-8.549.047-12.847.047-.314 0-.612-.016-.894-.047-3.435.235-6.918.141-10.306.141-.063.031-.141.031-.235 0-2.26.047-4.612.188-6.87.377-.566.047-1.177.047-1.742 0 .031 0 .047.015.047.047h-.094c-.941 0-2.541-.33-3.341.282-1.741 1.365-1.318 3.953-1.318 5.882 0 3.953-.141 8.047-.706 11.953-.282 2.212-.047 4.612-.047 6.824 0 2.212.047 4.423.235 6.635.189 2.024 0 3.953.236 5.977.235 1.6.188 3.294.33 4.894.187 1.976 0 4.047 0 6.023zm-2.118 3.247a59.89 59.89 0 00-.14-4.047 63.7 63.7 0 00.14 4.235v-.188zM36.2 62.524c-1.459 0-2.965.141-4.424.236 1.694 0 3.388-.048 5.036-.236H36.2z" fill="#000"/></g><defs><clipPath id="clip0_6106_8794"><path fill="#fff" transform="translate(.765 .36)" d="M0 0h62.588v64H0z"/></clipPath></defs></svg>