<svg width="31" height="30" viewBox="0 0 31 30" fill="none" xmlns="http://www.w3.org/2000/svg"><path d="M14.581 27.83C6.985 27.83.827 21.682.827 14.096.827 6.509 6.985.359 14.58.359c7.596 0 13.754 6.15 13.754 13.736S22.177 27.83 14.581 27.83z" fill="#000"/><path d="M16.412 28.139c-7.504 0-13.587-6.076-13.587-13.57C2.825 7.075 8.908 1 16.412 1 23.917 1 30 7.075 30 14.57c0 7.493-6.083 13.569-13.588 13.569z" fill="#FFE300"/><path fill-rule="evenodd" clip-rule="evenodd" d="M1.825 14.57c0 8.047 6.532 14.569 14.587 14.569 8.056 0 14.588-6.522 14.588-14.57C31 6.522 24.468 0 16.412 0 8.357 0 1.825 6.522 1.825 14.57zm1 0c0 7.493 6.083 13.569 13.587 13.569 7.505 0 13.588-6.076 13.588-13.57C30 7.075 23.917 1 16.412 1 8.908 1 2.825 7.075 2.825 14.57z" fill="#000"/><path d="M28.517 20.737a13.636 13.636 0 01-5.198 5.52L4.307 8.4a13.636 13.636 0 015.198-5.52l19.012 17.856z" fill="#FFEB76"/><path d="M16.412 24.744c-5.627 0-10.189-4.555-10.189-10.175 0-5.62 4.562-10.175 10.189-10.175S26.601 8.95 26.601 14.57s-4.562 10.175-10.189 10.175z" fill="#FFD000"/><path d="M13.317 16.224a.481.481 0 00-.404.599 4.004 4.004 0 004.376 2.923 4.003 4.003 0 003.494-3.934.482.482 0 00-.543-.477l-6.923.889z" fill="#BA0000"/><path d="M14.117 16.12l5.426-.696a2.992 2.992 0 01-5.426.697z" fill="#FF0038"/><path d="M20.24 12.841a.86.86 0 00.705-.992l-.078-.461a.861.861 0 00-1.699.287l.078.461a.86.86 0 00.993.705z" fill="url(#paint0_linear_6182_369)"/><path d="M13.534 13.975a.86.86 0 00.706-.992l-.078-.461a.861.861 0 00-1.699.287l.078.461c.08.469.524.784.993.705z" fill="url(#paint1_linear_6182_369)"/><path opacity=".5" d="M16.048 23.793c5.624-.172 10.044-4.866 9.87-10.482a10.115 10.115 0 00-1.563-5.114 10.119 10.119 0 012.24 6.06c.173 5.617-4.246 10.31-9.87 10.482a10.186 10.186 0 01-8.933-4.744 10.18 10.18 0 008.256 3.798z" fill="#FFAD00"/><defs><linearGradient id="paint0_linear_6182_369" x1="19.917" y1="10.921" x2="20.293" y2="13.143" gradientUnits="userSpaceOnUse"><stop stop-color="#3F3E40"/><stop offset=".09" stop-color="#313032"/><stop offset=".268" stop-color="#1B1B1C"/><stop offset=".464" stop-color="#0C0C0C"/><stop offset=".687" stop-color="#030303"/><stop offset="1"/></linearGradient><linearGradient id="paint1_linear_6182_369" x1="13.212" y1="12.055" x2="13.588" y2="14.277" gradientUnits="userSpaceOnUse"><stop stop-color="#3F3E40"/><stop offset=".09" stop-color="#313032"/><stop offset=".268" stop-color="#1B1B1C"/><stop offset=".464" stop-color="#0C0C0C"/><stop offset=".687" stop-color="#030303"/><stop offset="1"/></linearGradient></defs></svg>