<svg width="63" height="65" viewBox="0 0 63 65" fill="none" xmlns="http://www.w3.org/2000/svg"><g clip-path="url(#clip0_6106_8814)"><path d="M49.2 44.924c-.988-.376-2.118-1.082-3.059-1.411-1.13-.424-4.659-.942-5.694-1.93.988-2.823 3.341-5.082 4.8-7.623 1.27-2.26 2.4-4.612 3.53-6.965.14-.283.376-.706.611-1.177-.188 2.4-.094 4.941-.141 7.247 0 2.212 0 4.424-.094 6.589-.047.988-.094 1.93-.094 2.917 0 .47.188 1.6.141 2.353z" fill="#3BF588"/><path d="M48.494 23.371c.188 1.412-1.741 4.424-2.447 5.694-1.223 2.212-2.353 4.47-3.859 6.494-.941 1.27-2.023 2.824-2.776 4.377-.8-1.318-1.977-2.447-2.824-3.765-.894-1.365-1.647-2.824-2.4-4.235-.25-.44-.518-.863-.8-1.27.706-1.177 1.035-2.495 1.647-3.766a160.075 160.075 0 012.683-5.835c.235-.47.47-1.176.847-1.553.094.032.235.063.423.094 1.977.66 3.953 1.083 5.93 1.836.988.423 3.435.847 3.576 1.929z" fill="#09E26F"/><path d="M37.623 40.171c-3.058-.659-5.929-2.4-8.753-3.53a.887.887 0 00-.282-.046c-.094-3.2.188-6.353.094-9.506 1.224 1.694 2.683 3.2 3.765 5.035.941 1.6 1.741 3.294 2.776 4.894.706 1.083 1.647 2.07 2.4 3.153z" fill="#1CC26E"/><path d="M25.059 45.16c-1.177-.706-2.306-1.412-3.53-2.071-1.223-.659-2.352-1.082-2.635-2.494-.517-2.541-.517-5.647-.517-8.236-.047-2.729-.189-5.458-.33-8.14-.047-.8-.518-3.154-.235-4l1.882.658c.706.33 1.459.753 2.165 1.13 1.835.94 3.435 2.4 5.506 2.823v.188c.047.188.188.424.33.66-.66 5.505-1.083 11.152-.613 16.658 0 .33.424 3.059.142 3.388-.377.424-1.506-.235-2.165-.565z" fill="#07A66C"/><path fill-rule="evenodd" clip-rule="evenodd" d="M6.282 3.795c.8-.612 2.4-.283 3.342-.283h.094c0-.03-.016-.047-.047-.047a10.75 10.75 0 001.74 0 112.18 112.18 0 016.871-.376h.236c3.388 0 6.87.094 10.305-.141v.047h.895c4.298 0 8.596-.016 12.894-.047 2.023 0 4.094-.094 6.117.047 1.883.094 3.718.564 5.648.564 1.458 0 4.423-.658 5.317.471.988 1.224.377 4.188.377 5.694 0 7.341-.189 14.777.517 22.118.141 1.176.377 2.353.518 3.53.282 2.164.047 4.564.047 6.729 0 1.74-.282 3.34-.33 5.035-.094 2.023.236 4.094-.047 6.165-.188 1.411-.282 2.87-.423 4.282-.141 1.224-.377 2.023-1.694 2.118-.659.047-1.459-.095-2.165-.095-1.412.048-2.73-.188-4.141-.235-1.93-.14-3.953 0-5.93 0-1.976 0-4-.047-5.976-.047-1.647 0-3.247.282-4.894.282-1.788.048-3.53.236-5.318.283-2.07.047-4.14.376-6.212.376-1.882-.047-3.717-.094-5.6-.094-1.835 0-3.67-.282-5.505-.282a35.016 35.016 0 01-4.518-.424c-.565-.094-1.082-.094-1.6-.14-1.694-.189-1.788-1.13-1.6-2.683.188-1.553-.188-3.106-.188-4.659 0-1.976.188-4.047 0-6.023-.141-1.6-.094-3.295-.33-4.895-.235-2.023-.047-3.953-.235-5.976-.188-2.212-.188-4.424-.235-6.635 0-2.212-.236-4.612.047-6.824.565-3.906.706-8 .706-11.953 0-1.93-.424-4.518 1.317-5.882zm26.306 25.694c-1.223-1.741-2.73-3.435-4.14-4.988.03-.032.03-.047 0-.047 0-.063-.017-.11-.048-.142.047-.329-.094-.611-.47-.8-3.012-1.27-5.648-3.576-8.8-4.517-2.777-.894-2.777.517-2.824 2.87-.047 3.624.282 7.247.376 10.871.047 1.882.283 3.718.424 5.6.047 1.082-.141 2.918.33 3.953.564 1.082 1.976 1.506 3.011 2.07 1.506.8 2.918 1.742 4.47 2.495 1.648.8 3.389 1.694 3.906-.706.283-1.083.048-2.26-.047-3.389a70.922 70.922 0 01-.14-4.47c3.2 1.459 6.493 3.341 10.117 3.718 0 .062.031.125.094.188.612 1.223 2.635 1.553 3.765 1.93 1.506.423 3.012.893 4.423 1.458.847.33 1.647 1.035 2.542 1.224.376.094.705-.047.94-.377.754-1.223.189-3.53.189-4.894.094-2.541.141-5.082.094-7.624 0-2.164.094-4.376.047-6.54-.047-1.413.141-3.107-.565-4.424.032-.283 0-.518-.094-.706-.517-1.13-2.776-1.553-3.859-1.883-2.306-.705-4.658-1.411-6.964-2.164-1.365-.424-1.647-.33-2.4.988-.989 1.741-1.6 3.576-2.541 5.365-.518 1.035-1.036 2.07-1.412 3.2-.188.564-.283 1.176-.424 1.74z" fill="#FEFEFE"/><path fill-rule="evenodd" clip-rule="evenodd" d="M17.435 42.289c-.47-1.036-.282-2.87-.33-3.953-.14-1.883-.376-3.718-.423-5.6-.094-3.624-.423-7.247-.376-10.87.047-2.354.047-3.766 2.823-2.871 3.153.94 5.789 3.247 8.8 4.517.377.188.518.47.471.8.031.032.047.079.047.141.031 0 .031.016 0 .047 1.412 1.553 2.918 3.247 4.141 4.989.141-.565.236-1.177.424-1.742.376-1.129.894-2.164 1.411-3.2.942-1.788 1.553-3.623 2.542-5.364.753-1.318 1.035-1.412 2.4-.988 2.305.753 4.658 1.458 6.964 2.164 1.083.33 3.342.753 3.86 1.883.093.188.125.423.093.706.706 1.317.518 3.011.565 4.423.047 2.165-.047 4.377-.047 6.541.047 2.541 0 5.083-.094 7.624 0 1.364.564 3.67-.188 4.894-.236.33-.565.47-.942.376-.894-.188-1.694-.894-2.54-1.223-1.413-.565-2.918-1.035-4.424-1.459-1.13-.377-3.153-.706-3.765-1.93-.063-.062-.094-.125-.094-.188-3.624-.376-6.918-2.258-10.118-3.717 0 1.506.047 2.964.141 4.47.095 1.13.33 2.306.047 3.389-.517 2.4-2.258 1.505-3.905.705-1.553-.753-2.965-1.694-4.471-2.494-1.035-.564-2.447-.988-3.012-2.07zm15.953-11.624c.282.408.55.832.8 1.27.753 1.412 1.506 2.871 2.4 4.236.847 1.318 2.024 2.447 2.824 3.765.753-1.553 1.835-3.106 2.776-4.377 1.506-2.023 2.636-4.282 3.859-6.494.706-1.27 2.635-4.282 2.447-5.694-.141-1.082-2.588-1.506-3.576-1.93-1.977-.752-3.953-1.176-5.93-1.835a2.986 2.986 0 01-.423-.094c-.377.377-.612 1.083-.847 1.553a160.64 160.64 0 00-2.683 5.835c-.611 1.271-.94 2.589-1.647 3.765zm-4.517 5.977c2.823 1.129 5.694 2.87 8.753 3.529-.754-1.082-1.695-2.07-2.4-3.153-1.036-1.6-1.836-3.294-2.777-4.894-1.082-1.835-2.541-3.341-3.765-5.035.094 3.153-.188 6.306-.094 9.506.094 0 .188.015.282.047zm-10.495-4.283c0 2.588 0 5.694.518 8.236.282 1.411 1.412 1.835 2.635 2.494 1.224.659 2.353 1.364 3.53 2.07.659.33 1.788.989 2.165.565.282-.33-.142-3.059-.142-3.388-.47-5.506-.047-11.153.612-16.66-.141-.234-.282-.47-.33-.658v-.188c-2.07-.424-3.67-1.882-5.505-2.824-.706-.376-1.459-.8-2.165-1.13l-1.882-.658c-.283.847.188 3.2.235 4 .141 2.682.282 5.412.33 8.141zm22.071 9.224c1.035.988 4.565 1.506 5.694 1.93.941.329 2.07 1.035 3.059 1.411.047-.753-.141-1.882-.141-2.353 0-.988.047-1.93.094-2.918.094-2.164.094-4.376.094-6.588.047-2.306-.047-4.847.141-7.247-.235.47-.47.894-.612 1.177-1.129 2.352-2.258 4.705-3.529 6.964-1.459 2.541-3.812 4.8-4.8 7.624z" fill="#000"/><path fill-rule="evenodd" clip-rule="evenodd" d="M1.906 61.395c-.941-5.365-.612-10.871-.612-16.33 0-2.965-.047-5.882 0-8.847.047-2.259-.282-4.47-.235-6.73 0-1.317-.283-2.587-.33-3.905-.047-1.318.236-2.588.283-3.859.094-2.73.047-5.459.094-8.141 0-1.177.047-2.306-.094-3.435-.047-.753-.188-1.648.094-2.353.376-.989.894-.895 1.553-.706.063-.345.11-.706.141-1.083.235-1.6.565-2.4 1.318-3.011 0-.095.031-.189.094-.283 1.035-1.176 2.494-1.694 4-1.412.612-.188 1.27-.282 2.023-.329 2.494-.047 4.989.094 7.483 0 2.447-.094 4.988-.518 7.435-.235.408.063.816.094 1.223.094.33-.047.66-.141.942-.141C28.87.5 30.423.548 32.023.5c1.318 0 2.636.236 4 .236 1.318 0 2.636-.047 3.906.094 1.553.188 3.106 0 4.612.188 1.553.235 3.059.282 4.659.235 1.694 0 3.435.047 5.176 0 1.46 0 2.73.283 4.189.377.14 0 .235.094.33.141.705.047 1.41.235 1.928.894 1.224 1.412.942 3.2.895 4.941-.095 2.495 0 4.989 0 7.53 0 2.416-.016 4.831-.047 7.247 0 1.835.329 3.67.282 5.459 0 3.576.8 7.011.8 10.588-.047 4.235-.282 8.423-.282 12.612 0 2.023-.33 4-.518 5.976-.094 1.27-.141 2.87-1.082 3.812-.942.941-2.306.423-3.483.376h-.659c.047 1.46-.658 1.789-2.164 1.977-2.118.235-4.236.33-6.306.565-2.636.282-5.365.14-8 .047-2.541-.095-5.13.329-7.67.376-5.083.047-10.118-.33-15.154-.282-2.54 0-5.13-.612-7.623-.847-1.13-.142-2.212-.424-3.294-.66-1.318-.282-2.542-.234-3.86-.376-.329-.047-.705-.235-.752-.611zm3.106-9.412c0 1.553.376 3.106.188 4.659s-.094 2.494 1.6 2.682c.518.047 1.035.047 1.6.141a35 35 0 004.518.424c1.835 0 3.67.282 5.506.282 1.882 0 3.717.047 5.6.094 2.07 0 4.14-.33 6.211-.376 1.788-.047 3.53-.236 5.318-.283 1.647 0 3.247-.282 4.894-.282 1.976 0 4 .047 5.976.047 1.977 0 4-.141 5.93 0 1.412.047 2.73.282 4.141.235.706 0 1.506.142 2.165.094 1.317-.094 1.553-.894 1.694-2.117.141-1.412.235-2.87.423-4.282.283-2.071-.047-4.142.047-6.165.048-1.694.33-3.294.33-5.036 0-2.164.235-4.564-.047-6.729-.141-1.176-.377-2.353-.518-3.53-.706-7.34-.517-14.776-.517-22.117 0-1.506.611-4.47-.377-5.694-.894-1.13-3.859-.47-5.318-.47-1.929 0-3.764-.471-5.647-.565-2.023-.142-4.094-.047-6.117-.047-4.298.03-8.596.047-12.894.047h-.895v-.047c-3.435.235-6.917.14-10.305.14h-.236c-2.259.048-4.611.189-6.87.377a10.75 10.75 0 01-1.741 0c.03 0 .047.016.047.047h-.094c-.942 0-2.542-.33-3.342.283-1.74 1.364-1.317 3.953-1.317 5.882 0 3.953-.141 8.047-.706 11.953-.283 2.212-.047 4.612-.047 6.823.047 2.212.047 4.424.235 6.636.188 2.023 0 3.953.235 5.976.236 1.6.189 3.294.33 4.894.188 1.977 0 4.047 0 6.024zm-2.118 3.435v-.188c0-1.318-.047-2.682-.094-4.047-.031 1.412 0 2.823.094 4.235zm33.082 6.918c-1.458 0-2.917.141-4.423.235 1.694 0 3.388-.047 5.035-.235h-.612z" fill="#000"/></g><defs><clipPath id="clip0_6106_8814"><path fill="#fff" transform="translate(.353 .36)" d="M0 0h62.588v64H0z"/></clipPath></defs></svg>