<svg width="63" height="65" viewBox="0 0 63 65" fill="none" xmlns="http://www.w3.org/2000/svg"><g clip-path="url(#clip0_6106_8804)"><path d="M47.682 18.995c.141.14.376.14.565.047.94.047 2.117-.518 3.153-.988-.424.988-1.036 1.929-1.365 2.917a.618.618 0 00.141.565c.612.612 1.788.565 2.823.565a8.273 8.273 0 01-.517.564c-.8.8-1.883 1.27-2.588 2.118-.706.847-.847 1.741-.8 2.73-.847 2.588-.989 5.411-2.212 7.952-1.741 3.765-4.094 7.247-7.67 9.506-3.389 2.118-7.53 4-11.483 4.612-3.482.518-10.07-.33-12.612-3.53 3.859-.235 8.424-.658 10.87-4 .377-.517-.14-1.223-.705-1.223-1.93-.094-4.33-.376-5.741-1.741-1.13-1.082-1.224-2.353-1.177-3.765 1.27.8 2.777 1.365 4.047 1.412.33 0 .424-.47.188-.612-1.458-.988-3.152-1.882-4.47-3.059-1.788-1.553-1.788-3.2-1.788-5.13 1.223 1.319 2.73 2.307 4.376 2.825.377.094.659-.377.424-.66-1.647-1.6-3.483-2.917-4.706-4.8-.753-1.129-1.177-2.352-1.365-3.717-.188-1.082-.423-1.459.47-2.259.989-.847 1.413-.47 2.495.188 1.93 1.224 3.482 3.153 5.317 4.518 1.506 1.082 3.153 2.024 4.942 2.447 2.776.659 5.458 1.6 6.353-1.93.564-2.352.423-4.188 2.494-5.835 3.059-2.4 7.623-2.164 10.54.283z" fill="#F2F2F2"/><path fill-rule="evenodd" clip-rule="evenodd" d="M5.988 3.983c.8-.612 2.4-.283 3.341-.283h.094c0-.031-.016-.047-.047-.047a10.75 10.75 0 001.741 0c2.259-.188 4.612-.33 6.918-.376a.2.2 0 00.188 0c3.435 0 6.87.094 10.306-.141.314.031.612.047.894.047 4.298 0 8.596-.016 12.894-.047 2.024 0 4.094-.094 6.118.047 1.882.094 3.718.564 5.647.564 1.459 0 4.423-.658 5.318.471.988 1.224.376 4.188.376 5.694 0 7.341-.188 14.777.518 22.118.14 1.176.376 2.353.517 3.53.283 2.164.047 4.564.047 6.729 0 1.74-.235 3.34-.329 5.035-.094 2.023.235 4.094-.047 6.165-.188 1.411-.282 2.823-.424 4.282-.14 1.224-.376 2.023-1.694 2.118-.659.047-1.459-.095-2.164-.095-1.412.048-2.73-.188-4.142-.235-1.929-.14-3.953 0-5.882 0-2.023 0-4.047-.094-6.023-.047-1.648 0-3.248.282-4.895.282-1.788.048-3.529.236-5.317.283-2.07.047-4.094.376-6.212.376-1.882-.047-3.718-.094-5.6-.094-1.835 0-3.67-.282-5.506-.282a36.66 36.66 0 01-4.518-.424c-.564-.094-1.082-.094-1.6-.14-1.694-.19-1.788-1.13-1.6-2.683.189-1.553-.188-3.106-.188-4.659 0-1.977.188-4.047 0-6.023-.141-1.6-.094-3.295-.33-4.895-.235-2.023-.046-3.953-.235-5.976-.188-2.212-.188-4.424-.188-6.635-.047-2.212-.282-4.612.047-6.824.565-3.906.66-8 .66-11.953.046-1.93-.377-4.518 1.317-5.882zm48.8 18.165c.33-.33.141-.848-.283-1.036-.658-.235-1.223-.188-1.929-.235-.33-.047-.847 0-1.082-.141-.047 0-.094 0-.094-.047.047-1.036 1.317-2.447 1.6-3.436.14-.47-.33-.847-.753-.753-1.224.236-3.06.8-4.189 1.648-3.059-3.671-9.176-3.2-12.517-.048-.8.753-1.318 1.553-1.694 2.589a9.02 9.02 0 00-.424 1.506c-.282 1.364.047 1.74-1.27 2.447-2.448 1.223-6.118-.942-8.095-2.4-1.694-1.224-9.176-8.33-10.306-3.012-.564 2.588.142 5.27 1.6 7.435-1.082 2.259-.658 4.8.895 6.824.329.423.753.847 1.27 1.27-.753 1.93-.988 3.435.565 5.224 1.365 1.553 3.341 2.212 5.365 2.4-2.494 2.07-6.542 2.164-9.506 2.4-.518.047-.8.517-.565 1.035 1.93 3.859 7.53 5.13 11.435 5.506 4.706.47 9.742-1.788 13.742-4 4.14-2.259 7.105-5.553 9.27-9.741 1.412-2.777 2.965-6.87 2.824-10.212.329-.847.564-1.647 1.317-2.4l2.824-2.823z" fill="#54ACEC"/><path fill-rule="evenodd" clip-rule="evenodd" d="M13.753 19.23c1.13-5.318 8.612 1.788 10.306 3.012 1.976 1.459 5.647 3.623 8.094 2.4 1.318-.706.988-1.082 1.27-2.447.094-.518.236-.988.424-1.506.376-1.035.894-1.835 1.694-2.588 3.341-3.153 9.459-3.624 12.518.047 1.13-.847 2.964-1.412 4.188-1.647.423-.094.894.282.753.753-.282.988-1.553 2.4-1.6 3.435 0 .047.047.047.094.047.235.141.753.094 1.082.141.706.047 1.271 0 1.93.236.423.188.611.705.282 1.035l-2.823 2.823c-.753.753-.989 1.553-1.318 2.4.141 3.341-1.412 7.436-2.824 10.212-2.164 4.188-5.129 7.482-9.27 9.741-4 2.212-9.035 4.47-13.741 4-3.906-.376-9.506-1.647-11.436-5.506-.235-.517.047-.988.565-1.035 2.965-.235 7.012-.33 9.506-2.4-2.024-.188-4-.847-5.365-2.4-1.553-1.788-1.317-3.294-.565-5.223a8.091 8.091 0 01-1.27-1.271c-1.553-2.024-1.976-4.565-.894-6.824-1.459-2.164-2.165-4.847-1.6-7.435zm4.282.282c-1.082-.658-1.506-1.035-2.494-.188-.894.8-.659 1.177-.47 2.26.188 1.364.611 2.587 1.364 3.717 1.224 1.882 3.059 3.2 4.706 4.8.235.282-.047.753-.423.659-1.648-.518-3.153-1.506-4.377-2.824 0 1.93 0 3.576 1.788 5.13 1.318 1.176 3.012 2.07 4.47 3.058.236.141.142.612-.187.612-1.27-.047-2.777-.612-4.047-1.412-.047 1.412.047 2.683 1.176 3.765 1.412 1.365 3.812 1.647 5.741 1.741.565 0 1.083.706.706 1.224-2.447 3.34-7.012 3.764-10.87 4 2.54 3.2 9.129 4.047 12.611 3.53 3.953-.613 8.094-2.495 11.483-4.613 3.576-2.258 5.93-5.74 7.67-9.506 1.224-2.54 1.365-5.364 2.212-7.953-.047-.988.094-1.882.8-2.729.706-.847 1.788-1.318 2.588-2.118.188-.188.361-.376.518-.564-1.035 0-2.212.047-2.824-.565a.618.618 0 01-.14-.565c.329-.988.94-1.93 1.364-2.917-1.035.47-2.212 1.035-3.153.988-.188.094-.424.094-.565-.047-2.917-2.447-7.482-2.683-10.54-.283-2.072 1.648-1.93 3.483-2.495 5.836-.894 3.53-3.576 2.588-6.353 1.93-1.788-.424-3.435-1.366-4.941-2.448-1.836-1.365-3.388-3.294-5.318-4.518z" fill="#000"/><path fill-rule="evenodd" clip-rule="evenodd" d="M1.612 61.583C.67 56.218 1 50.713 1 45.253c0-2.964-.047-5.882 0-8.846.047-2.26-.283-4.471-.236-6.73 0-1.317-.282-2.588-.329-3.906 0-1.317.235-2.588.282-3.859.095-2.729.047-5.458.095-8.14 0-1.177.047-2.307-.095-3.436C.67 9.583.53 8.689.812 7.983c.376-.988.94-.894 1.6-.659.03-.376.062-.753.094-1.13.235-1.6.564-2.4 1.317-3.011a.51.51 0 01.094-.282c1.036-1.177 2.542-1.694 4-1.412.612-.188 1.271-.282 2.024-.33 2.494-.047 4.988.095 7.482 0 2.447-.094 4.989-.517 7.436-.235.407.063.815.094 1.223.094.377-.047.659-.14.941-.14 1.553-.19 3.153-.142 4.706-.19 1.365-.046 2.636.236 4 .236 1.318 0 2.636-.047 3.953.094 1.506.189 3.059 0 4.565.189 1.6.235 3.059.282 4.659.235 1.694 0 3.435.047 5.176 0 1.459 0 2.73.282 4.188.376.157.032.267.079.33.141.753.048 1.411.236 1.93.895 1.223 1.411.94 3.2.893 4.94-.047 2.495 0 4.989 0 7.53v7.247c0 1.835.283 3.67.236 5.46 0 3.576.8 7.01.8 10.587-.048 4.236-.283 8.424-.283 12.612 0 2.024-.33 4-.517 5.977-.094 1.27-.142 2.87-1.083 3.811-.94.941-2.306.424-3.435.377h-.706c.047 1.459-.659 1.788-2.165 1.976-2.117.235-4.188.33-6.306.565-2.635.282-5.364.141-8 .047-2.54-.094-5.082.33-7.67.377-5.082.046-10.118-.33-15.153-.283-2.541 0-5.082-.612-7.624-.847-1.129-.141-2.211-.423-3.294-.659-1.317-.282-2.54-.235-3.811-.376-.377-.047-.753-.236-.8-.612zm4.376-57.6C4.294 5.348 4.718 7.936 4.67 9.865c0 3.953-.094 8.047-.658 11.953-.33 2.212-.095 4.612-.048 6.824 0 2.212 0 4.423.189 6.635.188 2.024 0 3.953.235 5.977.235 1.6.188 3.294.33 4.894.188 1.976 0 4.047 0 6.023 0 1.553.376 3.106.188 4.66-.189 1.552-.094 2.493 1.6 2.681.517.047 1.035.047 1.6.142a36.64 36.64 0 004.517.423c1.836 0 3.67.282 5.506.282 1.883 0 3.718.047 5.6.095 2.118 0 4.141-.33 6.212-.377 1.788-.047 3.53-.235 5.318-.282 1.647 0 3.247-.283 4.894-.283 1.976-.047 4 .047 6.023.047 1.93 0 3.953-.14 5.883 0 1.411.047 2.729.283 4.14.236.707 0 1.507.14 2.166.094 1.317-.094 1.552-.894 1.694-2.118.14-1.459.235-2.87.423-4.282.282-2.07-.047-4.141.047-6.165.094-1.694.33-3.294.33-5.035 0-2.165.235-4.565-.047-6.73-.142-1.176-.377-2.352-.518-3.529-.706-7.341-.518-14.776-.518-22.118 0-1.505.612-4.47-.376-5.694-.894-1.13-3.86-.47-5.318-.47-1.93 0-3.765-.47-5.647-.565-2.024-.141-4.094-.047-6.118-.047-4.298.031-8.596.047-12.894.047-.282 0-.58-.016-.894-.047-3.435.235-6.87.141-10.306.141a.2.2 0 01-.188 0 111.49 111.49 0 00-6.918.377 10.75 10.75 0 01-1.74 0c.03 0 .046.015.046.047H9.33c-.941 0-2.541-.33-3.341.282zM2.6 55.418c0-1.317-.047-2.682-.094-4.047-.032 1.412 0 2.824.094 4.235v-.188zm33.082 7.106c-1.459 0-2.918.141-4.423.236 1.694 0 3.388-.048 5.035-.236h-.612z" fill="#000"/></g><defs><clipPath id="clip0_6106_8804"><path fill="#fff" transform="translate(.059 .36)" d="M0 0h62.588v64H0z"/></clipPath></defs></svg>