<svg width="63" height="65" viewBox="0 0 63 65" fill="none" xmlns="http://www.w3.org/2000/svg"><g clip-path="url(#clip0_6106_8827)"><path d="M28.459 34.712c.094-2.494.188-5.223-.283-7.67.063.03.157.11.283.235.188.125.36.25.517.376.66.377 1.365.753 2.024 1.13 1.6.988 5.882 2.588 3.576 4.847-.894.847-1.788 1.364-2.776 2.07-.612.424-2.165 2.26-2.87 2.212-.158 0-.267.016-.33.047 0-.141 0-.33-.094-.659-.283-.847-.094-1.74-.047-2.588z" fill="#CD1F20"/><path fill-rule="evenodd" clip-rule="evenodd" d="M23.423 21.112c3.812.141 7.577.47 11.295-.282.14-.047.235-.141.235-.282 1.882-.142 3.717.047 5.553.188 1.082.047 2.212 0 3.294.094 1.93.094 2.823.282 3.341 2.447.424 1.741.188 3.906.33 5.694.14 1.93.329 3.953.235 5.882-.047 3.153.282 8.471-3.53 9.365-3.482.847-7.623.377-11.2.47-3.67.095-7.34.189-11.011 0-1.506-.046-3.483.189-4.895-.376-2.729-1.082-1.976-4.47-2.164-6.73-.236-3.34-.706-6.729-.8-10.117-.047-2.776.847-5.27 3.764-6.07 1.789-.518 3.718-.377 5.553-.283zm10.071 15.106c1.977-1.553 3.859-3.153 1.835-5.459-1.176-1.317-2.917-2.117-4.376-2.964-.753-.471-2.259-1.883-3.153-1.883-2.212-.047-1.082 3.953-1.13 5.036 0 .094.016.172.047.235-.046.8-.046 1.6-.094 2.447-.094 1.882-.47 4.141.095 5.976.094.283.376.565.705.518 2.024-.094 4.565-2.682 6.071-3.906z" fill="#fff"/><path fill-rule="evenodd" clip-rule="evenodd" d="M6.294 3.653c.8-.611 2.353-.282 3.341-.282h.094c-.031-.031-.047-.063-.047-.094a7.193 7.193 0 001.742.047c2.258-.188 4.611-.376 6.87-.376h.188c3.436 0 6.918.047 10.353-.142.283.032.565.047.847.047 4.33-.047 8.612-.047 12.894-.094 2.024 0 4.094-.047 6.118.047 1.93.142 3.765.565 5.694.565 1.459 0 4.424-.612 5.318.518.988 1.223.376 4.14.376 5.647 0 7.388-.188 14.823.518 22.165.094 1.176.376 2.305.518 3.482.282 2.212.047 4.565.047 6.776 0 1.694-.283 3.341-.33 4.989-.094 2.07.188 4.14-.047 6.164-.235 1.46-.282 2.87-.47 4.283-.094 1.27-.377 2.023-1.648 2.117-.705.094-1.458-.047-2.164-.047-1.412 0-2.73-.188-4.141-.282-1.977-.094-3.953.047-5.93.047-1.976 0-4-.094-6.023-.094-1.6.047-3.247.282-4.847.33-1.789.046-3.53.234-5.318.282-2.118.047-4.141.376-6.259.329-1.835-.047-3.67-.094-5.553-.094-1.882 0-3.67-.235-5.553-.282-1.506 0-3.011-.189-4.517-.424-.518-.047-1.036-.047-1.6-.094-1.647-.235-1.742-1.13-1.553-2.682.14-1.553-.189-3.106-.189-4.66 0-1.976.189-4.046 0-6.023-.14-1.647-.14-3.294-.329-4.941-.235-1.977-.047-3.953-.235-5.93-.188-2.211-.236-4.423-.236-6.682 0-2.212-.282-4.612.048-6.776.564-3.906.705-8.047.705-12 0-1.883-.423-4.47 1.318-5.836zm43.153 36c.612-4.752.188-9.505-.047-14.305-.094-1.883.188-4.565-1.506-5.883-1.553-1.176-4.282-.753-6.07-.8-2.965-.141-5.695-.282-8.66.047-1.6.141-3.246.141-4.846.236-2.071-.047-4.095-.047-6.071-.047-3.153-.048-7.435.329-8.659 3.905-.612 1.742-.47 3.906-.282 5.742.188 2.164.141 4.376.33 6.588.282 2.964-.707 8.376 2.588 9.93 1.6.752 3.576.752 5.317.8 2.541.093 5.082 0 7.624 0 4.753-.048 9.647.282 14.4-.236 3.764-.377 5.411-2.259 5.882-5.977z" fill="#CD1F20"/><path fill-rule="evenodd" clip-rule="evenodd" d="M27.188 39.136c-.565-1.835-.188-4.094-.094-5.977.047-.847.047-1.647.094-2.447a.523.523 0 01-.047-.235c.047-1.082-1.082-5.082 1.13-5.035.893 0 2.4 1.412 3.152 1.882 1.46.847 3.2 1.647 4.377 2.965 2.023 2.306.141 3.906-1.835 5.459-1.506 1.223-4.048 3.812-6.071 3.906-.33.047-.612-.236-.706-.518zm.988-12.094c.47 2.447.377 5.176.283 7.67-.047.847-.236 1.742.047 2.589.094.33.094.517.094.658a.833.833 0 01.33-.047c.705.047 2.258-1.788 2.87-2.211.988-.706 1.882-1.224 2.776-2.07 2.306-2.26-1.976-3.86-3.576-4.848-.659-.377-1.365-.753-2.024-1.13a7.414 7.414 0 00-.517-.376 1.339 1.339 0 00-.283-.235z" fill="#000"/><path fill-rule="evenodd" clip-rule="evenodd" d="M13.635 35.136c-.188-2.212-.141-4.424-.33-6.588-.188-1.835-.329-4 .283-5.741 1.224-3.577 5.506-3.953 8.659-3.906 1.976 0 4 0 6.07.047 1.6-.094 3.248-.094 4.848-.236 2.964-.329 5.694-.188 8.658-.047 1.789.047 4.518-.376 6.071.8 1.694 1.318 1.412 4 1.506 5.883.235 4.8.659 9.553.047 14.306-.47 3.717-2.118 5.6-5.882 5.976-4.753.518-9.648.188-14.4.235-2.542 0-5.083.094-7.624 0-1.741-.047-3.718-.047-5.318-.8-3.294-1.552-2.305-6.964-2.588-9.929zm10.259-14.494c-1.835-.094-3.765-.235-5.553.282-2.918.8-3.812 3.294-3.765 6.07.095 3.389.565 6.777.8 10.118.189 2.26-.564 5.648 2.165 6.73 1.412.565 3.388.33 4.894.376 3.67.189 7.341.094 11.012 0 3.576-.094 7.718.377 11.2-.47 3.812-.894 3.482-6.212 3.53-9.365.093-1.93-.095-3.953-.236-5.882-.141-1.789.094-3.953-.33-5.694-.517-2.165-1.411-2.353-3.34-2.447-1.083-.095-2.212-.047-3.295-.095-1.835-.14-3.67-.329-5.553-.188 0 .141-.094.235-.235.282-3.718.753-7.482.424-11.294.283z" fill="#000"/><path fill-rule="evenodd" clip-rule="evenodd" d="M1.87 61.206c-.94-5.364-.564-10.87-.564-16.33 0-2.917-.094-5.881-.047-8.8.047-2.305-.236-4.47-.236-6.776.048-1.317-.235-2.588-.282-3.905-.047-1.271.235-2.542.282-3.812.095-2.73.048-5.459.048-8.188.047-1.13.047-2.26-.048-3.436-.094-.753-.235-1.6.048-2.353.423-.988.94-.894 1.6-.658.03-.377.078-.753.14-1.13.236-1.553.565-2.4 1.318-3.012a.36.36 0 01.094-.235C5.26 1.395 6.718.877 8.176 1.16a6.82 6.82 0 012.071-.33c2.447-.046 4.941.095 7.435-.046C20.176.69 22.671.266 25.165.596l1.223.094c.33-.094.659-.141.941-.189 1.553-.14 3.106-.14 4.66-.14 1.364-.048 2.681.235 4.046.235 1.318 0 2.589-.095 3.906.094 1.553.188 3.106-.047 4.612.188 1.553.188 3.059.235 4.612.235h5.223c1.459-.047 2.683.236 4.141.377.189 0 .283.047.377.14.706.048 1.364.236 1.93.848 1.176 1.459.893 3.247.846 4.988-.047 2.494 0 4.988 0 7.482v7.295c0 1.835.283 3.623.283 5.459 0 3.529.8 7.011.753 10.588 0 4.235-.236 8.376-.236 12.611 0 2.024-.33 3.953-.517 5.977-.142 1.223-.142 2.87-1.13 3.812-.941.94-2.259.376-3.435.376-.22 0-.44-.015-.659-.047.047 1.506-.659 1.835-2.212 2.024-2.117.235-4.188.33-6.306.517-2.588.283-5.317.142-7.953.094-2.588-.094-5.129.33-7.717.377-5.035.047-10.118-.33-15.153-.33-2.494.047-5.082-.564-7.577-.847-1.129-.094-2.211-.376-3.294-.658-1.317-.283-2.54-.189-3.858-.377-.33-.047-.706-.188-.8-.612zm3.153-9.364c0 1.553.33 3.105.189 4.659-.189 1.552-.094 2.447 1.553 2.682.564.047 1.082.047 1.6.094 1.506.235 3.011.423 4.517.423 1.883.047 3.67.283 5.553.283 1.835 0 3.718.047 5.553.094 2.118.047 4.141-.282 6.259-.33 1.788-.047 3.53-.235 5.318-.282 1.6-.047 3.247-.282 4.847-.33 2.023 0 4.047.095 6.023.095 1.977 0 3.953-.141 5.93-.047 1.411.094 2.729.282 4.14.282.707 0 1.46.141 2.165.047 1.271-.094 1.553-.847 1.648-2.117.188-1.412.235-2.824.47-4.283.236-2.023-.047-4.094.047-6.165.047-1.647.33-3.294.33-4.988 0-2.212.235-4.564-.047-6.776-.142-1.177-.424-2.306-.518-3.482-.706-7.342-.518-14.777-.518-22.165 0-1.506.612-4.424-.376-5.647-.894-1.13-3.859-.518-5.318-.518-1.93 0-3.764-.423-5.694-.565-2.024-.094-4.094-.047-6.118-.047-4.282.047-8.564.047-12.894.094-.282 0-.564-.015-.847-.047-3.435.189-6.917.142-10.353.142h-.188c-2.259 0-4.612.188-6.87.376a7.193 7.193 0 01-1.742-.047c0 .031.016.063.047.094h-.094c-.988 0-2.54-.33-3.34.282-1.743 1.365-1.32 3.953-1.32 5.837 0 3.953-.14 8.094-.705 12-.33 2.164-.048 4.564-.048 6.776 0 2.259.048 4.47.236 6.682.188 1.977 0 3.953.235 5.93.188 1.647.188 3.294.33 4.941.188 1.977 0 4.047 0 6.024zM2.86 55.277v-.188c0-1.318 0-2.683-.094-4.094 0 1.443.031 2.87.094 4.282zm33.13 6.918c-1.507 0-2.965.14-4.424.235 1.694 0 3.34-.094 5.035-.235h-.612z" fill="#000"/></g><defs><clipPath id="clip0_6106_8827"><path fill="#fff" transform="translate(.647 .36)" d="M0 0h62.118v64H0z"/></clipPath></defs></svg>