<svg width="207" height="48" viewBox="0 0 207 48" fill="none" xmlns="http://www.w3.org/2000/svg"><path d="M14.581 36.83C6.985 36.83.827 30.682.827 23.096S6.985 9.36 14.581 9.36c7.596 0 13.754 6.15 13.754 13.736S22.177 36.83 14.581 36.83z" fill="#000"/><path d="M16.412 37.139c-7.504 0-13.587-6.076-13.587-13.57C2.825 16.075 8.908 10 16.412 10 23.917 10 30 16.075 30 23.57c0 7.493-6.083 13.569-13.588 13.569z" fill="#FFE300"/><path fill-rule="evenodd" clip-rule="evenodd" d="M1.825 23.57c0 8.047 6.532 14.569 14.587 14.569 8.056 0 14.588-6.522 14.588-14.57C31 15.522 24.468 9 16.412 9 8.357 9 1.825 15.522 1.825 23.57zm1 0c0 7.493 6.083 13.569 13.587 13.569 7.505 0 13.588-6.076 13.588-13.57C30 16.075 23.917 10 16.412 10 8.908 10 2.825 16.075 2.825 23.57z" fill="#000"/><path d="M28.517 29.737a13.636 13.636 0 01-5.198 5.52L4.307 17.4a13.636 13.636 0 015.198-5.52l19.012 17.856z" fill="#FFEB76"/><path d="M16.412 33.744c-5.627 0-10.189-4.555-10.189-10.175 0-5.62 4.562-10.175 10.189-10.175S26.601 17.95 26.601 23.57s-4.562 10.175-10.189 10.175z" fill="#FFD000"/><path d="M13.317 25.224a.481.481 0 00-.404.599 4.004 4.004 0 004.376 2.923 4.003 4.003 0 003.494-3.934.482.482 0 00-.543-.478l-6.923.89z" fill="#BA0000"/><path d="M14.117 25.12l5.426-.696a2.992 2.992 0 01-5.426.697z" fill="#FF0038"/><path d="M20.24 21.841a.86.86 0 00.705-.992l-.078-.461a.861.861 0 00-1.699.287l.078.461a.86.86 0 00.993.705z" fill="url(#paint0_linear_6182_367)"/><path d="M13.534 22.975a.86.86 0 00.706-.992l-.078-.461a.861.861 0 00-1.699.287l.078.461c.08.469.524.784.993.705z" fill="url(#paint1_linear_6182_367)"/><path opacity=".5" d="M16.048 32.793c5.624-.172 10.044-4.866 9.87-10.482a10.115 10.115 0 00-1.563-5.114 10.119 10.119 0 012.24 6.06c.173 5.617-4.246 10.31-9.87 10.482a10.186 10.186 0 01-8.933-4.743 10.18 10.18 0 008.256 3.797z" fill="#FFAD00"/><path d="M205.179 15.026c.476 0 .868.392.868.868 0 6.272-2.408 11.592-2.408 16.24 0 .476-.252.84-.896.84h-7.448c-.588 0-.924-.392-.868-.868.224-1.932.112-3.752-.084-5.236-.168-1.008-.42-2.1-.784-2.1-.392 0-.644 1.204-.784 2.1-.224 1.484-.336 3.304-.112 5.236.056.476-.28.868-.868.868h-7.42c-.672 0-.924-.364-.924-.84 0-4.648-2.408-9.968-2.408-16.24 0-.476.392-.868.868-.868h9.24c.448 0 .812.336.812.784 0 1.736-1.064 3.78-1.064 7.224 0 .42.028.728.168.728s.252-.252.392-.7l1.596-4.788c.14-.42.308-.476.504-.476.168 0 .364.056.504.476l1.568 4.788c.14.448.252.7.392.7s.168-.308.168-.728c0-3.444-1.064-5.488-1.064-7.224.028-.448.364-.784.812-.784h9.24zm-34.687-.364c6.076 0 10.444 3.948 10.444 10.192 0 5.992-4.368 8.484-10.444 8.484-6.104 0-10.472-2.492-10.472-8.484 0-6.244 4.368-10.192 10.472-10.192zm0 12.992c1.064 0 1.428-1.232 1.428-3.5 0-2.24-.532-3.948-1.428-3.948-.868 0-1.456 1.708-1.456 3.948 0 2.268.364 3.5 1.456 3.5zm-11.441-12.628c.476 0 .868.392.868.868 0 6.272-2.408 11.592-2.408 16.24 0 .476-.252.84-.896.84h-7.448c-.588 0-.924-.392-.868-.868.224-1.932.112-3.752-.084-5.236-.168-1.008-.42-2.1-.784-2.1-.392 0-.644 1.204-.784 2.1-.224 1.484-.336 3.304-.112 5.236.056.476-.28.868-.868.868h-7.42c-.672 0-.924-.364-.924-.84 0-4.648-2.408-9.968-2.408-16.24 0-.476.392-.868.868-.868h9.24c.448 0 .812.336.812.784 0 1.736-1.064 3.78-1.064 7.224 0 .42.028.728.168.728s.252-.252.392-.7l1.596-4.788c.14-.42.308-.476.504-.476.168 0 .364.056.504.476l1.568 4.788c.14.448.252.7.392.7s.168-.308.168-.728c0-3.444-1.064-5.488-1.064-7.224.028-.448.364-.784.812-.784h9.24zm-31.972 0c.644 0 .896.364.896.84 0 4.648.672 9.968.672 16.24a.872.872 0 01-.868.868h-8.652c-.476 0-.7-.364-.7-.868 0-1.316.812-3.024.812-5.208 0-.98-.252-1.82-1.316-1.82s-1.316.84-1.316 1.82c0 2.184.812 3.892.812 5.208 0 .504-.224.868-.7.868h-8.652a.872.872 0 01-.868-.868c0-6.272.672-11.592.672-16.24 0-.476.252-.84.896-.84h7.42c.616 0 .896.364.896.84 0 .952-.56 2.464-.56 4.956 0 1.148.364 2.1 1.4 2.1s1.428-.952 1.428-2.1c0-2.492-.588-4.004-.588-4.956 0-.476.28-.84.896-.84h7.42zm-22.306 10.276c.532 0 .812.336.868.896.168 1.652.7 3.948.7 5.18 0 .868-3.08 1.96-8.092 1.96-6.02 0-10.416-2.492-10.416-8.484 0-6.244 4.144-10.192 9.968-10.192 4.312 0 6.86.84 6.972 1.96.168 1.764.7 3.752.7 4.816 0 .616-.28.896-.812.896-1.624 0-2.828-2.128-4.536-2.128-1.177 0-2.073 1.568-2.073 3.78 0 2.408.868 3.304 2.493 3.304 2.716 0 3.304-1.988 4.228-1.988zm-18.447-9.436c0 4.2.644 5.74.644 9.912 0 4.956-3.332 7.56-10.612 7.56-7.252 0-10.612-2.604-10.612-7.56 0-4.172.672-5.712.672-9.912 0-.476.252-.84.896-.84h7.756c.616 0 .896.364.896.84 0 1.512-1.064 2.324-1.064 8.12 0 2.408.42 3.304 1.456 3.304 1.064 0 1.456-.896 1.456-3.304 0-5.796-1.036-6.608-1.036-8.12 0-.476.28-.84.868-.84h7.756c.672 0 .924.364.924.84zm-23.29-.84c.644 0 .896.364.896.84 0 4.648.672 9.968.672 16.24a.872.872 0 01-.868.868h-8.54c-.448 0-.784-.364-.812-.812 0-1.736 1.064-3.416 1.064-6.86 0-.7-.028-.98-.224-.98-.112 0-.168.112-.392.728l-1.512 4.648c-.14.42-.336.476-.504.476-.196 0-.364-.056-.504-.476l-1.372-4.144c-.364-1.036-.42-1.232-.56-1.232-.196 0-.224.28-.224.98 0 3.444 1.064 5.124 1.064 6.86a.813.813 0 01-.812.812h-8.54a.872.872 0 01-.868-.868c0-6.272.672-11.592.672-16.24 0-.476.252-.84.896-.84h8.484c.588 0 .924.364.868.84-.224 2.044-.084 4.144.14 5.824.14 1.008.364 2.128.756 2.128.364 0 .588-1.204.728-2.128.252-1.68.364-3.78.14-5.824-.056-.476.28-.84.868-.84h8.484z" fill="#000"/><defs><linearGradient id="paint0_linear_6182_367" x1="19.917" y1="19.921" x2="20.293" y2="22.143" gradientUnits="userSpaceOnUse"><stop stop-color="#3F3E40"/><stop offset=".09" stop-color="#313032"/><stop offset=".268" stop-color="#1B1B1C"/><stop offset=".464" stop-color="#0C0C0C"/><stop offset=".687" stop-color="#030303"/><stop offset="1"/></linearGradient><linearGradient id="paint1_linear_6182_367" x1="13.212" y1="21.055" x2="13.588" y2="23.276" gradientUnits="userSpaceOnUse"><stop stop-color="#3F3E40"/><stop offset=".09" stop-color="#313032"/><stop offset=".268" stop-color="#1B1B1C"/><stop offset=".464" stop-color="#0C0C0C"/><stop offset=".687" stop-color="#030303"/><stop offset="1"/></linearGradient></defs></svg>