<svg width="64" height="64" viewBox="0 0 64 64" fill="none" xmlns="http://www.w3.org/2000/svg"><path d="M10.47 19.259a.365.365 0 00-.15.1c-.016.033-.16.15-.315.268-.288.208-.34.293-.89 1.312-.261.48-.347.853-.261 1.125.037.112.288.539.56.95.271.41.874 1.349 1.333 2.08 1.621 2.58 1.872 2.885 5.621 6.906 1.85 1.984 4.267 4.41 5.419 5.44.47.421 1.573 1.365 2.453 2.101.88.73 2.107 1.766 2.72 2.299.619.528 1.227 1.05 1.36 1.157.48.384 1.376.79 2.096.95.261.058.304.085.304.192 0 .176.107.389.208.416.048.01.32.074.608.138l.528.123.15-.117c.085-.06.186-.112.229-.112a.411.411 0 00.176-.08.365.365 0 01.176-.08c.042 0 .23-.07.416-.16.325-.155.336-.166.336-.358 0-.192.037-.234.677-.79.752-.65 1.61-1.364 2.843-2.372.448-.368 1.035-.848 1.306-1.067.72-.592 2.433-2.107 3.473-3.072 2.805-2.619 3.994-3.659 7.488-6.581 2.922-2.443 3.69-3.152 4.49-4.134.795-.981.896-1.27.939-2.554.026-.95-.032-1.515-.192-1.82-.048-.09-.08-.175-.075-.202.021-.07-.293-.645-.437-.8-.368-.394-1.285-.592-1.717-.368a3.429 3.429 0 00-.448.299c-.134.107-.454.357-.72.555-.555.42-1.254 1.077-2.427 2.282-.459.464-1.382 1.414-2.053 2.102A418.923 418.923 0 0041.6 30.72c-.875.95-2 2.203-2.64 2.96-.8.933-2.053 2.384-2.746 3.173-1.953 2.224-2.363 2.699-2.875 3.339-.304.379-.587.72-.624.763-.054.058-.128-.054-.416-.62a15.615 15.615 0 00-.57-1.034c-.412-.63-1.915-2.085-4.769-4.608-1.83-1.616-2.528-2.282-6.88-6.56-1.786-1.754-3.59-3.52-4-3.92-.41-.394-1.632-1.6-2.72-2.672-1.146-1.136-2.08-2.016-2.224-2.096-.314-.181-.522-.24-.666-.186z" fill="#000"/></svg>