<svg width="64" height="64" viewBox="0 0 64 64" fill="none" xmlns="http://www.w3.org/2000/svg"><path d="M33.21 3.632c-.047.027-.111.043-.138.027-.064-.043-1.13.224-1.221.304-.144.117-.219.384-.539 1.973-.485 2.4-.65 3.67-1.019 7.904a532.63 532.63 0 01-.32 3.493l-.453 4.827c-.16 1.76-.379 4.01-.49 4.997l-.193 1.803h-1.125c-1.67 0-4.741.09-8.107.24-1.648.075-4.309.155-5.925.187-4.72.085-5.627.16-7.141.565-.838.224-1.056.341-1.184.613-.118.267-.064.475.31 1.142.372.672.64.874 1.236.938.443.048 2.571.262 3.9.395 2.026.203 4.202.32 8.08.427 1.6.042 3.567.106 4.372.133.806.027 2.176.08 3.04.107.864.032 1.67.069 1.787.085l.219.027-.118 1.264c-.336 3.642-.474 6.09-.634 10.864a127.316 127.316 0 01-.352 6.464c-.123 1.477-.123 1.52-.032 2.528a50.61 50.61 0 00.512 3.744c.165.901.554 1.536 1.082 1.754.278.112.806-.277 1.264-.938.406-.587 1.232-2.326 1.547-3.259.805-2.384.981-4.245 1.045-11.067.038-4.01.107-5.888.352-9.546.059-.891.112-1.632.123-1.638.005-.01 1.179.027 2.597.075 4.795.17 15.072.096 16.475-.117 1.083-.16 2.87-.8 4.256-1.52.965-.502 1.355-.784 1.499-1.088.277-.592.058-.88-1.078-1.435-1.013-.496-1.904-.8-3.072-1.056-.736-.16-2.181-.187-4.805-.08-1.19.048-2.917.112-3.84.139-1.91.058-9.792.069-10.907.016l-.736-.032.038-.512c.437-6.619.666-11.846.778-17.979.032-1.568.08-3.285.112-3.813.075-1.2.038-2.24-.085-2.502-.075-.16-.128-.197-.299-.224a.673.673 0 01-.32-.16.397.397 0 00-.49-.069z" fill="#000"/></svg>