<svg width="509" height="298" viewBox="0 0 509 298" fill="none" xmlns="http://www.w3.org/2000/svg"><path d="M504.033 277.792l-250.219 8.738a4.33 4.33 0 01-4.482-4.175 4.332 4.332 0 014.18-4.478l250.219-8.738a4.329 4.329 0 11.302 8.653zm-287.035 10.024l-202.397 7.068a4.332 4.332 0 01-4.483-4.176 4.33 4.33 0 014.18-4.477l202.398-7.068a4.332 4.332 0 014.482 4.175 4.33 4.33 0 01-4.18 4.478z" fill="#006C8A"/><path d="M303.888 195.36l-9.027.316c-33.576 1.172-61.744-25.067-62.915-58.609l-2.254-64.53 130.618-4.561 2.253 64.53c1.17 33.541-25.101 61.682-58.675 62.854z" fill="url(#paint0_linear_6104_7046)"/><path d="M264.93 204.211c-8.337.291-15.33-6.223-15.621-14.551l-1.165-33.379c-.291-8.328 6.23-15.314 14.567-15.605 8.336-.291 15.329 6.223 15.62 14.551l1.166 33.379c.29 8.328-6.231 15.314-14.567 15.605z" fill="url(#paint1_linear_6104_7046)"/><path d="M282.094 230.514a5.347 5.347 0 005.16-5.528l-.494-14.156a5.346 5.346 0 00-5.534-5.154 5.346 5.346 0 00-5.16 5.528l.494 14.155a5.35 5.35 0 005.534 5.155z" fill="#FFB097"/><path d="M280.961 230.553l-16.599.58c-7.504.262-13.8-5.603-14.062-13.099l-1.096-31.391c-.291-8.328 6.23-15.314 14.567-15.605 8.337-.292 15.329 6.222 15.62 14.55l1.57 44.965z" fill="url(#paint2_linear_6104_7046)"/><path d="M302.815 276.155l-28.061.98-1.718-49.209c-.27-7.741 5.793-14.236 13.542-14.507 7.749-.271 14.25 5.786 14.521 13.527l1.718 49.209h-.002z" fill="url(#paint3_linear_6104_7046)"/><path d="M287.68 245.031c-7.749.271-14.251-5.786-14.521-13.527l-.666-19.065c-.27-7.741 5.793-14.236 13.542-14.507 7.749-.271 14.251 5.786 14.521 13.527l.666 19.065c.27 7.743-5.793 14.237-13.542 14.507z" fill="url(#paint4_linear_6104_7046)"/><path d="M302.076 276.181l-39.47 1.378a3.485 3.485 0 01-3.608-3.361c-.258-7.378 5.521-13.568 12.907-13.826l23.238-.812c6.295-.22 11.575 4.699 11.794 10.987l.015.412a5.053 5.053 0 01-4.876 5.222z" fill="#009594"/><path d="M328.749 275.25l-28.062.98-1.718-49.21c-.27-7.741 5.793-14.236 13.542-14.507 7.749-.27 14.251 5.786 14.521 13.527l1.718 49.21h-.001z" fill="url(#paint5_linear_6104_7046)"/><path d="M313.613 244.126c-7.749.27-14.25-5.786-14.521-13.527l-.666-19.066c-.27-7.741 5.793-14.236 13.542-14.507 7.749-.27 14.251 5.786 14.521 13.527l.666 19.066c.271 7.743-5.793 14.236-13.542 14.507z" fill="url(#paint6_linear_6104_7046)"/><path d="M328.009 275.276l-39.47 1.378a3.487 3.487 0 01-3.608-3.361c-.258-7.378 5.521-13.569 12.907-13.827l23.238-.811c6.295-.22 11.575 4.698 11.794 10.986l.015.413a5.054 5.054 0 01-4.876 5.222z" fill="#00B0BC"/><path d="M339.714 228.32l-79.297 2.769a3.724 3.724 0 01-3.855-3.59l-2.017-57.774c-.836-23.93 17.906-44.007 41.861-44.844 23.954-.836 44.051 17.885 44.887 41.815l2.018 57.773a3.727 3.727 0 01-3.597 3.851z" fill="url(#paint7_linear_6104_7046)"/><path d="M288.7 159.013l7.387-9.913 8.749 9.708c6.695-3.15 11.293-9.987 11.193-17.862-.135-10.749-8.969-19.355-19.732-19.217-10.762.137-19.375 8.961-19.238 19.713.1 7.875 4.868 14.592 11.641 17.571z" fill="#fff"/><path d="M297.24 151.071c-9.807.343-18.033-7.321-18.376-17.117l-.465-13.338c-.342-9.796 7.33-18.015 17.136-18.357 9.807-.343 18.034 7.321 18.376 17.117l.466 13.338c.342 9.796-7.331 18.015-17.137 18.357z" fill="#FF9E88"/><path d="M297.363 137.936c36.069-1.26 64.289-31.49 63.03-67.521-1.258-36.032-31.518-64.22-67.587-62.96-36.069 1.26-64.288 31.49-63.03 67.52 1.258 36.032 31.518 64.221 67.587 62.961z" fill="url(#paint8_linear_6104_7046)"/><path d="M254.554 91.407c.252 7.214-5.398 13.266-12.619 13.519-7.221.252-13.28-5.392-13.532-12.606-.252-7.213 5.398-13.266 12.62-13.518 7.221-.25 13.279 5.391 13.531 12.605z" fill="url(#paint9_linear_6104_7046)"/><path d="M359.103 87.756c.252 7.214-5.398 13.266-12.619 13.519-7.221.252-13.28-5.392-13.532-12.606-.252-7.213 5.398-13.266 12.62-13.518 7.221-.25 13.279 5.391 13.531 12.605z" fill="url(#paint10_linear_6104_7046)"/><path d="M296.242 143.26c-29.006 1.013-53.338-21.654-54.35-50.63l-.202-5.78c-1.012-28.976 21.68-53.285 50.686-54.298 29.005-1.012 53.338 21.654 54.349 50.63l.202 5.78c1.014 28.976-21.68 53.285-50.685 54.298z" fill="url(#paint11_linear_6104_7046)"/><path d="M346.048 74.838l-8.016.28c-23.477.82-43.171-17.527-43.99-40.979l-.11-3.152 8.016-.28c23.476-.82 43.171 17.526 43.99 40.978l.11 3.153z" fill="url(#paint12_linear_6104_7046)"/><path opacity=".29" d="M264.52 53.946c2.126-2.075 2.932-4.696 1.799-5.854-1.133-1.158-3.775-.415-5.901 1.66-2.126 2.076-2.932 4.697-1.799 5.855 1.132 1.158 3.774.415 5.901-1.66z" fill="#fff"/><path d="M336.229 201.721c8.337-.291 14.858-7.277 14.567-15.605l-1.165-33.379c-.291-8.328-7.284-14.842-15.62-14.551-8.337.292-14.858 7.277-14.567 15.605l1.165 33.379c.291 8.328 7.284 14.842 15.62 14.551z" fill="url(#paint13_linear_6104_7046)"/><path d="M320.94 229.157a5.346 5.346 0 01-5.534-5.154l-.494-14.156a5.347 5.347 0 015.161-5.528 5.347 5.347 0 015.533 5.155l.495 14.155a5.346 5.346 0 01-5.161 5.528z" fill="#FFB097"/><path d="M322.074 229.118l16.6-.58c7.504-.262 13.375-6.552 13.114-14.048l-1.097-31.391c-.29-8.328-7.283-14.842-15.62-14.551-8.336.291-14.858 7.277-14.567 15.605l1.57 44.965z" fill="url(#paint14_linear_6104_7046)"/><path d="M290.786 92.109l-.651.023a4.389 4.389 0 01-4.542-4.232l-.129-3.686a4.39 4.39 0 014.236-4.538l.651-.023a4.39 4.39 0 014.543 4.231l.128 3.685a4.39 4.39 0 01-4.236 4.54z" fill="url(#paint15_linear_6104_7046)"/><path d="M271.545 88.163a3.541 3.541 0 01-3.665-3.414l-.099-2.83a3.542 3.542 0 013.418-3.662 3.542 3.542 0 013.665 3.414l.099 2.83a3.543 3.543 0 01-3.418 3.662z" fill="url(#paint16_linear_6104_7046)"/><path d="M309.23 86.847a3.541 3.541 0 01-3.665-3.414l-.099-2.83a3.542 3.542 0 013.418-3.662 3.541 3.541 0 013.664 3.414l.099 2.83a3.542 3.542 0 01-3.417 3.662z" fill="url(#paint17_linear_6104_7046)"/><path d="M277.078 64.035a2.592 2.592 0 011.571.65 2.61 2.61 0 01.23 3.687c-2.277 2.576-5.844 3.983-9.541 3.76-2.204-.131-4.303-.824-6.077-2.003a2.611 2.611 0 01-.729-3.622 2.618 2.618 0 013.627-.729c1.004.668 2.212 1.061 3.493 1.138 2.104.125 4.086-.623 5.305-2.003a2.623 2.623 0 012.121-.878z" fill="url(#paint18_linear_6104_7046)"/><path d="M301.471 63.183a2.612 2.612 0 00-1.495 4.453c2.452 2.41 6.108 3.565 9.781 3.085 2.189-.285 4.235-1.123 5.922-2.422a2.61 2.61 0 00.475-3.665 2.618 2.618 0 00-3.669-.473c-.955.736-2.133 1.212-3.405 1.378-2.09.272-4.12-.336-5.432-1.628a2.622 2.622 0 00-2.177-.728z" fill="url(#paint19_linear_6104_7046)"/><path d="M259.511 108.721c7.033-.246 12.569-5.186 12.364-11.035-.204-5.85-6.071-10.392-13.104-10.146-7.033.245-12.569 5.186-12.365 11.035.205 5.849 6.072 10.391 13.105 10.146z" fill="url(#paint20_radial_6104_7046)"/><path opacity=".2" d="M263.224 94.852c.623-.022 1.114-.463 1.096-.986-.018-.523-.539-.929-1.162-.907-.624.022-1.114.463-1.096.986.018.523.538.929 1.162.907z" fill="#fff"/><path d="M321.862 106.543c7.033-.245 12.569-5.186 12.365-11.035-.204-5.849-6.071-10.391-13.104-10.146-7.033.246-12.569 5.187-12.365 11.036.204 5.849 6.071 10.391 13.104 10.145z" fill="url(#paint21_radial_6104_7046)"/><path opacity=".2" d="M325.575 92.674c.624-.021 1.115-.463 1.096-.985-.018-.523-.538-.93-1.162-.907-.623.021-1.114.463-1.096.986.019.522.539.928 1.162.906z" fill="#fff"/><path d="M300.869 103.86a2.326 2.326 0 01-1.381-.396c-3.426-2.298-10.918-3.49-16.074.256a2.337 2.337 0 01-3.263-.515 2.332 2.332 0 01.516-3.26c4.07-2.957 8.6-3.415 11.682-3.278 3.613.16 7.255 1.253 9.742 2.923a2.331 2.331 0 01.636 3.237 2.327 2.327 0 01-1.858 1.033z" fill="#EC2455"/><path d="M342.863 258.905c24.192-.845 43.12-21.121 42.276-45.288-.844-24.167-21.14-43.074-45.332-42.229-24.193.845-43.12 21.121-42.276 45.288.843 24.167 21.139 43.074 45.332 42.229z" fill="#FF9D00"/><path d="M345.04 274.835a3.483 3.483 0 01-3.604-3.358l-.734-21.02a3.482 3.482 0 013.361-3.601 3.484 3.484 0 013.605 3.358l.734 21.02a3.483 3.483 0 01-3.362 3.601zm-15.448.54a3.484 3.484 0 01-3.605-3.358l-.734-21.02a3.483 3.483 0 013.362-3.601 3.481 3.481 0 013.604 3.357l.734 21.021a3.482 3.482 0 01-3.361 3.601zm-36.412-20.059a3.045 3.045 0 01-3.135-2.72c-.023-.223-.563-5.57 1.115-12.275 2.247-8.97 7.417-16.188 14.95-20.872a3.05 3.05 0 014.2.976 3.044 3.044 0 01-.977 4.196c-6.191 3.85-10.297 9.561-12.203 16.975-1.463 5.696-1.023 10.316-1.018 10.362a3.05 3.05 0 01-2.72 3.34 1.935 1.935 0 01-.212.018zm91.214-30.475c-2.868.1-4.834-.291-4.955-.316a3.044 3.044 0 01-2.376-3.594 3.05 3.05 0 013.588-2.377c.561.109 13.106 2.378 19.19-10.108a3.05 3.05 0 014.076-1.405 3.044 3.044 0 011.406 4.072c-4.275 8.771-11.087 11.965-16.047 13.098a26.104 26.104 0 01-4.882.63z" fill="#FFD300"/><path d="M333.508 259.206c24.192-.845 43.12-21.121 42.276-45.288-.844-24.167-21.14-43.074-45.332-42.229-24.193.845-43.12 21.121-42.276 45.288.843 24.167 21.139 43.074 45.332 42.229z" fill="#FFE000"/><path d="M294.264 237.766a44.015 44.015 0 0017.854 16.721l57.58-61.358a44 44 0 00-17.856-16.721l-57.578 61.358z" fill="#FFEB64"/><path d="M333.126 248.259c18.14-.633 32.333-15.837 31.7-33.959-.633-18.121-15.851-32.298-33.992-31.665-18.14.634-32.333 15.838-31.7 33.959.632 18.122 15.851 32.299 33.992 31.665z" fill="#FFCE00"/><path d="M343.862 215.509c1.062-.034 1.925.878 1.816 1.934-.742 7.196-6.711 12.917-14.149 13.156-7.438.241-13.764-5.083-14.967-12.216-.177-1.046.626-2.013 1.687-2.047l25.613-.827z" fill="#E70000"/><path d="M331.529 230.601c5.641-.182 10.43-3.519 12.741-8.256a19.914 19.914 0 00-6.959-1.004c-6.085.197-11.301 3.009-14.042 7.026a14.648 14.648 0 008.26 2.234z" fill="#FF0040"/><path d="M319.74 212.177a2.778 2.778 0 01-2.867-2.686l-.05-1.51a2.778 2.778 0 012.689-2.864 2.777 2.777 0 012.868 2.686l.049 1.509a2.781 2.781 0 01-2.689 2.865z" fill="url(#paint22_linear_6104_7046)"/><path d="M341.665 211.47a2.779 2.779 0 01-2.868-2.686l-.049-1.51a2.78 2.78 0 015.557-.179l.049 1.51a2.781 2.781 0 01-2.689 2.865z" fill="url(#paint23_linear_6104_7046)"/><path opacity=".8" d="M302.402 218.65c-.584-18.123 13.648-33.29 31.79-33.875a32.734 32.734 0 0117.386 4.316 32.748 32.748 0 00-20.659-6.459c-18.141.586-32.374 15.753-31.789 33.875.382 11.81 6.963 21.961 16.522 27.438-7.761-5.766-12.914-14.885-13.25-25.295z" fill="#FFAF00"/><path d="M189.63 197.686a5.333 5.333 0 015.965 3.303c1.5 3.846 4.489 9.374 9.931 12.251 5.784 3.061 13.426 2.604 22.708-1.355a5.339 5.339 0 017.049 2.919c1.091 2.714-.285 5.795-2.979 6.939-6.09 2.585-11.781 3.969-17.031 4.153-5.427.189-10.385-.904-14.839-3.283-8.281-4.423-12.636-12.259-14.779-17.738-1.217-3.114.688-6.567 3.975-7.189z" fill="#FFD300"/><path d="M112.59 254.866c42.339-1.479 75.465-36.965 73.988-79.26-1.477-42.295-36.997-75.384-79.337-73.905-42.34 1.478-75.465 36.964-73.988 79.259 1.477 42.296 36.997 75.384 79.337 73.906z" fill="#FF9D00"/><path d="M110.733 282.947a6.095 6.095 0 01-6.308-5.876l-1.285-36.788a6.095 6.095 0 015.883-6.302 6.095 6.095 0 016.308 5.876l1.285 36.788a6.097 6.097 0 01-5.883 6.302zm27.037-.944a6.098 6.098 0 01-6.309-5.877l-1.284-36.787a6.097 6.097 0 015.883-6.303 6.097 6.097 0 016.308 5.877l1.285 36.788a6.097 6.097 0 01-5.883 6.302z" fill="#FFD300"/><path d="M128.96 254.251c42.339-1.478 75.465-36.964 73.988-79.259-1.477-42.296-36.997-75.384-79.337-73.906-42.34 1.479-75.465 36.964-73.988 79.26 1.477 42.295 36.997 75.384 79.337 73.905z" fill="#FFE000"/><path d="M194.859 212.03a77.017 77.017 0 01-29.131 31.371L57.711 143.308a77.01 77.01 0 0129.13-31.371L194.86 212.03z" fill="#FFEB64"/><path d="M128.291 235.093c31.748-1.108 56.586-27.717 55.479-59.432-1.108-31.714-27.742-56.525-59.49-55.417-31.748 1.109-56.586 27.717-55.479 59.432 1.108 31.715 27.742 56.526 59.49 55.417z" fill="#FFCE00"/><path d="M105.548 179.227c-1.857.07-3.252 1.769-2.934 3.598 2.173 12.473 13.293 21.73 26.309 21.241 13.016-.489 23.409-10.555 24.64-23.155.18-1.849-1.338-3.439-3.195-3.369l-44.82 1.685z" fill="#E70000"/><path d="M128.923 204.068c-9.869.37-18.638-4.869-23.253-12.859a34.892 34.892 0 0112.028-2.604c10.647-.4 20.096 3.875 25.373 10.55a25.578 25.578 0 01-14.148 4.913z" fill="#FF0040"/><path d="M147.258 170.464a4.861 4.861 0 004.678-5.038l-.099-2.641a4.862 4.862 0 00-5.043-4.673 4.863 4.863 0 00-4.679 5.039l.099 2.64a4.862 4.862 0 005.044 4.673z" fill="url(#paint24_linear_6104_7046)"/><path d="M108.893 171.905a4.861 4.861 0 004.678-5.038l-.099-2.641a4.862 4.862 0 00-5.043-4.673 4.862 4.862 0 00-4.678 5.038l.099 2.641a4.862 4.862 0 005.043 4.673z" fill="url(#paint25_linear_6104_7046)"/><path d="M38.485 253.18a5.333 5.333 0 01-5.514-5.736c2.492-32.461 5.447-50.373 5.572-51.12a5.338 5.338 0 0110.53 1.752c-.04.226-3.009 18.295-5.458 50.182a5.34 5.34 0 01-5.13 4.922z" fill="#FFD300"/><path opacity=".8" d="M178.314 179.649c-1.192-31.712-27.892-56.454-59.637-55.261-11.057.415-21.266 3.925-29.827 9.659a57.317 57.317 0 0135.278-13.798c31.745-1.192 58.445 23.55 59.636 55.262.777 20.667-9.475 39.19-25.496 49.92 12.848-11.018 20.73-27.567 20.046-45.782z" fill="#FFAF00"/><path d="M408.703 247.63l-28.371.991-.101-2.889a5.767 5.767 0 00-5.966-5.558 5.766 5.766 0 00-5.564 5.961l.68 19.483c.158 4.513 3.935 8.045 8.445 7.916v.004l.053-.002 3.319-.116 28.371-.991c6.382-.223 11.375-5.572 11.153-11.947l-.06-1.71c-.223-6.377-5.577-11.365-11.959-11.142z" fill="url(#paint26_linear_6104_7046)"/><path d="M429.881 271.718l-6.007.21c-16.627.581-30.575-12.413-31.155-29.023l-.209-6c-.58-16.61 12.428-30.544 29.055-31.125l6.006-.21c16.627-.58 30.575 12.413 31.155 29.023l.21 6c.58 16.608-12.428 30.545-29.055 31.125z" fill="url(#paint27_linear_6104_7046)"/><path d="M392.604 239.534l.147 4.234c.58 16.61 14.529 29.603 31.156 29.022l6.006-.209c16.627-.581 29.635-14.516 29.055-31.125l-.148-4.234-66.216 2.312z" fill="#EFEFF0"/><path d="M441.702 273.692a4.226 4.226 0 01-4.374-4.074l-.487-13.928a4.228 4.228 0 014.079-4.37 4.227 4.227 0 014.374 4.075l.487 13.928a4.227 4.227 0 01-4.079 4.369z" fill="#FFB6A1"/><path d="M442.598 273.661l13.123-.458c5.933-.207 10.574-5.179 10.367-11.106l-1.165-33.379c-.23-6.584-5.758-11.734-12.349-11.503-6.591.23-11.747 5.753-11.517 12.337l1.541 44.109z" fill="url(#paint28_linear_6104_7046)"/><path d="M419.169 247.265l-28.371.99-.101-2.889a5.767 5.767 0 00-5.966-5.557 5.766 5.766 0 00-5.564 5.96l.68 19.483c.158 4.513 3.935 8.045 8.445 7.917v.003l.053-.002 3.319-.116 28.371-.99c6.382-.223 11.376-5.572 11.153-11.948l-.06-1.709c-.222-6.377-5.577-11.365-11.959-11.142z" fill="url(#paint29_linear_6104_7046)"/><path d="M393.12 180.522c.188 5.384-4.028 9.901-9.418 10.089-5.39.188-9.911-4.023-10.099-9.408-.188-5.384 4.028-9.901 9.418-10.089 5.39-.188 9.911 4.024 10.099 9.408z" fill="url(#paint30_linear_6104_7046)"/><path d="M471.15 177.797c.188 5.384-4.028 9.901-9.418 10.089-5.39.189-9.911-4.023-10.099-9.407-.188-5.385 4.028-9.901 9.418-10.09 5.388-.188 9.911 4.024 10.099 9.408z" fill="url(#paint31_linear_6104_7046)"/><path d="M424.397 222.697c-23.542.822-43.291-17.576-44.112-41.093l-.21-5.995c-.821-23.517 17.597-43.248 41.139-44.07 23.541-.822 43.291 17.576 44.112 41.093l.21 5.995c.821 23.516-17.597 43.248-41.139 44.07z" fill="url(#paint32_linear_6104_7046)"/><path opacity=".29" d="M451.557 150.067c1.078-1.269.064-3.899-2.267-5.876-2.33-1.976-5.093-2.55-6.172-1.281-1.078 1.269-.063 3.9 2.267 5.876 2.33 1.977 5.093 2.55 6.172 1.281z" fill="#fff"/><path d="M442.172 138.282l-12.231.427c-10.048.351-18.477-7.501-18.827-17.539l12.231-.427c10.046-.352 18.477 7.501 18.827 17.539z" fill="url(#paint33_linear_6104_7046)"/><path d="M419.062 171.298l-.162.006a2.587 2.587 0 01-2.678-2.494l-.021-.607a2.587 2.587 0 012.497-2.675l.163-.006a2.588 2.588 0 012.677 2.494l.021.608a2.586 2.586 0 01-2.497 2.674z" fill="url(#paint34_linear_6104_7046)"/><path d="M394.415 189.838c5.709-.2 10.202-4.209 10.036-8.956-.166-4.747-4.928-8.433-10.636-8.234-5.708.199-10.202 4.209-10.036 8.956.166 4.747 4.928 8.433 10.636 8.234z" fill="url(#paint35_radial_6104_7046)"/><path opacity=".2" d="M397.43 178.582c.506-.017.903-.376.888-.8-.014-.424-.436-.754-.941-.736-.505.017-.903.376-.888.8.015.424.436.754.941.736z" fill="#fff"/><path d="M445.023 188.071c5.708-.2 10.201-4.209 10.036-8.956-.166-4.747-4.928-8.434-10.637-8.234-5.708.199-10.201 4.209-10.035 8.956.165 4.746 4.927 8.433 10.636 8.234z" fill="url(#paint36_radial_6104_7046)"/><path opacity=".2" d="M448.036 176.815c.506-.017.903-.376.888-.8-.014-.425-.436-.754-.941-.737-.506.018-.903.376-.888.801.015.424.436.754.941.736z" fill="#fff"/><path d="M193.279 279.936l-28.847 1.007a2.947 2.947 0 01-3.05-2.84l-.202-5.795a2.947 2.947 0 012.844-3.047l28.847-1.007a2.946 2.946 0 013.05 2.84l.202 5.795a2.947 2.947 0 01-2.844 3.047z" fill="#FFD300"/><path d="M192.871 268.254l-10.005.349h-.002a2.946 2.946 0 013.046 2.841l.203 5.795a2.947 2.947 0 01-2.841 3.046h.002l10.005-.349a2.947 2.947 0 002.844-3.047l-.202-5.795a2.946 2.946 0 00-3.05-2.84z" fill="#FF9B00"/><path d="M164.432 280.943l4.432-.154.002-.001a2.945 2.945 0 01-3.046-2.84l-.203-5.795a2.948 2.948 0 012.841-3.047h-.002l-4.432.155a2.947 2.947 0 00-2.844 3.047l.202 5.795a2.947 2.947 0 003.05 2.84z" fill="#FFEF66"/><path d="M198.926 268.042l-28.848 1.008a2.948 2.948 0 01-3.049-2.841l-.203-5.795a2.948 2.948 0 012.844-3.047l28.848-1.007a2.947 2.947 0 013.05 2.841l.202 5.795a2.947 2.947 0 01-2.844 3.046z" fill="#FFD300"/><path d="M198.518 256.36l-10.006.349h-.001a2.946 2.946 0 013.046 2.841l.202 5.795a2.947 2.947 0 01-2.84 3.047h.001l10.006-.35a2.948 2.948 0 002.844-3.047l-.203-5.794a2.946 2.946 0 00-3.049-2.841z" fill="#FF9B00"/><path d="M170.078 269.05l4.433-.155h.001a2.946 2.946 0 01-3.046-2.841l-.202-5.795a2.947 2.947 0 012.84-3.047h-.001l-4.433.155a2.948 2.948 0 00-2.844 3.047l.203 5.795a2.948 2.948 0 003.049 2.841z" fill="#FFEF66"/><path d="M491.222 269.996l-28.85 1.007a2.947 2.947 0 01-3.049-2.84l-.203-5.795a2.948 2.948 0 012.844-3.047l28.848-1.007a2.945 2.945 0 013.049 2.84l.203 5.795a2.947 2.947 0 01-2.842 3.047z" fill="#FFD300"/><path d="M490.812 258.314l-10.006.349h-.001a2.946 2.946 0 013.046 2.841l.202 5.795a2.947 2.947 0 01-2.84 3.046h.001l10.006-.349a2.948 2.948 0 002.844-3.047l-.203-5.795a2.945 2.945 0 00-3.049-2.84z" fill="#FF9B00"/><path d="M462.372 271.003l4.431-.154h.001a2.947 2.947 0 01-3.046-2.841l-.202-5.795a2.948 2.948 0 012.841-3.047h-.002l-4.431.155a2.948 2.948 0 00-2.844 3.047l.203 5.795a2.947 2.947 0 003.049 2.84z" fill="#FFEF66"/><path d="M494.502 258.185l-28.847 1.007a2.947 2.947 0 01-3.05-2.841l-.202-5.795a2.946 2.946 0 012.844-3.046l28.847-1.008a2.947 2.947 0 013.05 2.841l.202 5.795a2.947 2.947 0 01-2.844 3.047z" fill="#FFD300"/><path d="M494.094 246.502l-10.005.35h-.002a2.946 2.946 0 013.046 2.841l.202 5.795a2.946 2.946 0 01-2.84 3.046h.002l10.005-.349a2.948 2.948 0 002.844-3.047l-.202-5.795a2.947 2.947 0 00-3.05-2.841z" fill="#FF9B00"/><path d="M465.655 259.192l4.43-.155h.002a2.946 2.946 0 01-3.046-2.841l-.203-5.795a2.947 2.947 0 012.841-3.046h-.002l-4.43.155a2.946 2.946 0 00-2.844 3.046l.202 5.795a2.947 2.947 0 003.05 2.841z" fill="#FFEF66"/><path d="M490.406 246.631l-28.85 1.008a2.948 2.948 0 01-3.049-2.841l-.203-5.795a2.948 2.948 0 012.844-3.047l28.848-1.007a2.947 2.947 0 013.05 2.841l.202 5.795a2.946 2.946 0 01-2.842 3.046z" fill="#FFD300"/><path d="M489.996 234.949l-10.006.349h-.001a2.946 2.946 0 013.046 2.841l.202 5.795a2.947 2.947 0 01-2.84 3.047h.001l10.006-.35a2.947 2.947 0 002.844-3.046l-.203-5.795a2.946 2.946 0 00-3.049-2.841z" fill="#FF9B00"/><path d="M461.556 247.639l4.433-.155h.001a2.946 2.946 0 01-3.046-2.841l-.202-5.795a2.948 2.948 0 012.84-3.047h-.001l-4.433.155a2.948 2.948 0 00-2.844 3.047l.203 5.795a2.948 2.948 0 003.049 2.841z" fill="#FFEF66"/><path d="M398.114 199.472c-1.807.039-3.258-1.531-3.053-3.324 1.395-12.226 11.656-21.846 24.314-22.117 12.659-.271 23.321 8.903 25.236 21.061.28 1.782-1.102 3.412-2.909 3.451l-43.588.929z" fill="#D90101"/><path d="M403.15 199.365l34.161-.728c-3.132-6.67-10.072-11.126-17.888-10.719-7.412.385-13.59 5.036-16.273 11.447z" fill="#FF0034"/><path d="M401.558 173.891a1.514 1.514 0 01-.857-2.796l3.589-2.242-3.692-1.829a1.513 1.513 0 111.346-2.71l6.12 3.033a1.512 1.512 0 01.13 2.64l-5.885 3.677a1.552 1.552 0 01-.751.227z" fill="url(#paint37_linear_6104_7046)"/><path d="M437.497 172.636a1.516 1.516 0 01-.724-.157l-6.12-3.033a1.512 1.512 0 01-.13-2.64l5.886-3.677a1.514 1.514 0 011.606 2.566l-3.59 2.241 3.692 1.83a1.511 1.511 0 01.683 2.027 1.508 1.508 0 01-1.303.843z" fill="url(#paint38_linear_6104_7046)"/><path d="M450.481 182.522c-.747.677-1.768.988-2.833.865-2.043-.243-3.735-1.935-4.04-3.938-.087-.576-.172-1.152-.292-1.725l-.68-3.275a.455.455 0 01.53-.481l3.249.986c.526.16 1.057.298 1.588.421 2.008.467 3.572 2.329 3.619 4.406.029 1.074-.384 2.065-1.141 2.741zm-60.671 1.424c-.698-.727-1.039-1.739-.945-2.804.185-2.048 1.831-3.784 3.829-4.144.575-.104 1.149-.204 1.719-.339l3.26-.77a.45.45 0 01.372.138.489.489 0 01.126.377l-.898 3.272c-.146.53-.268 1.063-.378 1.598-.411 2.018-2.232 3.632-4.309 3.736-1.076.059-2.08-.325-2.776-1.064zm84.501 34.614c-.859.631-1.968.848-3.075.602-2.124-.477-3.72-2.442-3.822-4.584-.028-.615-.055-1.231-.118-1.848l-.358-3.521a.482.482 0 01.197-.37.512.512 0 01.414-.079l3.311 1.39c.536.225 1.078.429 1.625.617 2.063.709 3.506 2.839 3.327 5.03-.087 1.135-.63 2.134-1.501 2.763zm4.57-20.577c-.481.557-1.194.873-1.976.876-1.503.005-2.878-1.073-3.274-2.498-.114-.411-.226-.82-.364-1.227l-.781-2.315a.33.33 0 01.076-.278.358.358 0 01.267-.118l2.441.429c.395.07.791.123 1.187.166 1.497.162 2.795 1.375 3.01 2.875.116.779-.096 1.533-.586 2.09z" fill="#fff"/><path d="M226.318 230.558a6.127 6.127 0 005.913-6.334l-.522-14.958a6.129 6.129 0 00-6.341-5.907 6.128 6.128 0 00-5.913 6.335l.523 14.958a6.127 6.127 0 006.34 5.906z" fill="#BC3600"/><path d="M219.675 246.971a6.128 6.128 0 005.913-6.334l-.418-11.946a6.126 6.126 0 00-6.34-5.906 6.128 6.128 0 00-5.913 6.334l.417 11.946a6.13 6.13 0 006.341 5.906z" fill="#BC3600"/><path d="M210.271 233.365l3.59-.126c8.542-.298 15.227-7.457 14.929-15.993l-.125-3.585c-.298-8.533-7.465-15.211-16.009-14.913l-3.589.126c-8.542.298-15.227 7.458-14.929 15.993l.125 3.585c.298 8.534 7.466 15.211 16.008 14.913z" fill="#A72800"/><path d="M205.754 247.457a6.127 6.127 0 005.913-6.334l-.417-11.946a6.127 6.127 0 00-6.34-5.906 6.127 6.127 0 00-5.913 6.334l.417 11.946a6.127 6.127 0 006.34 5.906z" fill="#CC410B"/><path d="M198.301 231.881a6.127 6.127 0 005.913-6.334l-.522-14.959a6.127 6.127 0 00-6.34-5.906 6.127 6.127 0 00-5.913 6.334l.522 14.958a6.127 6.127 0 006.34 5.907z" fill="#CF4C0C"/><path d="M220.348 214.268a1.027 1.027 0 00-1.45.051l-4.175 4.473a1.024 1.024 0 001.5 1.397l4.175-4.473a1.022 1.022 0 00-.05-1.448z" fill="red"/><path d="M220.549 220.038a1.023 1.023 0 00-.05-1.448l-4.477-4.171a1.027 1.027 0 00-1.45.051 1.022 1.022 0 00.051 1.448l4.477 4.17a1.025 1.025 0 001.449-.05z" fill="red"/><path d="M226.499 186.09c4.255-.148 7.583-3.714 7.434-7.963-.148-4.25-3.717-7.575-7.971-7.426a7.703 7.703 0 00-7.434 7.964c.148 4.249 3.717 7.574 7.971 7.425z" fill="#A72800"/><path d="M225.739 182.926a3.68 3.68 0 003.552-3.805 3.68 3.68 0 00-3.809-3.547 3.68 3.68 0 00-3.551 3.805 3.68 3.68 0 003.808 3.547z" fill="#FF7474"/><path d="M213.412 171.67l-5.134.18c-8.971.313-15.988 7.83-15.675 16.791l.179 5.13c.313 8.961 7.837 15.97 16.808 15.657l5.134-.179c8.971-.314 15.988-7.831 15.675-16.792l-.179-5.129c-.313-8.961-7.837-15.971-16.808-15.658z" fill="#CF4C0C"/><path d="M223.221 188.818a2.044 2.044 0 10-.143-4.084 2.045 2.045 0 00-1.973 2.114 2.045 2.045 0 002.116 1.97zm-16.3.569a2.042 2.042 0 10-.143-4.083 2.042 2.042 0 10.143 4.083z" fill="#470B00"/><path d="M215.698 204.895c5.224-.183 9.331-4.013 9.173-8.556-.159-4.542-4.523-8.077-9.748-7.895-5.225.183-9.332 4.013-9.173 8.556.158 4.543 4.523 8.077 9.748 7.895z" fill="#E27F53"/><path d="M195.714 187.165c4.254-.148 7.583-3.714 7.434-7.963-.148-4.25-3.717-7.575-7.971-7.426-4.254.148-7.583 3.714-7.434 7.964.148 4.249 3.717 7.574 7.971 7.425z" fill="#A72800"/><path d="M196.252 183.956a3.68 3.68 0 003.552-3.805 3.682 3.682 0 00-3.809-3.548 3.68 3.68 0 00-3.551 3.805 3.68 3.68 0 003.808 3.548z" fill="#FF7474"/><path d="M218.617 199.109a3.488 3.488 0 01-3.606-3.359l-.067-1.926a.933.933 0 011.867-.065l.067 1.926a1.622 1.622 0 003.081.642.934.934 0 011.682.809 3.483 3.483 0 01-3.024 1.973z" fill="#470B00"/><path d="M213.515 199.287a3.479 3.479 0 01-3.152-1.757.932.932 0 111.621-.924 1.622 1.622 0 003.029-.856l-.067-1.926a.933.933 0 011.867-.065l.067 1.925a3.492 3.492 0 01-3.365 3.603z" fill="#470B00"/><path d="M212.983 191.698c.044 1.268 1.36 2.687 2.921 2.633 1.56-.055 2.774-1.561 2.729-2.831-.044-1.269-1.329-1.819-2.89-1.765-1.561.053-2.804.693-2.76 1.963z" fill="#770600"/><path d="M85.29 271.968a6.023 6.023 0 005.812-6.227 6.022 6.022 0 00-6.232-5.805 2.932 2.932 0 01-2.841-1.887C79.5 251.4 74.244 246.893 68.327 247.1c-8.063.282-14.297 9.201-13.922 19.923.374 10.721 7.213 19.185 15.278 18.903 5.917-.206 10.847-5.067 12.904-11.878a2.929 2.929 0 012.703-2.08z" fill="#fff"/><path d="M19.975 280.792l-.873-24.99c-.16-4.601 3.443-8.459 8.046-8.619l38.348-1.339 1.454 41.646-38.348 1.339c-4.603.161-8.466-3.436-8.627-8.037z" fill="#2699F4"/><path d="M64.198 285.742l-1.328-38.026a4.611 4.611 0 014.45-4.767 4.611 4.611 0 014.77 4.445l1.328 38.026a4.611 4.611 0 01-4.45 4.767 4.61 4.61 0 01-4.77-4.445z" fill="#005FD1"/><path d="M54.942 258.625l-.433-12.398 2.177-.076.433 12.398a.982.982 0 01-.947 1.015l-.213.007a.982.982 0 01-1.017-.946zm-6.822-3.497l-.303-8.667 2.177-.076.303 8.667a.982.982 0 01-.947 1.015l-.213.007a.981.981 0 01-1.017-.946zm-6.564 3.964l-.433-12.397 2.178-.076.432 12.397a.981.981 0 01-.947 1.015l-.212.008a.982.982 0 01-1.018-.947zm-6.822-3.497l-.303-8.667 2.178-.076.302 8.667a.981.981 0 01-.947 1.015l-.213.007a.981.981 0 01-1.017-.946zm-6.562 3.965l-.433-12.398 2.178-.076.433 12.398a.982.982 0 01-.948 1.015l-.212.007a.982.982 0 01-1.018-.946z" fill="#0063D4"/><path d="M85.233 294.15l-1.804.063a2.028 2.028 0 11-.141-4.053l1.803-.063a2.028 2.028 0 11.142 4.053zm28.412-.696l-1.804.063a2.028 2.028 0 11-.141-4.053l1.804-.063a2.028 2.028 0 11.141 4.053zm-14.536-5.485l-4.744.166a3.387 3.387 0 01-3.506-3.265 3.387 3.387 0 013.27-3.502l4.743-.166a3.386 3.386 0 11.237 6.767z" fill="#fff"/><defs><linearGradient id="paint0_linear_6104_7046" x1="294.999" y1="70.257" x2="299.347" y2="194.755" gradientUnits="userSpaceOnUse"><stop stop-color="#FF9710"/><stop offset=".279" stop-color="#FF9110"/><stop offset=".647" stop-color="#FF8111"/><stop offset="1" stop-color="#FF6A12"/></linearGradient><linearGradient id="paint1_linear_6104_7046" x1="262.633" y1="138.443" x2="265.831" y2="230.047" gradientUnits="userSpaceOnUse"><stop stop-color="#FFDDCD"/><stop offset=".711" stop-color="#FFCBC6"/><stop offset="1" stop-color="#FFB2A1"/></linearGradient><linearGradient id="paint2_linear_6104_7046" x1="262.632" y1="138.443" x2="265.831" y2="230.047" gradientUnits="userSpaceOnUse"><stop stop-color="#FFDDCD"/><stop offset=".711" stop-color="#FFCBC6"/><stop offset="1" stop-color="#FFB2A1"/></linearGradient><linearGradient id="paint3_linear_6104_7046" x1="286.053" y1="198.43" x2="288.617" y2="271.876" gradientUnits="userSpaceOnUse"><stop stop-color="#FF9CA4"/><stop offset=".288" stop-color="#FFA0A6"/><stop offset=".593" stop-color="#FFADAC"/><stop offset=".905" stop-color="#FFC2B6"/><stop offset="1" stop-color="#FFCABA"/></linearGradient><linearGradient id="paint4_linear_6104_7046" x1="286.053" y1="198.43" x2="288.617" y2="271.876" gradientUnits="userSpaceOnUse"><stop stop-color="#FF9CA4"/><stop offset=".288" stop-color="#FFA0A6"/><stop offset=".593" stop-color="#FFADAC"/><stop offset=".905" stop-color="#FFC2B6"/><stop offset="1" stop-color="#FFCABA"/></linearGradient><linearGradient id="paint5_linear_6104_7046" x1="311.966" y1="196.935" x2="314.665" y2="274.219" gradientUnits="userSpaceOnUse"><stop offset="0" stop-color="#FFB795"/><stop offset=".289" stop-color="#FFCBC6"/><stop offset="1" stop-color="#FFD6C6"/></linearGradient><linearGradient id="paint6_linear_6104_7046" x1="311.966" y1="196.935" x2="314.665" y2="274.219" gradientUnits="userSpaceOnUse"><stop offset="0" stop-color="#FFB795"/><stop offset=".289" stop-color="#FFCBC6"/><stop offset="1" stop-color="#FFD6C6"/></linearGradient><linearGradient id="paint7_linear_6104_7046" x1="296.954" y1="140.597" x2="300" y2="227.831" gradientUnits="userSpaceOnUse"><stop offset=".001" stop-color="#FF3C82"/><stop offset=".379" stop-color="#FF3A7F"/><stop offset=".657" stop-color="#FF3576"/><stop offset=".902" stop-color="#FF2B66"/><stop offset="1" stop-color="#FF265D"/></linearGradient><linearGradient id="paint8_linear_6104_7046" x1="291.427" y1="7.517" x2="298.556" y2="134.671" gradientUnits="userSpaceOnUse"><stop stop-color="#FFC310"/><stop offset="1" stop-color="#FF9710"/></linearGradient><linearGradient id="paint9_linear_6104_7046" x1="261.242" y1="91.175" x2="229.627" y2="92.279" gradientUnits="userSpaceOnUse"><stop stop-color="#FF9CA4"/><stop offset=".288" stop-color="#FFA0A6"/><stop offset=".593" stop-color="#FFADAC"/><stop offset=".905" stop-color="#FFC2B6"/><stop offset="1" stop-color="#FFCABA"/></linearGradient><linearGradient id="paint10_linear_6104_7046" x1="332.951" y1="88.67" x2="359.103" y2="87.757" gradientUnits="userSpaceOnUse"><stop stop-color="#FF9CA4"/><stop offset=".288" stop-color="#FFA0A6"/><stop offset=".593" stop-color="#FFADAC"/><stop offset=".905" stop-color="#FFC2B6"/><stop offset="1" stop-color="#FFCABA"/></linearGradient><linearGradient id="paint11_linear_6104_7046" x1="292.451" y1="34.705" x2="296.263" y2="143.862" gradientUnits="userSpaceOnUse"><stop stop-color="#FFDDCD"/><stop offset=".711" stop-color="#FFCBC6"/><stop offset="1" stop-color="#FFB2A1"/></linearGradient><linearGradient id="paint12_linear_6104_7046" x1="317.301" y1="4.999" x2="324.43" y2="132.153" gradientUnits="userSpaceOnUse"><stop offset=".004" stop-color="#FFC310"/><stop offset="1" stop-color="#FF9710"/></linearGradient><linearGradient id="paint13_linear_6104_7046" x1="333.932" y1="135.953" x2="337.131" y2="227.557" gradientUnits="userSpaceOnUse"><stop stop-color="#FFDDCD"/><stop offset=".711" stop-color="#FFCBC6"/><stop offset="1" stop-color="#FFB2A1"/></linearGradient><linearGradient id="paint14_linear_6104_7046" x1="333.933" y1="135.953" x2="337.131" y2="227.557" gradientUnits="userSpaceOnUse"><stop stop-color="#FFDDCD"/><stop offset=".711" stop-color="#FFCBC6"/><stop offset="1" stop-color="#FFB2A1"/></linearGradient><linearGradient id="paint15_linear_6104_7046" x1="290.541" y1="94.447" x2="290.033" y2="79.909" gradientUnits="userSpaceOnUse"><stop stop-color="#FF9CA4"/><stop offset=".288" stop-color="#FFA0A6"/><stop offset=".593" stop-color="#FFADAC"/><stop offset=".905" stop-color="#FFC2B6"/><stop offset="1" stop-color="#FFCABA"/></linearGradient><linearGradient id="paint16_linear_6104_7046" x1="271.237" y1="79.355" x2="271.593" y2="89.553" gradientUnits="userSpaceOnUse"><stop stop-color="#3D3C3E"/><stop offset=".079" stop-color="#313032"/><stop offset=".26" stop-color="#1B1B1C"/><stop offset=".458" stop-color="#0C0C0C"/><stop offset=".684" stop-color="#030303"/><stop offset="1"/></linearGradient><linearGradient id="paint17_linear_6104_7046" x1="308.922" y1="78.039" x2="309.278" y2="88.237" gradientUnits="userSpaceOnUse"><stop stop-color="#3D3C3E"/><stop offset=".079" stop-color="#313032"/><stop offset=".26" stop-color="#1B1B1C"/><stop offset=".458" stop-color="#0C0C0C"/><stop offset=".684" stop-color="#030303"/><stop offset="1"/></linearGradient><linearGradient id="paint18_linear_6104_7046" x1="270.507" y1="72.463" x2="270.944" y2="65.185" gradientUnits="userSpaceOnUse"><stop offset=".002" stop-color="#FF9710"/><stop offset="1" stop-color="#FF9710"/></linearGradient><linearGradient id="paint19_linear_6104_7046" x1="308.614" y1="71.133" x2="307.67" y2="63.903" gradientUnits="userSpaceOnUse"><stop offset=".002" stop-color="#FF9710"/><stop offset="1" stop-color="#FF9710"/></linearGradient><linearGradient id="paint22_linear_6104_7046" x1="319.537" y1="205.901" x2="319.771" y2="213.168" gradientUnits="userSpaceOnUse"><stop stop-color="#3B393C"/><stop offset=".067" stop-color="#312F32"/><stop offset=".25" stop-color="#1B1A1C"/><stop offset=".451" stop-color="#0C0C0C"/><stop offset=".68" stop-color="#030303"/><stop offset="1"/></linearGradient><linearGradient id="paint23_linear_6104_7046" x1="341.462" y1="205.193" x2="341.696" y2="212.46" gradientUnits="userSpaceOnUse"><stop stop-color="#3B393C"/><stop offset=".067" stop-color="#312F32"/><stop offset=".25" stop-color="#1B1A1C"/><stop offset=".451" stop-color="#0C0C0C"/><stop offset=".68" stop-color="#030303"/><stop offset="1"/></linearGradient><linearGradient id="paint24_linear_6104_7046" x1="146.845" y1="159.482" x2="147.322" y2="172.197" gradientUnits="userSpaceOnUse"><stop stop-color="#3B393C"/><stop offset=".067" stop-color="#312F32"/><stop offset=".25" stop-color="#1B1A1C"/><stop offset=".451" stop-color="#0C0C0C"/><stop offset=".68" stop-color="#030303"/><stop offset="1"/></linearGradient><linearGradient id="paint25_linear_6104_7046" x1="108.48" y1="160.923" x2="108.958" y2="173.638" gradientUnits="userSpaceOnUse"><stop stop-color="#3B393C"/><stop offset=".067" stop-color="#312F32"/><stop offset=".25" stop-color="#1B1A1C"/><stop offset=".451" stop-color="#0C0C0C"/><stop offset=".68" stop-color="#030303"/><stop offset="1"/></linearGradient><linearGradient id="paint26_linear_6104_7046" x1="394.275" y1="240.828" x2="396.559" y2="306.237" gradientUnits="userSpaceOnUse"><stop stop-color="#FFCFC0"/><stop offset=".039" stop-color="#FFCCBE"/><stop offset=".37" stop-color="#FFB7B2"/><stop offset=".694" stop-color="#FAA"/><stop offset="1" stop-color="#FFA6A8"/></linearGradient><linearGradient id="paint27_linear_6104_7046" x1="424.531" y1="204.606" x2="426.175" y2="251.67" gradientUnits="userSpaceOnUse"><stop offset="0" stop-color="#FFBD9F"/><stop offset=".289" stop-color="#FFD0CB"/><stop offset="1" stop-color="#FFDACC"/></linearGradient><linearGradient id="paint28_linear_6104_7046" x1="454.571" y1="274.419" x2="452.89" y2="226.292" gradientUnits="userSpaceOnUse"><stop offset="0" stop-color="#FFBD9F"/><stop offset=".289" stop-color="#FFD0CB"/><stop offset="1" stop-color="#FFE2E1"/></linearGradient><linearGradient id="paint29_linear_6104_7046" x1="405.887" y1="273.257" x2="404.884" y2="244.53" gradientUnits="userSpaceOnUse"><stop offset="0" stop-color="#FFBD9F"/><stop offset=".289" stop-color="#FFD0CB"/><stop offset="1" stop-color="#FFDACC"/></linearGradient><linearGradient id="paint30_linear_6104_7046" x1="398.112" y1="180.348" x2="374.516" y2="181.171" gradientUnits="userSpaceOnUse"><stop stop-color="#FFA6A8"/><stop offset=".306" stop-color="#FAA"/><stop offset=".63" stop-color="#FFB7B2"/><stop offset=".961" stop-color="#FFCCBE"/><stop offset="1" stop-color="#FFCFC0"/></linearGradient><linearGradient id="paint31_linear_6104_7046" x1="451.632" y1="178.479" x2="471.149" y2="177.797" gradientUnits="userSpaceOnUse"><stop stop-color="#FFA6A8"/><stop offset=".306" stop-color="#FAA"/><stop offset=".63" stop-color="#FFB7B2"/><stop offset=".961" stop-color="#FFCCBE"/><stop offset="1" stop-color="#FFCFC0"/></linearGradient><linearGradient id="paint32_linear_6104_7046" x1="421.275" y1="133.31" x2="424.414" y2="223.192" gradientUnits="userSpaceOnUse"><stop stop-color="#FFDACC"/><stop offset=".711" stop-color="#FFD0CB"/><stop offset="1" stop-color="#FFBD9F"/></linearGradient><linearGradient id="paint33_linear_6104_7046" x1="411.429" y1="130.256" x2="441.855" y2="129.194" gradientUnits="userSpaceOnUse"><stop stop-color="#FF5E00"/><stop offset="1" stop-color="#FF0500"/></linearGradient><linearGradient id="paint34_linear_6104_7046" x1="419.019" y1="172.38" x2="418.783" y2="165.637" gradientUnits="userSpaceOnUse"><stop stop-color="#FFA6A8"/><stop offset=".306" stop-color="#FAA"/><stop offset=".63" stop-color="#FFB7B2"/><stop offset=".961" stop-color="#FFCCBE"/><stop offset="1" stop-color="#FFCFC0"/></linearGradient><linearGradient id="paint37_linear_6104_7046" x1="404.318" y1="164.142" x2="404.359" y2="173.879" gradientUnits="userSpaceOnUse"><stop stop-color="#3B393C"/><stop offset=".067" stop-color="#312F32"/><stop offset=".25" stop-color="#1B1A1C"/><stop offset=".451" stop-color="#0C0C0C"/><stop offset=".68" stop-color="#030303"/><stop offset="1"/></linearGradient><linearGradient id="paint38_linear_6104_7046" x1="434.399" y1="172.649" x2="434.357" y2="162.912" gradientUnits="userSpaceOnUse"><stop stop-color="#3B393C"/><stop offset=".067" stop-color="#312F32"/><stop offset=".25" stop-color="#1B1A1C"/><stop offset=".451" stop-color="#0C0C0C"/><stop offset=".68" stop-color="#030303"/><stop offset="1"/></linearGradient><radialGradient id="paint20_radial_6104_7046" cx="0" cy="0" r="1" gradientUnits="userSpaceOnUse" gradientTransform="rotate(-2 2940.34 -7374.027) scale(12.7429 10.5961)"><stop stop-color="#FF9E88" stop-opacity=".8"/><stop offset=".295" stop-color="#FFA28C" stop-opacity=".564"/><stop offset=".607" stop-color="#FFAF98" stop-opacity=".314"/><stop offset=".926" stop-color="#FFC4AC" stop-opacity=".059"/><stop offset="1" stop-color="#FFCAB2" stop-opacity="0"/></radialGradient><radialGradient id="paint21_radial_6104_7046" cx="0" cy="0" r="1" gradientUnits="userSpaceOnUse" gradientTransform="rotate(-2 2909.146 -9161.159) scale(12.7429 10.5961)"><stop stop-color="#FF9E88" stop-opacity=".8"/><stop offset=".295" stop-color="#FFA28C" stop-opacity=".564"/><stop offset=".607" stop-color="#FFAF98" stop-opacity=".314"/><stop offset=".926" stop-color="#FFC4AC" stop-opacity=".059"/><stop offset="1" stop-color="#FFCAB2" stop-opacity="0"/></radialGradient><radialGradient id="paint35_radial_6104_7046" cx="0" cy="0" r="1" gradientUnits="userSpaceOnUse" gradientTransform="matrix(10.3364 -.36096 .30015 8.59506 394.115 181.233)"><stop stop-color="#FFA791" stop-opacity=".8"/><stop offset=".302" stop-color="#FFAB95" stop-opacity=".558"/><stop offset=".622" stop-color="#FFB7A2" stop-opacity=".302"/><stop offset=".949" stop-color="#FFCBB7" stop-opacity=".041"/><stop offset="1" stop-color="#FFCFBB" stop-opacity="0"/></radialGradient><radialGradient id="paint36_radial_6104_7046" cx="0" cy="0" r="1" gradientUnits="userSpaceOnUse" gradientTransform="matrix(10.3364 -.36096 .30015 8.59506 444.722 179.465)"><stop stop-color="#FFA791" stop-opacity=".8"/><stop offset=".302" stop-color="#FFAB95" stop-opacity=".558"/><stop offset=".622" stop-color="#FFB7A2" stop-opacity=".302"/><stop offset=".949" stop-color="#FFCBB7" stop-opacity=".041"/><stop offset="1" stop-color="#FFCFBB" stop-opacity="0"/></radialGradient></defs></svg>