<svg width="204" height="172" viewBox="0 0 204 172" fill="none" xmlns="http://www.w3.org/2000/svg"><g clip-path="url(#clip0_6090_3369)"><path d="M30.582 137.42l-.22 12.583 31.012.541a6.292 6.292 0 00.22-12.582l-31.012-.541v-.001z" fill="url(#paint0_linear_6090_3369)"/><path d="M63.657 150.135a6.293 6.293 0 003.795-8.049l-7.832-21.802a6.293 6.293 0 00-11.844 4.254l7.832 21.802a6.292 6.292 0 008.049 3.795z" fill="url(#paint1_linear_6090_3369)"/><path d="M23.569 143.9c.12-2.806 1.978-5.257 4.664-6.075a9.19 9.19 0 012.835-.397l-.22 12.583-13.951-.243a1.345 1.345 0 01-1.321-1.368 4.637 4.637 0 014.718-4.556l2.043.036 1.232.021v-.001z" fill="#FF265D"/><path d="M33.431 137.47l-2.85-.05-.22 12.583 2.85.05.22-12.583z" fill="#FF679F"/><path d="M18.094 137.202l-.22 12.583 31.011.541a6.292 6.292 0 10.22-12.582l-31.011-.541v-.001z" fill="url(#paint2_linear_6090_3369)"/><path d="M51.168 149.917a6.293 6.293 0 003.795-8.049l-7.831-21.802a6.293 6.293 0 00-11.845 4.254l7.832 21.802a6.293 6.293 0 008.05 3.795z" fill="url(#paint3_linear_6090_3369)"/><path d="M11.081 143.682c.12-2.806 1.978-5.257 4.665-6.075a9.16 9.16 0 012.834-.396l-.22 12.582-15.562-.271a1.345 1.345 0 01-1.32-1.368 4.637 4.637 0 014.717-4.556l3.654.064 1.232.021v-.001z" fill="#FF3C82"/><path d="M21.88 137.268l-3.786-.066-.22 12.583 3.787.066.22-12.583z" fill="#FF7FAD"/><path d="M21.827 78.865l3.478-34.07a8.71 8.71 0 0117.33 1.77l-2.908 28.493c-.977 9.57-9.528 16.538-19.099 15.561l-2.977-.303c2.77-.87 3.887-8.868 4.176-11.45z" fill="url(#paint4_linear_6090_3369)"/><path d="M29.543 137.387l36.524.637a1.715 1.715 0 001.746-1.685l-2.192-11.251c-.918-4.716-1.15-4.161-1.84-8.915-1.383-9.52-9.494-16.908-19.424-17.081a18.934 18.934 0 00-.413-.003c-12.331.034-21.508 11.444-19.15 23.549l3.063 13.004a1.716 1.716 0 001.686 1.745z" fill="url(#paint5_linear_6090_3369)"/><path d="M31.345 105.568l30.633.535a1.927 1.927 0 001.959-1.893l.184-10.564c.163-9.29-7.237-16.952-16.526-17.114l-.843-.015c-9.29-.162-16.952 7.237-17.114 16.527l-.184 10.566a1.926 1.926 0 001.89 1.958z" fill="#fff"/><path d="M46.758 100.294c7.652.134 14.223-4.74 16.597-11.598a17.22 17.22 0 01.759 5.371l-.182 10.412a1.659 1.659 0 01-1.687 1.629l-31.168-.544a1.659 1.659 0 01-1.63-1.687l.183-10.412a17.22 17.22 0 01.946-5.342c2.134 6.939 8.53 12.038 16.182 12.171z" fill="url(#paint6_linear_6090_3369)"/><path d="M48.803 89.225a.951.951 0 10.034-1.902.951.951 0 00-.034 1.902zm-.066 3.777a.951.951 0 10.034-1.902.951.951 0 00-.034 1.902z" fill="#FFE6F2"/><path d="M48.567 84.804a7.415 7.415 0 007.544-7.285l.087-5.004a7.415 7.415 0 10-14.828-.26l-.088 5.006a7.415 7.415 0 007.285 7.543z" fill="#FF958E"/><path d="M49.603 78.35c11.929.208 21.768-9.294 21.976-21.223.209-11.93-9.293-21.77-21.222-21.977-11.93-.209-21.769 9.293-21.977 21.223-.208 11.929 9.293 21.768 21.223 21.976z" fill="url(#paint7_linear_6090_3369)"/><path opacity=".29" d="M39.788 43.274c1.256-.93 1.864-2.239 1.357-2.924-.507-.685-1.936-.486-3.193.444-1.257.93-1.865 2.24-1.358 2.924.507.685 1.937.486 3.194-.444z" fill="#fff"/><path d="M63.178 65.855a4.325 4.325 0 108.606.878 4.325 4.325 0 00-8.606-.878z" fill="url(#paint8_linear_6090_3369)"/><path d="M28.774 62.343a4.325 4.325 0 108.605.879 4.325 4.325 0 00-8.605-.879z" fill="url(#paint9_linear_6090_3369)"/><path d="M48.265 82.22c9.545.974 18.071-5.974 19.045-15.519l.357-3.49c.974-9.546-5.973-18.072-15.518-19.047-9.545-.974-18.072 5.974-19.046 15.519l-.357 3.491c-.974 9.544 5.974 18.072 15.519 19.046z" fill="url(#paint10_linear_6090_3369)"/><path d="M67.83 72.252a1.34 1.34 0 10.046-2.679 1.34 1.34 0 00-.046 2.679zm-35.942-3.669a1.34 1.34 0 10.047-2.68 1.34 1.34 0 00-.047 2.68z" fill="#FFE6F2"/><path d="M32.258 58.351l2.813.288c8.235.84 15.592-5.154 16.433-13.39l.113-1.107-2.813-.287c-8.235-.841-15.592 5.153-16.433 13.389l-.113 1.107z" fill="url(#paint11_linear_6090_3369)"/><path d="M51.236 66.11a1.853 1.853 0 002.03-1.654l.149-1.445a1.853 1.853 0 00-3.685-.376l-.148 1.444a1.852 1.852 0 001.654 2.031z" fill="url(#paint12_linear_6090_3369)"/><path d="M46.844 67.106a.57.57 0 00-.627.582 4.74 4.74 0 009.342.954.57.57 0 00-.497-.697l-8.218-.84z" fill="#CF1138"/><path d="M50.472 72.24a4.736 4.736 0 01-3.912-2.942 6.405 6.405 0 012.26-.168c1.952.199 3.567 1.22 4.358 2.576a4.729 4.729 0 01-2.706.534z" fill="#FF2C60"/><path d="M57.692 63.956a1.298 1.298 0 001.423-1.16l.106-1.034a1.298 1.298 0 10-2.584-.263l-.105 1.033a1.298 1.298 0 001.16 1.424z" fill="url(#paint13_linear_6090_3369)"/><path d="M45.29 62.69a1.298 1.298 0 001.424-1.16l.105-1.033a1.298 1.298 0 10-2.583-.264l-.106 1.033a1.299 1.299 0 001.16 1.424z" fill="url(#paint14_linear_6090_3369)"/><path d="M60.312 57.814a.865.865 0 00.819-1.32c-.606-.964-1.694-1.612-2.913-1.736a4.063 4.063 0 00-2.09.33.864.864 0 10.715 1.575 2.33 2.33 0 011.2-.185c.693.07 1.3.42 1.624.937.148.233.39.373.645.4zM43.023 56.05a.865.865 0 01-.535-1.459c.788-.82 1.985-1.236 3.203-1.112.726.074 1.41.332 1.98.746a.864.864 0 11-1.016 1.398 2.345 2.345 0 00-1.139-.424c-.692-.07-1.358.15-1.78.589a.864.864 0 01-.713.262z" fill="#FF8011"/><path d="M65.718 68.3c.197-1.927-1.52-3.68-3.834-3.916-2.315-.237-4.35 1.134-4.547 3.06-.196 1.928 1.52 3.68 3.835 3.917 2.314.237 4.349-1.134 4.546-3.06z" fill="url(#paint15_radial_6090_3369)"/><path opacity=".2" d="M60.661 66.424c.018-.171-.134-.328-.339-.349-.205-.02-.386.102-.403.274-.018.172.134.328.34.349.204.02.385-.102.402-.273z" fill="#fff"/><path d="M45.2 66.206c.196-1.927-1.52-3.68-3.835-3.917-2.315-.236-4.35 1.135-4.547 3.061-.196 1.927 1.52 3.68 3.835 3.917 2.314.236 4.35-1.134 4.546-3.061z" fill="url(#paint16_radial_6090_3369)"/><path opacity=".2" d="M40.142 64.331c.018-.172-.134-.328-.34-.349-.204-.02-.385.102-.402.273-.018.172.134.329.34.35.204.02.385-.102.402-.274z" fill="#fff"/><path d="M42.112 91.235a14.31 14.31 0 00-5.558-11.585c-4.179 2.993-6.937 7.857-7.034 13.39l-.192 10.993a1.5 1.5 0 001.473 1.525l11.058.193.253-14.516z" fill="url(#paint17_linear_6090_3369)"/><path d="M139.509 88.914l-16.397 14.032-9.887-11.554 16.397-14.032a7.604 7.604 0 019.887 11.554z" fill="url(#paint18_linear_6090_3369)"/><path d="M124.332 101.893l-9.887-11.554-3.455 2.957 9.886 11.553 3.456-2.956z" fill="#A2E2FF"/><path d="M90.484 78.342a1.992 1.992 0 012.209-1.75l5.398.55a1.992 1.992 0 11-.459 3.959l-5.398-.551a1.993 1.993 0 01-1.75-2.208z" fill="url(#paint19_linear_6090_3369)"/><path d="M91.364 71.86a1.993 1.993 0 012.792-.382l4.644 3.527a1.993 1.993 0 01-2.41 3.174l-4.644-3.527a1.993 1.993 0 01-.382-2.792z" fill="url(#paint20_linear_6090_3369)"/><path d="M94.871 67.85a1.992 1.992 0 012.782.453l3.407 4.733a1.991 1.991 0 11-3.234 2.328L94.42 70.63a1.992 1.992 0 01.452-2.78z" fill="url(#paint21_linear_6090_3369)"/><path d="M99.866 65.599a1.99 1.99 0 012.579 1.132l2.118 5.434a1.991 1.991 0 11-3.712 1.447l-2.118-5.434a1.991 1.991 0 011.133-2.58z" fill="url(#paint22_linear_6090_3369)"/><path d="M107.13 66.813a1.992 1.992 0 011.616 2.309l-1.013 5.743a1.992 1.992 0 11-3.924-.691l1.013-5.744a1.992 1.992 0 012.308-1.617z" fill="url(#paint23_linear_6090_3369)"/><path d="M111.101 103.385L96.44 83.019a7.604 7.604 0 0112.341-8.885L123.443 94.5a7.604 7.604 0 01-12.342 8.885z" fill="url(#paint24_linear_6090_3369)"/><path d="M175.715 149.424l-.048 2.767-36.378-.635a8.28 8.28 0 01-8.134-8.423 8.28 8.28 0 018.423-8.135l22.587.394c7.617.132 13.683 6.414 13.55 14.032z" fill="#000002"/><path d="M134.97 151.013a8.281 8.281 0 01-6.147-9.968l5.524-23.298a8.282 8.282 0 0116.115 3.821l-5.524 23.298a8.282 8.282 0 01-9.968 6.147z" fill="#000002"/><path d="M176.339 144.32c-.028-3.7-2.363-7.014-5.863-8.216a12.08 12.08 0 00-3.715-.652l-.289 16.579 16.933.295a1.771 1.771 0 001.802-1.74 6.11 6.11 0 00-6.004-6.216l-1.243-.022-1.621-.028z" fill="#1B123F"/><path d="M169.955 135.449l-.29 16.637-6.386-.111.291-16.638c.01-.6.506-1.079 1.107-1.069l4.21.074c.601.01 1.079.507 1.068 1.107z" fill="#402291"/><path d="M191.967 149.707l-.048 2.768-36.378-.635a8.28 8.28 0 01-8.134-8.424 8.28 8.28 0 018.423-8.134l22.587.394c7.617.132 13.683 6.414 13.55 14.031z" fill="#251364"/><path d="M151.416 151.341a8.28 8.28 0 01-6.244-9.906l5.294-23.351a8.28 8.28 0 1116.151 3.662l-5.294 23.351a8.28 8.28 0 01-9.907 6.244z" fill="#251364"/><path d="M192.592 144.603c-.028-3.7-2.363-7.014-5.864-8.216a12.133 12.133 0 00-3.714-.652l-.29 16.579 16.933.296a1.77 1.77 0 001.802-1.74 6.11 6.11 0 00-6.003-6.217l-1.243-.021-1.621-.029z" fill="#322358"/><path d="M186.207 135.733l-.29 16.637-6.386-.112.291-16.637c.01-.6.506-1.079 1.107-1.069l4.21.074c.601.01 1.079.506 1.068 1.107z" fill="#5832AD"/><path d="M155.178 128.801l-11.07-.194c-8.023-.14-14.414-6.757-14.273-14.78l.078-4.474 40.122.701-.078 4.473c-.139 8.023-6.756 14.414-14.779 14.274z" fill="#251364"/><path d="M170.006 121.768l-39.715-.693a2.34 2.34 0 01-2.297-2.379l.523-29.93c.179-10.285 8.663-18.478 18.948-18.299l7.143.125c10.285.18 18.478 8.663 18.298 18.948l-.522 29.932a2.337 2.337 0 01-2.378 2.296z" fill="url(#paint25_linear_6090_3369)"/><path d="M150.215 101.985l-2.143 1.813a.711.711 0 01-.934-.011l-2.037-1.811a.71.71 0 01-.239-.535l.029-18.6 5.606.007-.029 18.593c0 .21-.093.409-.253.544z" fill="#FF2D2D"/><path d="M144.885 85.976c.049.055.096.113.149.166a3.648 3.648 0 005.459-.335l.004-2.657-5.607-.008-.005 2.834z" fill="#FF1F0C"/><path d="M150.095 79.782a3.493 3.493 0 11-4.948 4.931 3.493 3.493 0 014.948-4.93z" fill="#FF2D2D"/><path d="M144.112 83.267l4.045-4.335 3.653 5.094a9.34 9.34 0 10-12.312-9.755 9.343 9.343 0 004.614 8.996z" fill="#89DAFB"/><path d="M148.492 79.212a8.152 8.152 0 01-8.008-8.292l.095-5.458a8.151 8.151 0 0116.3.284l-.095 5.458a8.151 8.151 0 01-8.292 8.008z" fill="#FF958E"/><path d="M85.604 42.524l-10.275-.179.152-8.743a8.745 8.745 0 018.896-8.591l1.532.026a8.745 8.745 0 01-.305 17.487z" fill="#FF4974"/><path d="M84.774 37.717a.418.418 0 01-.295-.127l-3.2-3.318a2.205 2.205 0 01.054-3.102 2.197 2.197 0 013.102.054l.445.46.46-.444a2.198 2.198 0 013.102.054 2.205 2.205 0 01-.054 3.102L85.074 37.6a.418.418 0 01-.3.117z" fill="#fff"/><path d="M105.392 153.225a3.323 3.323 0 01-3.264-3.38l.351-20.064a3.323 3.323 0 016.642.116l-.35 20.064a3.322 3.322 0 01-3.379 3.264z" fill="#FFC200"/><path d="M104.115 137.936c23.068.403 42.094-17.971 42.497-41.039.403-23.067-17.971-42.094-41.039-42.497-23.067-.402-42.094 17.971-42.496 41.04-.403 23.067 17.97 42.093 41.038 42.496z" fill="#FF9D00"/><path d="M90.662 152.967a3.322 3.322 0 01-3.264-3.379l.35-20.064a3.323 3.323 0 016.643.116l-.35 20.064a3.321 3.321 0 01-3.38 3.263z" fill="#FFC200"/><path d="M47.48 129.145a2.91 2.91 0 01-2.385-3.678 42.377 42.377 0 012.624-6.844 44.193 44.193 0 015.856-9.069 44.48 44.48 0 0110.168-8.929 2.907 2.907 0 013.134 4.896 38.678 38.678 0 00-8.748 7.649 38.373 38.373 0 00-5.08 7.787 36.717 36.717 0 00-2.362 6.101 2.91 2.91 0 01-3.207 2.087z" fill="#FFD300"/><path d="M95.196 137.757c23.068.403 42.094-17.971 42.497-41.038.402-23.068-17.971-42.095-41.039-42.497-23.068-.403-42.094 17.97-42.497 41.038-.402 23.068 17.971 42.095 41.039 42.497z" fill="#FFD000"/><path opacity=".8" d="M58.912 115.371a41.963 41.963 0 0016.16 16.821l57.865-55.586a41.963 41.963 0 00-16.159-16.822l-57.866 55.587z" fill="#FFEB64"/><path d="M95.38 127.309c17.297.302 31.564-13.475 31.866-30.773.302-17.297-13.476-31.564-30.773-31.866-17.298-.302-31.565 13.475-31.867 30.773-.302 17.297 13.476 31.564 30.773 31.866z" fill="#FFC200"/><path d="M108.84 96.668a1.686 1.686 0 011.632 1.934c-1.065 6.819-7.031 11.971-14.123 11.829-7.092-.143-12.846-5.53-13.637-12.386a1.685 1.685 0 011.709-1.866l24.419.49z" fill="#E70000"/><path d="M96.349 110.431c5.377.108 10.102-2.831 12.538-7.23a18.968 18.968 0 00-6.573-1.304c-5.801-.117-10.906 2.303-13.717 5.993a13.944 13.944 0 007.752 2.541z" fill="#FF0040"/><path d="M86.048 92.29a2.649 2.649 0 01-2.595-2.702l.029-1.441a2.649 2.649 0 115.297.106l-.03 1.441a2.65 2.65 0 01-2.701 2.595z" fill="url(#paint26_linear_6090_3369)"/><path d="M106.951 92.71a2.648 2.648 0 01-2.595-2.702l.029-1.441a2.648 2.648 0 115.297.106l-.029 1.441a2.65 2.65 0 01-2.702 2.596z" fill="url(#paint27_linear_6090_3369)"/><path d="M140.849 103.338a2.905 2.905 0 014.272-1.111 33.85 33.85 0 015.127 4.422 32.805 32.805 0 015.702 8.198c1.806 3.707 2.89 7.761 3.221 12.048.123 1.596-1.035 3.034-2.63 3.179a2.907 2.907 0 01-3.162-2.676c-.265-3.526-1.138-6.848-2.593-9.876a26.929 26.929 0 00-4.602-6.709 28.058 28.058 0 00-4.389-3.818 2.908 2.908 0 01-.946-3.657z" fill="#FFD300"/><path opacity=".8" d="M67.615 97.563c.347-17.296 14.65-31.036 31.947-30.689a31.183 31.183 0 0116.333 4.98 31.19 31.19 0 00-19.34-7.184c-17.296-.347-31.6 13.392-31.947 30.69-.227 11.271 5.531 21.271 14.356 26.966-7.1-5.881-11.549-14.828-11.35-24.763z" fill="#FFAF00"/><path d="M120.159 121.257a1.993 1.993 0 01-1.408-2.441l1.336-5.258a1.993 1.993 0 013.848 1.032l-1.336 5.259a1.992 1.992 0 01-2.44 1.408z" fill="url(#paint28_linear_6090_3369)"/><path d="M113.877 119.436a1.993 1.993 0 01.032-2.818l4.17-4.076a1.992 1.992 0 112.785 2.849l-4.171 4.076a1.99 1.99 0 01-2.816-.031z" fill="url(#paint29_linear_6090_3369)"/><path d="M110.424 115.378a1.992 1.992 0 01.856-2.684l5.18-2.676a1.993 1.993 0 011.83 3.539l-5.181 2.676a1.991 1.991 0 01-2.685-.855z" fill="url(#paint30_linear_6090_3369)"/><path d="M108.929 110.109a1.992 1.992 0 011.499-2.386l5.685-1.298a1.993 1.993 0 01.887 3.885l-5.685 1.298a1.993 1.993 0 01-2.386-1.499z" fill="url(#paint31_linear_6090_3369)"/><path d="M111.196 103.101a1.993 1.993 0 012.52-1.261l5.533 1.844a1.992 1.992 0 01-1.26 3.779l-5.533-1.843a1.99 1.99 0 01-1.26-2.519z" fill="url(#paint32_linear_6090_3369)"/><path d="M147.956 104.535l-22.295 11.517a7.603 7.603 0 01-6.979-13.51l22.295-11.517a7.604 7.604 0 016.979 13.51z" fill="url(#paint33_linear_6090_3369)"/><path d="M166.372 95.023l-19.174 9.904-6.979-13.51 19.175-9.905a7.602 7.602 0 0110.244 3.266 7.606 7.606 0 01-3.266 10.245z" fill="url(#paint34_linear_6090_3369)"/><path d="M148.636 104.187l-6.979-13.51-4.041 2.087 6.979 13.511 4.041-2.088z" fill="#A2E2FF"/><path d="M133.232 112.145l-6.98-13.51-3.852 1.989 6.98 13.511 3.852-1.99z" fill="#32003D"/><path d="M127.843 109.635a3.298 3.298 0 10.115-6.595 3.298 3.298 0 00-.115 6.595z" fill="#D6C0E7"/><path d="M148.594 72.228l-3.655.486c-10.719 1.424-20.563-6.11-21.987-16.83l-.538-4.048c-1.478-11.13 6.345-21.35 17.474-22.829l2.035-.27c11.203-1.488 21.491 6.386 22.979 17.59l.521 3.916c1.425 10.717-6.11 20.561-16.829 21.985z" fill="url(#paint35_linear_6090_3369)"/><path d="M161.497 57.954a3.42 3.42 0 002.939-3.84l-.048-.36a3.419 3.419 0 00-3.84-2.938.996.996 0 00-.856 1.118l.686 5.163a.996.996 0 001.119.857z" fill="url(#paint36_linear_6090_3369)"/><path d="M125.317 55.466a3.419 3.419 0 00-2.939 3.84l.048.36a3.419 3.419 0 003.839 2.939.996.996 0 00.857-1.12l-.687-5.162a.996.996 0 00-1.118-.857z" fill="url(#paint37_linear_6090_3369)"/><path d="M146.371 77.441c9.714-1.29 16.543-10.211 15.253-19.927l-.843-6.346c-1.291-9.715-10.211-16.543-19.927-15.254-9.714 1.291-16.543 10.212-15.253 19.928l.843 6.346c1.291 9.715 10.213 16.544 19.927 15.253z" fill="url(#paint38_linear_6090_3369)"/><path d="M148.916 34.674l-17.693 2.343a3.648 3.648 0 10.958 7.233l21.419-2.846a1.168 1.168 0 011.31 1.002l.434 3.265a6.012 6.012 0 006.751 5.167 1.168 1.168 0 001.003-1.31l-.591-4.443c-.88-6.627-6.964-11.287-13.591-10.41z" fill="url(#paint39_linear_6090_3369)"/><path opacity=".29" d="M156.596 35.929c.444-.64-.147-1.818-1.321-2.632-1.173-.814-2.483-.956-2.927-.317-.444.64.147 1.818 1.321 2.632 1.173.814 2.483.956 2.927.317z" fill="#fff"/><path d="M142.91 60.947a2.377 2.377 0 002.043-2.67l-.211-1.587a2.376 2.376 0 10-4.712.626l.211 1.587a2.375 2.375 0 002.669 2.044z" fill="url(#paint40_linear_6090_3369)"/><path d="M137.104 63.46a.368.368 0 00-.31.439 6.426 6.426 0 0012.716-1.69.368.368 0 00-.414-.342l-11.992 1.594z" fill="#CF1138"/><path d="M147.339 65.763l-3.72.494a3.44 3.44 0 00-2.833 2.4 6.392 6.392 0 003.162.377 6.415 6.415 0 004.733-3.184 3.451 3.451 0 00-1.342-.087z" fill="#FF2C60"/><path d="M139.479 65.159l9.94-1.32a6.343 6.343 0 00.092-1.63.37.37 0 00-.415-.342l-10.937 1.453.123.922c.077.584.613.994 1.197.917z" fill="#fff"/><path d="M136.02 58.152a1.393 1.393 0 01-1.565-1.198l-.147-1.107a1.394 1.394 0 012.764-.367l.146 1.106a1.393 1.393 0 01-1.198 1.566z" fill="url(#paint41_linear_6090_3369)"/><path d="M149.379 56.377a1.394 1.394 0 01-1.566-1.198l-.147-1.106a1.394 1.394 0 012.764-.367l.147 1.106a1.395 1.395 0 01-1.198 1.565z" fill="url(#paint42_linear_6090_3369)"/><path d="M132.292 51.872a.927.927 0 01-.922-1.39c.619-1.052 1.767-1.785 3.069-1.958a4.367 4.367 0 012.254.287.927.927 0 11-.714 1.713 2.504 2.504 0 00-1.295-.159c-.741.099-1.382.494-1.714 1.058a.93.93 0 01-.678.45zm18.498-2.457a.93.93 0 00.526-1.583c-.872-.855-2.171-1.262-3.474-1.089a4.373 4.373 0 00-2.101.865.929.929 0 001.138 1.467 2.507 2.507 0 011.207-.492c.741-.099 1.463.116 1.93.574a.932.932 0 00.774.258z" fill="#BF0C01"/><path d="M77.187 104.15a5.615 5.615 0 01-4.703 6.397l-20.65 3.149a5.614 5.614 0 11-1.693-11.1l20.65-3.15a5.614 5.614 0 016.396 4.704z" fill="url(#paint43_linear_6090_3369)"/><path d="M68.104 111.283l-1.693-11.101-3.84.586 1.694 11.101 3.839-.586z" fill="#FF8011"/><path d="M65.215 108.51a2.954 2.954 0 10.102-5.906 2.954 2.954 0 00-.102 5.906z" fill="#FFCD5C"/><path d="M75.843 95.958a1.657 1.657 0 01.531 2.282l-2.332 3.863a1.657 1.657 0 11-2.814-1.751l2.332-3.863a1.657 1.657 0 012.283-.531z" fill="url(#paint44_linear_6090_3369)"/><path d="M80.403 98.923a1.657 1.657 0 01-.706 2.235l-4.303 2.237a1.656 1.656 0 11-1.529-2.94l4.303-2.238a1.657 1.657 0 012.235.706z" fill="url(#paint45_linear_6090_3369)"/><path d="M82.172 102.986c.166.9-.43 1.764-1.33 1.93l-4.769.879a1.656 1.656 0 11-.6-3.259l4.769-.88c.9-.165 1.764.43 1.93 1.33z" fill="url(#paint46_linear_6090_3369)"/><path d="M82.09 107.541a1.657 1.657 0 01-1.769 1.537l-4.837-.339a1.657 1.657 0 11.232-3.306l4.837.339a1.657 1.657 0 011.537 1.769z" fill="url(#paint47_linear_6090_3369)"/><path d="M78.594 112.571a1.657 1.657 0 01-2.31.394l-3.958-2.803a1.657 1.657 0 111.916-2.704l3.957 2.803c.747.529.924 1.564.395 2.31z" fill="url(#paint48_linear_6090_3369)"/><path d="M30.987 96.755l15.17 15.501a.713.713 0 001.007-.021l9.459-9.846a.712.712 0 00-.02-1.007l-15.17-15.501a7.54 7.54 0 10-10.447 10.874z" fill="#fff"/><path d="M28.57 94.304l16.21 17.361c.15.157.4.164.557.013l11.593-11.033a.393.393 0 00.01-.559l-16.447-17.23A8.264 8.264 0 0028.57 94.305z" fill="url(#paint49_linear_6090_3369)"/></g><defs><linearGradient id="paint0_linear_6090_3369" x1="50.297" y1="76.856" x2="49.042" y2="148.704" gradientUnits="userSpaceOnUse"><stop stop-color="#FFDDCD"/><stop offset=".711" stop-color="#FFCBC6"/><stop offset="1" stop-color="#FFB2A1"/></linearGradient><linearGradient id="paint1_linear_6090_3369" x1="58.597" y1="77" x2="57.343" y2="148.849" gradientUnits="userSpaceOnUse"><stop stop-color="#FFDDCD"/><stop offset=".711" stop-color="#FFCBC6"/><stop offset="1" stop-color="#FFB2A1"/></linearGradient><linearGradient id="paint2_linear_6090_3369" x1="69.286" y1="144.388" x2="12.268" y2="143.393" gradientUnits="userSpaceOnUse"><stop stop-color="#FFDDCD"/><stop offset=".711" stop-color="#FFCBC6"/><stop offset="1" stop-color="#FFB2A1"/></linearGradient><linearGradient id="paint3_linear_6090_3369" x1="42.242" y1="125.085" x2="61.519" y2="178.755" gradientUnits="userSpaceOnUse"><stop stop-color="#FFDDCD"/><stop offset=".711" stop-color="#FFCBC6"/><stop offset="1" stop-color="#FFB2A1"/></linearGradient><linearGradient id="paint4_linear_6090_3369" x1="27.646" y1="32.181" x2="32.188" y2="96.45" gradientUnits="userSpaceOnUse"><stop stop-color="#FFC310"/><stop offset=".182" stop-color="#FFBD10"/><stop offset=".423" stop-color="#FFAC11"/><stop offset=".697" stop-color="#FF9111"/><stop offset=".993" stop-color="#FF6B12"/><stop offset="1" stop-color="#FF6A12"/></linearGradient><linearGradient id="paint5_linear_6090_3369" x1="46.512" y1="104.909" x2="45.952" y2="136.984" gradientUnits="userSpaceOnUse"><stop stop-color="#110242"/><stop offset="1" stop-color="#140148"/></linearGradient><linearGradient id="paint6_linear_6090_3369" x1="46.966" y1="88.409" x2="46.662" y2="105.836" gradientUnits="userSpaceOnUse"><stop stop-color="#FFE6F2" stop-opacity=".5"/><stop offset="1" stop-color="#FFE6F2"/></linearGradient><linearGradient id="paint7_linear_6090_3369" x1="53.994" y1="17.415" x2="48.216" y2="74.007" gradientUnits="userSpaceOnUse"><stop stop-color="#FFC310"/><stop offset="1" stop-color="#FF9710"/></linearGradient><linearGradient id="paint8_linear_6090_3369" x1="60.977" y1="65.635" x2="71.38" y2="66.697" gradientUnits="userSpaceOnUse"><stop stop-color="#FF9CA4"/><stop offset=".288" stop-color="#FFA0A6"/><stop offset=".593" stop-color="#FFADAC"/><stop offset=".905" stop-color="#FFC2B6"/><stop offset="1" stop-color="#FFCABA"/></linearGradient><linearGradient id="paint9_linear_6090_3369" x1="37.377" y1="63.225" x2="28.771" y2="62.346" gradientUnits="userSpaceOnUse"><stop stop-color="#FF9CA4"/><stop offset=".288" stop-color="#FFA0A6"/><stop offset=".593" stop-color="#FFADAC"/><stop offset=".905" stop-color="#FFC2B6"/><stop offset="1" stop-color="#FFCABA"/></linearGradient><linearGradient id="paint10_linear_6090_3369" x1="52.072" y1="44.907" x2="48.241" y2="82.431" gradientUnits="userSpaceOnUse"><stop stop-color="#FFDDCD"/><stop offset=".711" stop-color="#FFCBC6"/><stop offset="1" stop-color="#FFB2A1"/></linearGradient><linearGradient id="paint11_linear_6090_3369" x1="45.479" y1="16.546" x2="39.701" y2="73.138" gradientUnits="userSpaceOnUse"><stop stop-color="#FFC310"/><stop offset="1" stop-color="#FF9710"/></linearGradient><linearGradient id="paint12_linear_6090_3369" x1="51.137" y1="67.073" x2="51.748" y2="61.085" gradientUnits="userSpaceOnUse"><stop stop-color="#FF9CA4"/><stop offset=".288" stop-color="#FFA0A6"/><stop offset=".593" stop-color="#FFADAC"/><stop offset=".905" stop-color="#FFC2B6"/><stop offset="1" stop-color="#FFCABA"/></linearGradient><linearGradient id="paint13_linear_6090_3369" x1="58.019" y1="60.744" x2="57.638" y2="64.468" gradientUnits="userSpaceOnUse"><stop stop-color="#3D3C3E"/><stop offset=".079" stop-color="#313032"/><stop offset=".26" stop-color="#1B1B1C"/><stop offset=".458" stop-color="#0C0C0C"/><stop offset=".684" stop-color="#030303"/><stop offset="1"/></linearGradient><linearGradient id="paint14_linear_6090_3369" x1="45.617" y1="59.478" x2="45.237" y2="63.202" gradientUnits="userSpaceOnUse"><stop stop-color="#3D3C3E"/><stop offset=".079" stop-color="#313032"/><stop offset=".26" stop-color="#1B1B1C"/><stop offset=".458" stop-color="#0C0C0C"/><stop offset=".684" stop-color="#030303"/><stop offset="1"/></linearGradient><linearGradient id="paint17_linear_6090_3369" x1="36.542" y1="50.538" x2="35.585" y2="105.375" gradientUnits="userSpaceOnUse"><stop stop-color="#5E52CD"/><stop offset=".061" stop-color="#584BC4"/><stop offset=".26" stop-color="#4937AD"/><stop offset=".471" stop-color="#3E299C"/><stop offset=".705" stop-color="#382192"/><stop offset="1" stop-color="#361E8F"/></linearGradient><linearGradient id="paint18_linear_6090_3369" x1="149.737" y1="68.991" x2="113.093" y2="102.163" gradientUnits="userSpaceOnUse"><stop stop-color="#6BCCF6"/><stop offset=".283" stop-color="#68C6F7"/><stop offset=".662" stop-color="#60B5F9"/><stop offset="1" stop-color="#55A0FB"/></linearGradient><linearGradient id="paint19_linear_6090_3369" x1="116.76" y1="108.828" x2="81.811" y2="60.282" gradientUnits="userSpaceOnUse"><stop stop-color="#FFCDC3"/><stop offset=".679" stop-color="#FFBFBA"/><stop offset="1" stop-color="#FFAFAD"/></linearGradient><linearGradient id="paint20_linear_6090_3369" x1="114.851" y1="110.858" x2="86.303" y2="58.289" gradientUnits="userSpaceOnUse"><stop stop-color="#FFCDC3"/><stop offset=".679" stop-color="#FFBFBA"/><stop offset="1" stop-color="#FFAFAD"/></linearGradient><linearGradient id="paint21_linear_6090_3369" x1="119.957" y1="107.839" x2="88.495" y2="56.961" gradientUnits="userSpaceOnUse"><stop stop-color="#FFCDC3"/><stop offset=".679" stop-color="#FFBFBA"/><stop offset="1" stop-color="#FFAFAD"/></linearGradient><linearGradient id="paint22_linear_6090_3369" x1="125.237" y1="104.162" x2="91.075" y2="55.055" gradientUnits="userSpaceOnUse"><stop stop-color="#FFCDC3"/><stop offset=".679" stop-color="#FFBFBA"/><stop offset="1" stop-color="#FFAFAD"/></linearGradient><linearGradient id="paint23_linear_6090_3369" x1="128.193" y1="102.073" x2="93.245" y2="53.528" gradientUnits="userSpaceOnUse"><stop stop-color="#FFCDC3"/><stop offset=".679" stop-color="#FFBFBA"/><stop offset="1" stop-color="#FFAFAD"/></linearGradient><linearGradient id="paint24_linear_6090_3369" x1="122.133" y1="105.68" x2="87.185" y2="57.134" gradientUnits="userSpaceOnUse"><stop stop-color="#FFCDC3"/><stop offset=".679" stop-color="#FFBFBA"/><stop offset="1" stop-color="#FFAFAD"/></linearGradient><linearGradient id="paint25_linear_6090_3369" x1="151.221" y1="59.995" x2="150.123" y2="122.883" gradientUnits="userSpaceOnUse"><stop stop-color="#6BCCF6"/><stop offset=".283" stop-color="#68C6F7"/><stop offset=".662" stop-color="#60B5F9"/><stop offset="1" stop-color="#55A0FB"/></linearGradient><linearGradient id="paint26_linear_6090_3369" x1="86.168" y1="86.3" x2="86.028" y2="93.235" gradientUnits="userSpaceOnUse"><stop stop-color="#3B393C"/><stop offset=".067" stop-color="#312F32"/><stop offset=".25" stop-color="#1B1A1C"/><stop offset=".451" stop-color="#0C0C0C"/><stop offset=".68" stop-color="#030303"/><stop offset="1"/></linearGradient><linearGradient id="paint27_linear_6090_3369" x1="107.071" y1="86.72" x2="106.932" y2="93.655" gradientUnits="userSpaceOnUse"><stop stop-color="#3B393C"/><stop offset=".067" stop-color="#312F32"/><stop offset=".25" stop-color="#1B1A1C"/><stop offset=".451" stop-color="#0C0C0C"/><stop offset=".68" stop-color="#030303"/><stop offset="1"/></linearGradient><linearGradient id="paint28_linear_6090_3369" x1="114.982" y1="120.595" x2="183.137" y2="78.901" gradientUnits="userSpaceOnUse"><stop stop-color="#FFDDCF"/><stop offset=".679" stop-color="#FFBFBA"/><stop offset="1" stop-color="#FFAFAD"/></linearGradient><linearGradient id="paint29_linear_6090_3369" x1="113.594" y1="118.325" x2="181.749" y2="76.632" gradientUnits="userSpaceOnUse"><stop stop-color="#FFDDCF"/><stop offset=".679" stop-color="#FFBFBA"/><stop offset="1" stop-color="#FFAFAD"/></linearGradient><linearGradient id="paint30_linear_6090_3369" x1="111.603" y1="115.072" x2="179.757" y2="73.378" gradientUnits="userSpaceOnUse"><stop stop-color="#FFDDCF"/><stop offset=".679" stop-color="#FFBFBA"/><stop offset="1" stop-color="#FFAFAD"/></linearGradient><linearGradient id="paint31_linear_6090_3369" x1="109.482" y1="111.605" x2="177.637" y2="69.911" gradientUnits="userSpaceOnUse"><stop stop-color="#FFDDCF"/><stop offset=".679" stop-color="#FFBFBA"/><stop offset="1" stop-color="#FFAFAD"/></linearGradient><linearGradient id="paint32_linear_6090_3369" x1="108.122" y1="109.381" x2="176.276" y2="67.688" gradientUnits="userSpaceOnUse"><stop stop-color="#FFDDCF"/><stop offset=".679" stop-color="#FFBFBA"/><stop offset="1" stop-color="#FFAFAD"/></linearGradient><linearGradient id="paint33_linear_6090_3369" x1="112.383" y1="116.346" x2="180.538" y2="74.652" gradientUnits="userSpaceOnUse"><stop stop-color="#FFDDCF"/><stop offset=".679" stop-color="#FFBFBA"/><stop offset="1" stop-color="#FFAFAD"/></linearGradient><linearGradient id="paint34_linear_6090_3369" x1="162.581" y1="85.532" x2="122.245" y2="119.444" gradientUnits="userSpaceOnUse"><stop stop-color="#59D3F7"/><stop offset=".217" stop-color="#5EC7F9"/><stop offset=".681" stop-color="#65B4FE"/><stop offset="1" stop-color="#68ADFF"/></linearGradient><linearGradient id="paint35_linear_6090_3369" x1="140.927" y1="28.557" x2="146.401" y2="69.756" gradientUnits="userSpaceOnUse"><stop stop-color="#C11601"/><stop offset=".289" stop-color="#B11901"/><stop offset=".849" stop-color="#882100"/><stop offset="1" stop-color="#7C2300"/></linearGradient><linearGradient id="paint36_linear_6090_3369" x1="165.633" y1="53.767" x2="160.728" y2="54.419" gradientUnits="userSpaceOnUse"><stop stop-color="#FFC9C0"/><stop offset=".656" stop-color="#FF9FA1"/><stop offset="1" stop-color="#FF878F"/></linearGradient><linearGradient id="paint37_linear_6090_3369" x1="122.397" y1="59.481" x2="126.773" y2="58.9" gradientUnits="userSpaceOnUse"><stop stop-color="#FFC9C0"/><stop offset=".656" stop-color="#FF9FA1"/><stop offset="1" stop-color="#FF878F"/></linearGradient><linearGradient id="paint38_linear_6090_3369" x1="140.759" y1="35.247" x2="146.373" y2="77.49" gradientUnits="userSpaceOnUse"><stop stop-color="#FFDDCD"/><stop offset=".711" stop-color="#FFCBC6"/><stop offset="1" stop-color="#FFB2A1"/></linearGradient><linearGradient id="paint39_linear_6090_3369" x1="143.317" y1="28.25" x2="148.79" y2="69.432" gradientUnits="userSpaceOnUse"><stop stop-color="#C11601"/><stop offset=".289" stop-color="#B11901"/><stop offset=".849" stop-color="#882100"/><stop offset="1" stop-color="#7C2300"/></linearGradient><linearGradient id="paint40_linear_6090_3369" x1="141.971" y1="53.922" x2="142.889" y2="60.824" gradientUnits="userSpaceOnUse"><stop stop-color="#FFC9C0"/><stop offset=".322" stop-color="#FFB7B3"/><stop offset=".964" stop-color="#FF8A91"/><stop offset="1" stop-color="#FF878F"/></linearGradient><linearGradient id="paint41_linear_6090_3369" x1="135.51" y1="54.352" x2="135.999" y2="58.033" gradientUnits="userSpaceOnUse"><stop stop-color="#3D3C3E"/><stop offset=".079" stop-color="#313032"/><stop offset=".26" stop-color="#1B1B1C"/><stop offset=".458" stop-color="#0C0C0C"/><stop offset=".684" stop-color="#030303"/><stop offset="1"/></linearGradient><linearGradient id="paint42_linear_6090_3369" x1="148.869" y1="52.577" x2="149.358" y2="56.258" gradientUnits="userSpaceOnUse"><stop stop-color="#3D3C3E"/><stop offset=".079" stop-color="#313032"/><stop offset=".26" stop-color="#1B1B1C"/><stop offset=".458" stop-color="#0C0C0C"/><stop offset=".684" stop-color="#030303"/><stop offset="1"/></linearGradient><linearGradient id="paint43_linear_6090_3369" x1="77.855" y1="104.047" x2="50.583" y2="108.206" gradientUnits="userSpaceOnUse"><stop stop-color="#FFDDCD"/><stop offset=".711" stop-color="#FFCBC6"/><stop offset="1" stop-color="#FFB2A1"/></linearGradient><linearGradient id="paint44_linear_6090_3369" x1="81.208" y1="98.164" x2="46.724" y2="103.423" gradientUnits="userSpaceOnUse"><stop stop-color="#FFDDCD"/><stop offset=".711" stop-color="#FFCBC6"/><stop offset="1" stop-color="#FFB2A1"/></linearGradient><linearGradient id="paint45_linear_6090_3369" x1="81.501" y1="100.084" x2="47.017" y2="105.343" gradientUnits="userSpaceOnUse"><stop stop-color="#FFDDCD"/><stop offset=".711" stop-color="#FFCBC6"/><stop offset="1" stop-color="#FFB2A1"/></linearGradient><linearGradient id="paint46_linear_6090_3369" x1="81.968" y1="103.142" x2="47.484" y2="108.402" gradientUnits="userSpaceOnUse"><stop stop-color="#FFDDCD"/><stop offset=".711" stop-color="#FFCBC6"/><stop offset="1" stop-color="#FFB2A1"/></linearGradient><linearGradient id="paint47_linear_6090_3369" x1="82.491" y1="106.571" x2="48.007" y2="111.83" gradientUnits="userSpaceOnUse"><stop stop-color="#FFDDCD"/><stop offset=".711" stop-color="#FFCBC6"/><stop offset="1" stop-color="#FFB2A1"/></linearGradient><linearGradient id="paint48_linear_6090_3369" x1="82.869" y1="109.05" x2="48.385" y2="114.309" gradientUnits="userSpaceOnUse"><stop stop-color="#FFDDCD"/><stop offset=".711" stop-color="#FFCBC6"/><stop offset="1" stop-color="#FFB2A1"/></linearGradient><linearGradient id="paint49_linear_6090_3369" x1="28.415" y1="82.293" x2="50.854" y2="105.874" gradientUnits="userSpaceOnUse"><stop stop-color="#5E52CD"/><stop offset=".061" stop-color="#584BC4"/><stop offset=".26" stop-color="#4937AD"/><stop offset=".471" stop-color="#3E299C"/><stop offset=".705" stop-color="#382192"/><stop offset="1" stop-color="#361E8F"/></linearGradient><radialGradient id="paint15_radial_6090_3369" cx="0" cy="0" r="1" gradientUnits="userSpaceOnUse" gradientTransform="matrix(-4.19093 -.42792 .3562 -3.4886 61.526 67.874)"><stop stop-color="#FF9E88" stop-opacity=".8"/><stop offset=".295" stop-color="#FFA28C" stop-opacity=".564"/><stop offset=".607" stop-color="#FFAF98" stop-opacity=".314"/><stop offset=".926" stop-color="#FFC4AC" stop-opacity=".059"/><stop offset="1" stop-color="#FFCAB2" stop-opacity="0"/></radialGradient><radialGradient id="paint16_radial_6090_3369" cx="0" cy="0" r="1" gradientUnits="userSpaceOnUse" gradientTransform="matrix(-4.19093 -.42792 .3562 -3.4886 41.007 65.779)"><stop stop-color="#FF9E88" stop-opacity=".8"/><stop offset=".295" stop-color="#FFA28C" stop-opacity=".564"/><stop offset=".607" stop-color="#FFAF98" stop-opacity=".314"/><stop offset=".926" stop-color="#FFC4AC" stop-opacity=".059"/><stop offset="1" stop-color="#FFCAB2" stop-opacity="0"/></radialGradient><clipPath id="clip0_6090_3369"><path fill="#fff" transform="rotate(1 -51.382 206.87)" d="M0 0h200v166.667H0z"/></clipPath></defs></svg>