<svg width="203" height="172" viewBox="0 0 203 172" fill="none" xmlns="http://www.w3.org/2000/svg"><path d="M120.923 36.75l-19.767-19.09a4.117 4.117 0 00-5.821.102L76.245 37.53c-2.548 2.638-.634 7.04 3.033 6.976l7.47-.13 1.128 64.64a2.242 2.242 0 002.28 2.203l19.436-.339a2.242 2.242 0 002.202-2.281l-1.128-64.641 7.469-.13c3.667-.065 5.426-4.53 2.788-7.078zm72.97 62.155l-19.768-19.09a4.117 4.117 0 00-5.821.102l-19.09 19.768c-2.548 2.638-.634 7.04 3.033 6.976l7.47-.131.807 46.227a2.24 2.24 0 002.28 2.202l19.435-.339a2.243 2.243 0 002.203-2.281l-.807-46.226 7.469-.13c3.668-.064 5.426-4.53 2.789-7.078zM53.866 73.046l-19.767-19.09a4.116 4.116 0 00-5.821.102L9.188 73.826c-2.548 2.638-.634 7.04 3.033 6.976l7.47-.13 1.3 74.52a2.243 2.243 0 002.28 2.203l19.436-.34a2.24 2.24 0 002.202-2.28l-1.3-74.521 7.47-.13c3.666-.065 5.425-4.53 2.787-7.078z" fill="#005CE1"/><path d="M114.8 154.688l-28.421.496a2.695 2.695 0 01-.094-5.388l28.421-.496a2.694 2.694 0 11.094 5.388z" fill="#2F2B7C"/><path d="M69.008 111.587a2.29 2.29 0 01-.33-.018l-.122-.005c-.974-.036-3.94-.145-7.46-1.957-4.304-2.215-7.911-6.12-10.72-11.607a2.277 2.277 0 014.053-2.075c2.366 4.622 5.31 7.863 8.751 9.634 2.618 1.347 4.743 1.426 5.544 1.455.27.01.481.018.73.073a2.277 2.277 0 01-.446 4.5z" fill="#FFD000"/><path d="M104.517 137.304c18.337-.32 32.942-15.444 32.622-33.78-.32-18.337-15.444-32.942-33.781-32.622-18.336.32-32.941 15.445-32.621 33.781.32 18.336 15.444 32.941 33.78 32.621z" fill="#FFAC00"/><path d="M97.426 137.428c18.337-.32 32.942-15.444 32.622-33.78-.32-18.337-15.444-32.942-33.78-32.622-18.337.32-32.942 15.444-32.622 33.781.32 18.336 15.444 32.941 33.78 32.621z" fill="#FFE300"/><path d="M137.43 132.855l-7.168.125-.066-3.813a1.056 1.056 0 011.037-1.074l5.056-.088a1.055 1.055 0 011.074 1.037l.067 3.813z" stroke="#1D1D2A" stroke-width="25.823" stroke-miterlimit="10"/><path d="M143.886 145.925l-18.734.327a1.525 1.525 0 01-1.551-1.498l-.219-12.58a1.523 1.523 0 011.497-1.551l18.735-.327a1.524 1.524 0 011.551 1.497l.219 12.581a1.524 1.524 0 01-1.498 1.551z" fill="url(#paint0_linear_6090_3544)"/><path d="M141.389 131.875a1.525 1.525 0 011.498-1.551l-17.992.314a1.526 1.526 0 00-1.498 1.552l.139 7.946a1.525 1.525 0 001.551 1.498l14.943-.261a1.524 1.524 0 001.497-1.551l-.138-7.947z" fill="#1E1E2A"/><path d="M143.887 145.941l-.743.013a1.525 1.525 0 01-1.551-1.498l-.22-12.58a1.525 1.525 0 011.498-1.551l.743-.013a1.524 1.524 0 011.551 1.498l.22 12.58a1.525 1.525 0 01-1.498 1.551z" fill="#0C0C11"/><path d="M133.479 142.423l-2.287.04a.212.212 0 01-.216-.208l-.025-1.451a.211.211 0 01.208-.215l2.287-.04a.212.212 0 01.216.208l.025 1.45a.213.213 0 01-.208.216z" fill="#464564"/><path d="M133.769 129.585a2.248 2.248 0 01-2.287-2.208l-.325-18.634a2.247 2.247 0 114.494-.078l.326 18.633a2.248 2.248 0 01-2.208 2.287z" fill="#FFD000"/><path d="M106.75 149.438a2.715 2.715 0 01-2.762-2.668l-.237-13.575a2.715 2.715 0 115.43-.095l.237 13.575a2.716 2.716 0 01-2.668 2.763zm-14.396.251a2.715 2.715 0 01-2.763-2.667l-.236-13.576a2.715 2.715 0 015.43-.095l.236 13.576a2.715 2.715 0 01-2.667 2.762z" fill="#FFE300"/><path d="M68.026 120.727a33.35 33.35 0 0013.338 12.88l44.305-45.879a33.354 33.354 0 00-13.338-12.88l-44.305 45.879z" fill="#FFEB7D"/><path d="M97.282 129.123c13.749-.24 24.701-11.581 24.461-25.33-.24-13.75-11.581-24.702-25.33-24.462-13.75.24-24.701 11.581-24.461 25.331.24 13.749 11.58 24.701 25.33 24.461z" fill="#FFD000"/><path d="M105.847 104.408a1.34 1.34 0 011.354 1.488c-.642 5.448-5.228 9.719-10.865 9.817-5.637.098-10.37-4.01-11.2-9.432a1.34 1.34 0 011.3-1.534l19.411-.339z" fill="#920101"/><path d="M96.335 115.712c4.275-.074 7.94-2.55 9.745-6.117a15.105 15.105 0 00-5.261-.841c-4.61.081-8.594 2.155-10.716 5.169a11.07 11.07 0 006.233 1.789z" fill="#FD0043"/><path d="M87.611 101.609a2.106 2.106 0 01-2.142-2.069l-.02-1.145a2.105 2.105 0 014.21-.073l.02 1.145a2.105 2.105 0 01-2.068 2.142z" fill="url(#paint1_linear_6090_3544)"/><path d="M104.228 101.319a2.105 2.105 0 01-2.141-2.069l-.02-1.145a2.105 2.105 0 114.21-.074l.02 1.146a2.106 2.106 0 01-2.069 2.142z" fill="url(#paint2_linear_6090_3544)"/><defs><linearGradient id="paint0_linear_6090_3544" x1="134.409" y1="139.809" x2="134.517" y2="145.957" gradientUnits="userSpaceOnUse"><stop stop-color="#0C0C11"/><stop offset=".018" stop-color="#0C0C12"/><stop offset=".482" stop-color="#13131C"/><stop offset="1" stop-color="#151520"/></linearGradient><linearGradient id="paint1_linear_6090_3544" x1="87.528" y1="96.848" x2="87.624" y2="102.361" gradientUnits="userSpaceOnUse"><stop stop-color="#414042"/><stop offset=".1" stop-color="#313032"/><stop offset=".277" stop-color="#1B1B1C"/><stop offset=".47" stop-color="#0C0C0C"/><stop offset=".691" stop-color="#030303"/><stop offset="1"/></linearGradient><linearGradient id="paint2_linear_6090_3544" x1="104.145" y1="96.558" x2="104.241" y2="102.071" gradientUnits="userSpaceOnUse"><stop stop-color="#414042"/><stop offset=".1" stop-color="#313032"/><stop offset=".277" stop-color="#1B1B1C"/><stop offset=".47" stop-color="#0C0C0C"/><stop offset=".691" stop-color="#030303"/><stop offset="1"/></linearGradient></defs></svg>