<svg width="204" height="172" viewBox="0 0 204 172" fill="none" xmlns="http://www.w3.org/2000/svg"><path opacity=".2" d="M100.498 161.79c41.043.717 74.895-31.974 75.611-73.017.717-41.042-31.974-74.894-73.016-75.61-41.043-.717-74.895 31.974-75.612 73.016-.716 41.043 31.975 74.895 73.017 75.611z" fill="url(#paint0_linear_6090_3580)"/><path d="M104.667 125.305c21.424.374 39.094-16.69 39.468-38.114.374-21.423-16.69-39.094-38.114-39.468-21.423-.374-39.093 16.69-39.467 38.114-.374 21.424 16.69 39.094 38.113 39.468z" fill="#FF8D00"/><path d="M104.843 139.485a3.084 3.084 0 01-3.03-3.138l.325-18.633a3.085 3.085 0 116.168.107l-.325 18.634a3.085 3.085 0 01-3.138 3.03zm-13.681-.238a3.085 3.085 0 01-3.03-3.138l.325-18.634a3.085 3.085 0 016.169.107l-.326 18.634a3.085 3.085 0 01-3.138 3.031zM65.504 96.043c1.574.06 2.656 1.616 2.154 3.11l-.017.049a15.779 15.779 0 01-2.196 4.188c-1.514 2.08-3.542 3.877-6.026 5.343-2.962 1.748-6.594 3.027-10.794 3.802-1.448.268-2.888-.631-3.199-2.07a2.7 2.7 0 012.153-3.227c10.753-1.966 13.956-6.972 14.906-9.616a2.413 2.413 0 012.362-1.605l.657.026zm89.439 17.43a15.762 15.762 0 01-4.66-.81c-3.752-1.237-9.207-4.546-13.887-13.283a2.7 2.7 0 014.758-2.55c3.039 5.672 6.78 9.374 10.82 10.706 2.689.887 4.563.423 4.581.418a2.7 2.7 0 011.488 5.19c-.2.058-1.343.36-3.1.329z" fill="#FFD400"/><path d="M96.384 125.138c21.423.374 39.093-16.69 39.467-38.113.374-21.424-16.69-39.094-38.113-39.468-21.424-.374-39.094 16.69-39.468 38.113-.374 21.424 16.69 39.094 38.114 39.468z" fill="#FFE700"/><path d="M62.687 104.348a38.968 38.968 0 0015.008 15.623l53.74-51.624a38.969 38.969 0 00-15.007-15.623l-53.74 51.624z" fill="#FFEE72"/><path d="M96.553 115.434c16.064.281 29.314-12.515 29.595-28.579.28-16.064-12.515-29.314-28.58-29.594-16.064-.28-29.314 12.514-29.594 28.579-.28 16.064 12.515 29.314 28.579 29.594z" fill="#FFCE00"/><path d="M107.56 86.953c.94.019 1.661.867 1.516 1.796-.989 6.333-6.53 11.118-13.116 10.985-6.586-.132-11.931-5.136-12.665-11.503a1.565 1.565 0 011.587-1.733l22.678.455z" fill="#E10000"/><path d="M95.96 99.734c4.993.1 9.382-2.63 11.645-6.714a17.617 17.617 0 00-6.105-1.212c-5.387-.108-10.129 2.14-12.737 5.565a12.937 12.937 0 007.197 2.361z" fill="#FF0021"/><path d="M86.392 82.885a2.46 2.46 0 01-2.41-2.509l.027-1.338a2.46 2.46 0 114.919.1l-.027 1.337a2.46 2.46 0 01-2.509 2.41z" fill="url(#paint1_linear_6090_3580)"/><path d="M105.805 83.276a2.46 2.46 0 01-2.41-2.51l.027-1.337a2.459 2.459 0 114.919.099l-.027 1.338a2.46 2.46 0 01-2.509 2.41z" fill="url(#paint2_linear_6090_3580)"/><path opacity=".8" d="M70.768 87.81c.323-16.063 13.606-28.824 29.67-28.501a28.952 28.952 0 0115.168 4.625 28.967 28.967 0 00-17.961-6.672C81.58 56.939 68.297 69.7 67.975 85.763c-.21 10.469 5.137 19.755 13.333 25.045-6.594-5.464-10.725-13.772-10.54-22.998z" fill="#FF9F00"/><path d="M100.463 163.842c-10.309-.18-20.275-2.374-29.621-6.521-9.027-4.004-17.097-9.653-23.987-16.788a76.132 76.132 0 01-15.942-24.559c-3.818-9.485-5.663-19.522-5.483-29.83.18-10.308 2.375-20.274 6.521-29.62A76.089 76.089 0 0148.74 32.536a76.113 76.113 0 0124.558-15.941c9.486-3.819 19.522-5.663 29.83-5.483 10.309.18 20.275 2.374 29.621 6.52 9.027 4.005 17.097 9.654 23.988 16.79a76.122 76.122 0 0115.941 24.558c3.818 9.485 5.662 19.521 5.483 29.83-.18 10.308-2.375 20.274-6.521 29.621a76.119 76.119 0 01-16.789 23.987 76.098 76.098 0 01-24.558 15.941c-9.486 3.818-19.522 5.663-29.83 5.483zm2.594-148.629c-9.757-.17-19.253 1.575-28.227 5.187a72.035 72.035 0 00-23.24 15.087 72.036 72.036 0 00-15.889 22.7c-3.923 8.841-5.998 18.272-6.169 28.029-.17 9.756 1.575 19.253 5.187 28.226a72.022 72.022 0 0015.087 23.241 72.043 72.043 0 0022.7 15.889c8.842 3.923 18.272 5.998 28.029 6.169 9.756.17 19.253-1.575 28.227-5.187a72.021 72.021 0 0023.24-15.087 72.037 72.037 0 0015.889-22.7c3.923-8.842 5.999-18.272 6.169-28.029.17-9.756-1.575-19.253-5.187-28.227a72.028 72.028 0 00-15.087-23.24 72.036 72.036 0 00-22.7-15.889c-8.843-3.923-18.273-5.998-28.029-6.169z" fill="url(#paint3_linear_6090_3580)"/><path d="M53.846 53.205a2.564 2.564 0 01-1.984-4.129 62.954 62.954 0 0118.484-16.185 2.564 2.564 0 112.564 4.44 57.847 57.847 0 00-16.986 14.875 2.56 2.56 0 01-2.078.999zm-5.016 7.643a2.564 2.564 0 01-2.197-3.805c.3-.543.613-1.089.93-1.623a2.564 2.564 0 014.412 2.614c-.29.49-.577.991-.853 1.49a2.566 2.566 0 01-2.292 1.324z" fill="#fff"/><path d="M175.884 37.12l-15.349-.267-2.51-.044-.607 34.75c.087.016.172.031.261.045 6.404-.77 13.83-3.535 16.111-6.466 2.16-2.777 3.292-7.218 3.353-10.736l.274-15.693a1.561 1.561 0 00-1.533-1.588z" fill="#005CE1"/><path d="M158.024 36.81l-14-.245a1.56 1.56 0 00-1.588 1.533l-.274 15.694c-.061 3.518.915 7.995 2.977 10.846 2.178 3.009 5.905 5.968 12.278 6.961 6.405-.77 10.233-3.597 12.513-6.528 2.161-2.778 3.293-7.218 3.354-10.736l.274-15.694a1.56 1.56 0 00-1.533-1.587l-14.001-.245z" fill="#00B1FA"/><path d="M157.946 41.327l-10.258-.179a1.144 1.144 0 00-1.163 1.123l-.201 11.499c-.045 2.577.665 6.123 2.176 8.211 1.595 2.205 4.327 4.373 8.996 5.1 4.692-.563 7.497-2.635 9.168-4.783 1.583-2.034 2.417-5.553 2.462-8.13l.201-11.499a1.144 1.144 0 00-1.124-1.163l-10.257-.179z" fill="#005CE1"/><path d="M152.983 50.63l3.351 3.47a.35.35 0 00.494.009l6.934-6.697a.349.349 0 01.493.009l1.881 1.947a.35.35 0 01-.009.493l-9.384 9.063a.349.349 0 01-.493-.01l-5.717-5.918a.35.35 0 01.009-.494l1.947-1.88a.35.35 0 01.494.008z" fill="#6BC1F5"/><defs><linearGradient id="paint0_linear_6090_3580" x1="51.03" y1="34.908" x2="149.907" y2="137.298" gradientUnits="userSpaceOnUse"><stop stop-color="#00F4F0"/><stop offset="1" stop-color="#00DACD" stop-opacity=".2"/></linearGradient><linearGradient id="paint1_linear_6090_3580" x1="86.504" y1="77.323" x2="86.374" y2="83.764" gradientUnits="userSpaceOnUse"><stop stop-color="#3B393C"/><stop offset=".067" stop-color="#312F32"/><stop offset=".25" stop-color="#1B1A1C"/><stop offset=".451" stop-color="#0C0C0C"/><stop offset=".68" stop-color="#030303"/><stop offset="1"/></linearGradient><linearGradient id="paint2_linear_6090_3580" x1="105.917" y1="77.713" x2="105.787" y2="84.154" gradientUnits="userSpaceOnUse"><stop stop-color="#3B393C"/><stop offset=".067" stop-color="#312F32"/><stop offset=".25" stop-color="#1B1A1C"/><stop offset=".451" stop-color="#0C0C0C"/><stop offset=".68" stop-color="#030303"/><stop offset="1"/></linearGradient><linearGradient id="paint3_linear_6090_3580" x1="156.736" y1="34.421" x2="46.855" y2="140.532" gradientUnits="userSpaceOnUse"><stop stop-color="#fff"/><stop offset="1" stop-color="#fff" stop-opacity=".4"/></linearGradient></defs></svg>