<svg width="469" height="299" viewBox="0 0 469 299" fill="none" xmlns="http://www.w3.org/2000/svg"><path d="M394.591 179.147H157.969a6.115 6.115 0 01-6.118-6.11V6.494c0-3.374 2.74-6.11 6.118-6.11h236.622a6.114 6.114 0 016.118 6.11v166.543a6.114 6.114 0 01-6.118 6.11z" fill="#005CE1"/><path d="M230.396 40.63H174.45a2.567 2.567 0 01-2.568-2.565V18.278a2.567 2.567 0 012.568-2.565h55.946a2.568 2.568 0 012.569 2.565v19.785a2.568 2.568 0 01-2.569 2.567z" fill="#0090FC"/><path d="M183.491 34.764a6.598 6.598 0 006.602-6.594 6.598 6.598 0 00-6.602-6.593 6.598 6.598 0 00-6.602 6.593 6.598 6.598 0 006.602 6.594zm41.485-8.475h-27.165a1.343 1.343 0 01-1.344-1.341c0-.74.602-1.342 1.344-1.342h27.165a1.342 1.342 0 110 2.683zm-16.315 6.446h-10.85a1.343 1.343 0 01-1.344-1.342c0-.74.602-1.341 1.344-1.341h10.85c.741 0 1.343.601 1.343 1.341s-.602 1.342-1.343 1.342z" fill="#8EC3FC"/><path d="M230.396 73.885H174.45a2.567 2.567 0 01-2.568-2.565V51.532a2.567 2.567 0 012.568-2.565h55.946a2.568 2.568 0 012.569 2.565v19.786a2.568 2.568 0 01-2.569 2.567z" fill="#0090FC"/><path d="M183.491 68.02a6.598 6.598 0 006.602-6.593 6.598 6.598 0 00-6.602-6.593 6.598 6.598 0 00-6.602 6.593 6.598 6.598 0 006.602 6.593zm27.064-8.475h-12.744a1.343 1.343 0 01-1.344-1.341c0-.74.602-1.342 1.344-1.342h12.744c.741 0 1.343.602 1.343 1.342a1.344 1.344 0 01-1.343 1.341zm14.421 6.445h-27.165a1.343 1.343 0 01-1.344-1.342c0-.74.602-1.342 1.344-1.342h27.165a1.342 1.342 0 110 2.683z" fill="#8EC3FC"/><path d="M230.396 107.139H174.45a2.567 2.567 0 01-2.568-2.565V84.789a2.567 2.567 0 012.568-2.565h55.946a2.568 2.568 0 012.569 2.565v19.785a2.568 2.568 0 01-2.569 2.565z" fill="#0090FC"/><path d="M183.491 101.274a6.597 6.597 0 006.602-6.593 6.598 6.598 0 00-6.602-6.593 6.598 6.598 0 00-6.602 6.593 6.597 6.597 0 006.602 6.593zm37.406-8.474h-23.086a1.343 1.343 0 01-1.344-1.342c0-.74.602-1.341 1.344-1.341h23.086a1.342 1.342 0 110 2.683zm-12.236 6.446h-10.85a1.343 1.343 0 01-1.344-1.342c0-.74.602-1.341 1.344-1.341h10.85a1.342 1.342 0 110 2.683z" fill="#8EC3FC"/><path d="M258.171 67.026h-.228a5.298 5.298 0 00-5.302 5.295v24.16a5.298 5.298 0 005.302 5.294h.228a5.298 5.298 0 005.302-5.294V72.323a5.298 5.298 0 00-5.302-5.297zm22.849 7.97h-.229a5.299 5.299 0 00-5.302 5.295v16.192a5.298 5.298 0 005.302 5.294h.229a5.298 5.298 0 005.302-5.294V80.29a5.296 5.296 0 00-5.302-5.295zm22.848-34.216h-.228a5.299 5.299 0 00-5.302 5.294v50.407a5.298 5.298 0 005.302 5.294h.228a5.298 5.298 0 005.302-5.294V46.075a5.296 5.296 0 00-5.302-5.296zm22.849 20.248h-.228a5.299 5.299 0 00-5.302 5.295v30.158a5.298 5.298 0 005.302 5.294h.228a5.298 5.298 0 005.302-5.294V66.323a5.295 5.295 0 00-5.302-5.295zm22.849-17.593h-.228a5.298 5.298 0 00-5.302 5.295v47.75a5.298 5.298 0 005.302 5.295h.228a5.298 5.298 0 005.302-5.294V48.73a5.298 5.298 0 00-5.302-5.296zm22.849-21.858h-.229a5.299 5.299 0 00-5.302 5.295V96.48a5.298 5.298 0 005.302 5.295h.229a5.298 5.298 0 005.302-5.295V26.874a5.298 5.298 0 00-5.302-5.297z" fill="#fff"/><path d="M268.592 134.572h-46.067a2.673 2.673 0 110-5.346h46.067a2.674 2.674 0 110 5.346zm59.801 0h-46.067a2.674 2.674 0 110-5.346h46.067a2.673 2.673 0 110 5.346zm-44.213 14.056h-61.655a2.673 2.673 0 110-5.346h61.655a2.674 2.674 0 110 5.346zm-31.911 14.057h-29.744a2.673 2.673 0 110-5.346h29.744a2.674 2.674 0 110 5.346zm68.055 0h-55.547a2.673 2.673 0 110-5.346h55.547a2.673 2.673 0 110 5.346z" opacity=".6" fill="#5593EF"/><path d="M431.834 197.726H312.768a5.667 5.667 0 01-5.672-5.664v-75.429a5.667 5.667 0 015.672-5.664h119.066a5.667 5.667 0 015.672 5.664v75.429a5.667 5.667 0 01-5.672 5.664z" fill="#fff"/><path d="M352.213 123.444v11.434c10.312 0 18.751 7.994 19.451 18.113h11.465c-.712-16.439-14.28-29.547-30.916-29.547z" fill="#FFDB00"/><path d="M332.716 154.35c0-10.755 8.73-19.472 19.498-19.472v-11.434c-17.093 0-30.948 13.836-30.948 30.906 0 10.69 5.436 20.111 13.696 25.661l6.504-9.413c-5.273-3.486-8.75-9.463-8.75-16.248z" fill="#0090FC"/><path d="M383.161 154.35c0-.456-.012-.908-.031-1.36h-11.466c.031.45.047.902.047 1.36 0 10.754-8.73 19.471-19.497 19.471a19.43 19.43 0 01-10.748-3.225l-6.504 9.413a30.824 30.824 0 0017.252 5.244c17.092.002 30.947-13.836 30.947-30.903z" fill="#005CE1"/><path d="M393.901 127.678h6.498c.724 0 1.31.586 1.31 1.308v6.49c0 .722-.586 1.308-1.31 1.308h-6.498c-.724 0-1.31-.586-1.31-1.308v-6.49c0-.72.586-1.308 1.31-1.308z" fill="#0090FC"/><path d="M424.412 130.811h-18.603a1.453 1.453 0 110-2.907h18.603a1.454 1.454 0 110 2.907zm-5.587 5.975h-13.018a1.454 1.454 0 110-2.907h13.018a1.453 1.453 0 110 2.907z" fill="#D0D9E8"/><path d="M393.901 149.795h6.498c.724 0 1.31.585 1.31 1.308v6.489c0 .723-.586 1.308-1.31 1.308h-6.498c-.724 0-1.31-.585-1.31-1.308v-6.489c0-.723.586-1.308 1.31-1.308z" fill="#FFDB00"/><path d="M424.412 152.928h-18.603a1.454 1.454 0 110-2.907h18.603a1.453 1.453 0 110 2.907zm-7.45 5.974h-11.155a1.453 1.453 0 110-2.906h11.155a1.454 1.454 0 110 2.906z" fill="#D0D9E8"/><path d="M393.901 171.912h6.498c.724 0 1.31.585 1.31 1.308v6.489c0 .722-.586 1.308-1.31 1.308h-6.498c-.724 0-1.31-.586-1.31-1.308v-6.489c0-.723.586-1.308 1.31-1.308z" fill="#005CE1"/><path d="M420.687 175.044h-14.88a1.453 1.453 0 110-2.907h14.88a1.454 1.454 0 110 2.907zm3.725 5.975h-18.603a1.454 1.454 0 110-2.907h18.603a1.453 1.453 0 110 2.907z" fill="#D0D9E8"/><path d="M106.565 274.613a6.615 6.615 0 01-6.62-6.611V226.03a6.615 6.615 0 016.62-6.611 6.615 6.615 0 016.62 6.611v41.972a6.616 6.616 0 01-6.62 6.611zm29.359 0a6.615 6.615 0 01-6.62-6.611V226.03a6.614 6.614 0 016.62-6.611 6.614 6.614 0 016.619 6.611v41.972a6.615 6.615 0 01-6.619 6.611z" fill="#FFBA00"/><path d="M109.641 242.201c45.976 0 83.247-37.22 83.247-83.134s-37.271-83.134-83.247-83.134-83.247 37.22-83.247 83.134 37.271 83.134 83.247 83.134z" fill="#FF8E00"/><path d="M199.781 179.836c-.24 0-.476 0-.718-.002a5.786 5.786 0 01-5.752-5.823c.021-3.193 2.627-5.762 5.831-5.745 9.784.067 23.507-1.427 33.355-8.91 5.229-3.975 6.914-7.785 6.93-7.821a5.796 5.796 0 017.525-3.231 5.783 5.783 0 013.235 7.515c-.396.986-10.066 24.017-50.406 24.017z" fill="#FFCB00"/><path d="M127.419 242.154c45.976 0 83.247-37.22 83.247-83.134s-37.271-83.134-83.247-83.134-83.247 37.22-83.247 83.134 37.271 83.134 83.247 83.134z" fill="#FFDB00"/><path d="M200.491 198.871a83.559 83.559 0 01-32.782 32.911L54.349 119.17A83.569 83.569 0 0187.13 86.26l113.36 112.61z" fill="#FFE711"/><path d="M127.42 221.357c34.474 0 62.422-27.909 62.422-62.337 0-34.428-27.948-62.337-62.422-62.337-34.475 0-62.422 27.909-62.422 62.337 0 34.428 27.947 62.337 62.422 62.337z" fill="#FFC700"/><path d="M104.869 159.925c-2.017.006-3.595 1.795-3.317 3.791 1.884 13.604 13.593 24.063 27.728 24.027 14.134-.037 25.789-10.558 27.6-24.173.265-1.997-1.32-3.778-3.337-3.772l-48.674.127z" fill="#EC0000"/><path d="M129.28 187.741c-10.719.028-20.031-5.984-24.733-14.822 4-1.493 8.441-2.357 13.143-2.369 11.562-.031 21.651 4.963 27.12 12.401a27.775 27.775 0 01-15.53 4.79z" fill="#FF0028"/><path d="M150.437 152.003a5.276 5.276 0 005.265-5.286l-.008-2.867a5.275 5.275 0 00-5.292-5.258 5.276 5.276 0 00-5.265 5.285l.008 2.868a5.277 5.277 0 005.292 5.258z" fill="url(#paint0_linear_6106_7776)"/><path d="M108.773 152.113a5.276 5.276 0 005.265-5.286l-.008-2.867a5.276 5.276 0 00-5.292-5.258 5.276 5.276 0 00-5.265 5.286l.008 2.867a5.277 5.277 0 005.292 5.258z" fill="url(#paint1_linear_6106_7776)"/><path d="M9.205 224.525a5.79 5.79 0 01-5.097-3.03 5.778 5.778 0 012.334-7.841c19.244-10.411 25.055-37.473 25.112-37.744a5.797 5.797 0 016.838-4.497 5.78 5.78 0 014.51 6.817c-.27 1.323-6.897 32.586-30.942 45.596a5.804 5.804 0 01-2.755.699z" fill="#FFCB00"/><path opacity=".8" d="M183.772 163.136c-.09-34.426-28.111-62.262-62.587-62.172-12.008.032-23.212 3.451-32.715 9.343a62.206 62.206 0 0138.782-13.624c34.474-.09 62.495 27.745 62.588 62.172.059 22.437-11.761 42.134-29.542 53.16 14.351-11.458 23.528-29.103 23.474-48.879z" fill="#FFA100"/><path d="M46.216 113.785H16.112c-8.783 0-15.903-7.11-15.903-15.88 0-8.772 7.12-15.882 15.903-15.882h14.203c8.783 0 15.903 7.11 15.903 15.881v15.881h-.002z" fill="#fff"/><path d="M12.503 100.465a2.1 2.1 0 002.103-2.1 2.1 2.1 0 00-2.103-2.099 2.1 2.1 0 00-2.102 2.1 2.1 2.1 0 002.102 2.099zm10.296 0a2.1 2.1 0 002.102-2.1 2.1 2.1 0 00-2.102-2.099 2.1 2.1 0 100 4.199zm10.295 0a2.1 2.1 0 002.102-2.1 2.1 2.1 0 00-2.102-2.099 2.1 2.1 0 100 4.199z" fill="#7B8EBC"/><path d="M155 281.033H89.12a3.818 3.818 0 01-3.82-3.816 3.82 3.82 0 013.82-3.816H155a3.819 3.819 0 013.821 3.816 3.818 3.818 0 01-3.821 3.816z" fill="#000" fill-opacity=".1"/><path d="M260.368 281.049c16.877 0 30.558-13.663 30.558-30.516 0-16.854-13.681-30.517-30.558-30.517-16.877 0-30.558 13.663-30.558 30.517 0 16.853 13.681 30.516 30.558 30.516z" fill="#FF8E00"/><path d="M261.497 292.201a2.43 2.43 0 01-2.431-2.426v-14.659a2.429 2.429 0 012.431-2.426 2.429 2.429 0 012.431 2.426v14.659a2.428 2.428 0 01-2.431 2.426zm-10.777 0a2.43 2.43 0 01-2.431-2.426v-14.659a2.429 2.429 0 012.431-2.426 2.429 2.429 0 012.431 2.426v14.659a2.428 2.428 0 01-2.431 2.426zm-24.882-14.858a2.123 2.123 0 01-2.119-1.97c-.011-.157-.257-3.894 1.076-8.523 1.784-6.195 5.562-11.095 10.925-14.175a2.13 2.13 0 012.903.782 2.122 2.122 0 01-.783 2.899c-4.407 2.532-7.408 6.41-8.917 11.529-1.158 3.932-.963 7.16-.959 7.192a2.127 2.127 0 01-2.126 2.266zm67.454.884c-.031 0-.063 0-.094-.002a2.126 2.126 0 01-2.032-2.212c.004-.1.339-10.151-5.744-14.427a2.123 2.123 0 112.446-3.472c7.997 5.623 7.566 17.575 7.544 18.082a2.12 2.12 0 01-2.12 2.031z" fill="#FFCB00"/><path d="M253.843 281.034c16.876 0 30.558-13.663 30.558-30.517S270.719 220 253.843 220c-16.877 0-30.558 13.663-30.558 30.517s13.681 30.517 30.558 30.517z" fill="#FFDB00"/><path d="M227.02 265.145a30.66 30.66 0 0012.034 12.08l41.612-41.338a30.683 30.683 0 00-12.034-12.081l-41.612 41.339z" fill="#FFE711"/><path d="M253.843 273.399c12.655 0 22.913-10.244 22.913-22.882 0-12.638-10.258-22.883-22.913-22.883-12.655 0-22.914 10.245-22.914 22.883s10.259 22.882 22.914 22.882z" fill="#FFC700"/><path d="M262.12 250.849a1.23 1.23 0 011.218 1.392 10.249 10.249 0 01-10.18 8.821 10.246 10.246 0 01-10.132-8.874 1.23 1.23 0 011.225-1.384l17.869.045z" fill="#EC0000"/><path d="M253.158 261.06a10.248 10.248 0 009.079-5.441c-1.47-.548-3.1-.864-4.825-.87-4.244-.011-7.947 1.821-9.955 4.553a10.206 10.206 0 005.701 1.758z" fill="#FF0028"/><path d="M245.392 247.94a1.939 1.939 0 01-1.934-1.94l.002-1.053a1.939 1.939 0 013.877.01l-.002 1.052a1.936 1.936 0 01-1.943 1.931z" fill="url(#paint2_linear_6106_7776)"/><path d="M260.687 247.979a1.938 1.938 0 01-1.934-1.94l.002-1.053a1.938 1.938 0 013.877.01l-.002 1.053a1.936 1.936 0 01-1.943 1.93z" fill="url(#paint3_linear_6106_7776)"/><path opacity=".8" d="M233.156 252.027c.033-12.638 10.319-22.857 22.974-22.823a22.82 22.82 0 0112.009 3.429 22.833 22.833 0 00-14.237-5.001c-12.656-.033-22.941 10.186-22.975 22.824-.021 8.237 4.317 15.467 10.845 19.514-5.267-4.207-8.634-10.684-8.616-17.943z" fill="#FFA100"/><path d="M269.472 298.248h-26.981a2.946 2.946 0 01-2.948-2.944 2.946 2.946 0 012.948-2.944h26.981a2.946 2.946 0 012.948 2.944 2.949 2.949 0 01-2.948 2.944z" fill="#000" fill-opacity=".1"/><path d="M344.274 281.049c16.877 0 30.558-13.663 30.558-30.516 0-16.854-13.681-30.517-30.558-30.517-16.877 0-30.558 13.663-30.558 30.517 0 16.853 13.681 30.516 30.558 30.516z" fill="#FF8E00"/><path d="M345.403 292.201a2.43 2.43 0 01-2.431-2.426v-14.659a2.429 2.429 0 012.431-2.426 2.429 2.429 0 012.431 2.426v14.659a2.43 2.43 0 01-2.431 2.426zm-10.777 0a2.429 2.429 0 01-2.431-2.426v-14.659a2.428 2.428 0 012.431-2.426 2.428 2.428 0 012.43 2.426v14.659a2.429 2.429 0 01-2.43 2.426zm-24.883-14.858a2.122 2.122 0 01-2.118-1.97c-.012-.157-.257-3.894 1.076-8.523 1.784-6.195 5.562-11.095 10.925-14.175a2.13 2.13 0 012.903.782 2.122 2.122 0 01-.783 2.899c-4.407 2.532-7.409 6.41-8.917 11.529-1.158 3.932-.964 7.16-.96 7.192a2.126 2.126 0 01-2.126 2.266zm61.346-19.29a2.124 2.124 0 01-.24-4.233c.406-.049 9.558-1.241 14.351-10.258a2.128 2.128 0 012.875-.879 2.122 2.122 0 01.882 2.871c-5.875 11.053-17.15 12.434-17.628 12.487-.08.008-.161.012-.24.012z" fill="#FFCB00"/><path d="M337.747 281.034c16.876 0 30.558-13.663 30.558-30.517S354.623 220 337.747 220c-16.877 0-30.559 13.663-30.559 30.517s13.682 30.517 30.559 30.517z" fill="#FFDB00"/><path d="M310.923 265.145a30.674 30.674 0 0012.034 12.08l41.613-41.338a30.683 30.683 0 00-12.034-12.081l-41.613 41.339z" fill="#FFE711"/><path d="M337.747 273.399c12.654 0 22.913-10.244 22.913-22.882 0-12.638-10.259-22.883-22.913-22.883-12.655 0-22.914 10.245-22.914 22.883s10.259 22.882 22.914 22.882z" fill="#FFC700"/><path d="M346.024 250.849a1.23 1.23 0 011.218 1.392 10.249 10.249 0 01-10.18 8.821 10.246 10.246 0 01-10.132-8.874 1.23 1.23 0 011.225-1.384l17.869.045z" fill="#EC0000"/><path d="M337.064 261.06a10.247 10.247 0 009.078-5.441 13.938 13.938 0 00-4.824-.87c-4.244-.011-7.947 1.821-9.955 4.553a10.206 10.206 0 005.701 1.758z" fill="#FF0028"/><path d="M329.297 247.94a1.938 1.938 0 01-1.933-1.94l.002-1.053a1.938 1.938 0 013.877.01l-.002 1.052a1.94 1.94 0 01-1.944 1.931z" fill="url(#paint4_linear_6106_7776)"/><path d="M344.592 247.979a1.938 1.938 0 01-1.933-1.94l.002-1.053a1.937 1.937 0 013.876.01l-.002 1.053a1.935 1.935 0 01-1.943 1.93z" fill="url(#paint5_linear_6106_7776)"/><path opacity=".8" d="M317.061 252.027c.034-12.638 10.319-22.857 22.975-22.823a22.817 22.817 0 0112.008 3.429 22.83 22.83 0 00-14.236-5.001c-12.656-.033-22.941 10.186-22.975 22.824-.022 8.237 4.317 15.467 10.844 19.514-5.266-4.207-8.635-10.684-8.616-17.943z" fill="#FFA100"/><path d="M353.381 298.248h-26.98a2.945 2.945 0 01-2.948-2.944 2.945 2.945 0 012.948-2.944h26.98a2.945 2.945 0 012.948 2.944 2.945 2.945 0 01-2.948 2.944z" fill="#000" fill-opacity=".1"/><path d="M433.714 281.049c16.877 0 30.558-13.663 30.558-30.516 0-16.854-13.681-30.517-30.558-30.517-16.877 0-30.558 13.663-30.558 30.517 0 16.853 13.681 30.516 30.558 30.516z" fill="#FF8E00"/><path d="M434.842 292.201a2.429 2.429 0 01-2.43-2.426v-14.659a2.428 2.428 0 012.43-2.426 2.428 2.428 0 012.431 2.426v14.659a2.428 2.428 0 01-2.431 2.426zm-10.777 0a2.43 2.43 0 01-2.431-2.426v-14.659a2.429 2.429 0 012.431-2.426 2.429 2.429 0 012.431 2.426v14.659a2.428 2.428 0 01-2.431 2.426zm-24.882-14.858a2.122 2.122 0 01-2.118-1.97c-.012-.157-.257-3.894 1.076-8.523 1.784-6.195 5.562-11.095 10.925-14.175a2.13 2.13 0 012.903.782 2.122 2.122 0 01-.783 2.899c-4.407 2.532-7.409 6.41-8.917 11.529-1.158 3.932-.964 7.16-.96 7.192a2.126 2.126 0 01-2.126 2.266zm67.455.884c-.032 0-.063 0-.094-.002a2.125 2.125 0 01-2.032-2.212c.006-.159.321-10.163-5.745-14.427a2.124 2.124 0 112.447-3.472c7.996 5.623 7.566 17.575 7.544 18.082a2.12 2.12 0 01-2.12 2.031z" fill="#FFCB00"/><path d="M427.188 281.034c16.877 0 30.559-13.663 30.559-30.517S444.065 220 427.188 220c-16.876 0-30.558 13.663-30.558 30.517s13.682 30.517 30.558 30.517z" fill="#FFDB00"/><path d="M400.365 265.145a30.674 30.674 0 0012.034 12.08l41.613-41.338a30.683 30.683 0 00-12.034-12.081l-41.613 41.339z" fill="#FFE711"/><path d="M427.189 273.399c12.654 0 22.913-10.244 22.913-22.882 0-12.638-10.259-22.883-22.913-22.883-12.655 0-22.914 10.245-22.914 22.883s10.259 22.882 22.914 22.882z" fill="#FFC700"/><path d="M435.466 250.849c.742.002 1.32.658 1.217 1.392a10.247 10.247 0 01-10.179 8.821c-5.188-.014-9.468-3.875-10.132-8.874a1.23 1.23 0 011.225-1.384l17.869.045z" fill="#EC0000"/><path d="M426.504 261.06a10.246 10.246 0 009.078-5.441 13.938 13.938 0 00-4.824-.87c-4.244-.011-7.947 1.821-9.955 4.553a10.206 10.206 0 005.701 1.758z" fill="#FF0028"/><path d="M418.737 247.94a1.938 1.938 0 01-1.933-1.94l.002-1.053a1.938 1.938 0 013.876.01l-.002 1.052a1.935 1.935 0 01-1.943 1.931z" fill="url(#paint6_linear_6106_7776)"/><path d="M434.032 247.979a1.938 1.938 0 01-1.933-1.94l.002-1.053a1.937 1.937 0 013.876.01l-.002 1.053a1.935 1.935 0 01-1.943 1.93z" fill="url(#paint7_linear_6106_7776)"/><path opacity=".8" d="M406.501 252.027c.033-12.638 10.319-22.857 22.974-22.823a22.818 22.818 0 0112.009 3.429 22.833 22.833 0 00-14.237-5.001c-12.655-.033-22.941 10.186-22.974 22.824-.022 8.237 4.316 15.467 10.844 19.514-5.267-4.207-8.634-10.684-8.616-17.943z" fill="#FFA100"/><path d="M443.175 298.248h-26.98a2.945 2.945 0 01-2.948-2.944 2.945 2.945 0 012.948-2.944h26.98a2.945 2.945 0 012.948 2.944 2.945 2.945 0 01-2.948 2.944z" fill="#000" fill-opacity=".1"/><defs><linearGradient id="paint0_linear_6106_7776" x1="150.406" y1="140.08" x2="150.442" y2="153.884" gradientUnits="userSpaceOnUse"><stop stop-color="#3D3C3E"/><stop offset=".079" stop-color="#313032"/><stop offset=".26" stop-color="#1B1B1C"/><stop offset=".458" stop-color="#0C0C0C"/><stop offset=".684" stop-color="#030303"/><stop offset="1"/></linearGradient><linearGradient id="paint1_linear_6106_7776" x1="108.743" y1="140.189" x2="108.779" y2="153.994" gradientUnits="userSpaceOnUse"><stop stop-color="#3D3C3E"/><stop offset=".079" stop-color="#313032"/><stop offset=".26" stop-color="#1B1B1C"/><stop offset=".458" stop-color="#0C0C0C"/><stop offset=".684" stop-color="#030303"/><stop offset="1"/></linearGradient><linearGradient id="paint2_linear_6106_7776" x1="245.404" y1="243.563" x2="245.391" y2="248.631" gradientUnits="userSpaceOnUse"><stop stop-color="#3D3C3E"/><stop offset=".079" stop-color="#313032"/><stop offset=".26" stop-color="#1B1B1C"/><stop offset=".458" stop-color="#0C0C0C"/><stop offset=".684" stop-color="#030303"/><stop offset="1"/></linearGradient><linearGradient id="paint3_linear_6106_7776" x1="260.698" y1="243.604" x2="260.685" y2="248.671" gradientUnits="userSpaceOnUse"><stop stop-color="#3D3C3E"/><stop offset=".079" stop-color="#313032"/><stop offset=".26" stop-color="#1B1B1C"/><stop offset=".458" stop-color="#0C0C0C"/><stop offset=".684" stop-color="#030303"/><stop offset="1"/></linearGradient><linearGradient id="paint4_linear_6106_7776" x1="329.309" y1="243.563" x2="329.296" y2="248.631" gradientUnits="userSpaceOnUse"><stop stop-color="#3D3C3E"/><stop offset=".079" stop-color="#313032"/><stop offset=".26" stop-color="#1B1B1C"/><stop offset=".458" stop-color="#0C0C0C"/><stop offset=".684" stop-color="#030303"/><stop offset="1"/></linearGradient><linearGradient id="paint5_linear_6106_7776" x1="344.603" y1="243.604" x2="344.59" y2="248.671" gradientUnits="userSpaceOnUse"><stop stop-color="#3D3C3E"/><stop offset=".079" stop-color="#313032"/><stop offset=".26" stop-color="#1B1B1C"/><stop offset=".458" stop-color="#0C0C0C"/><stop offset=".684" stop-color="#030303"/><stop offset="1"/></linearGradient><linearGradient id="paint6_linear_6106_7776" x1="418.75" y1="243.563" x2="418.737" y2="248.631" gradientUnits="userSpaceOnUse"><stop stop-color="#3D3C3E"/><stop offset=".079" stop-color="#313032"/><stop offset=".26" stop-color="#1B1B1C"/><stop offset=".458" stop-color="#0C0C0C"/><stop offset=".684" stop-color="#030303"/><stop offset="1"/></linearGradient><linearGradient id="paint7_linear_6106_7776" x1="434.044" y1="243.604" x2="434.031" y2="248.671" gradientUnits="userSpaceOnUse"><stop stop-color="#3D3C3E"/><stop offset=".079" stop-color="#313032"/><stop offset=".26" stop-color="#1B1B1C"/><stop offset=".458" stop-color="#0C0C0C"/><stop offset=".684" stop-color="#030303"/><stop offset="1"/></linearGradient></defs></svg>