<svg width="460" height="341" viewBox="0 0 460 341" fill="none" xmlns="http://www.w3.org/2000/svg"><path opacity=".1" d="M157.797 84.182l-126.6 2.21c-5.188.09-9.318 4.386-9.227 9.598.09 5.21 4.369 9.36 9.557 9.269l58.6-1.022c4.173-.073 7.616 3.266 7.689 7.458.073 4.192-3.251 7.65-7.425 7.723l-83.277 1.453c-6.082.107-10.928 5.147-10.821 11.255.106 6.109 5.125 10.977 11.207 10.871l61.843-1.08c5.053-.088 9.22 3.956 9.308 9.029.088 5.075-3.937 9.26-8.988 9.348l-9.726.17c-5.534.096-9.94 4.68-9.844 10.238.097 5.558 4.661 9.985 10.195 9.888l103.614-1.808c5.533-.097 9.94-4.68 9.843-10.238-.097-5.559-4.661-9.986-10.195-9.889l-38.376.67c-5.174.09-9.44-4.048-9.531-9.245-.091-5.197 4.029-9.482 9.203-9.572l74.627-1.303c4.969-.086 9.07 3.888 9.157 8.882.102 5.886 4.935 10.57 10.792 10.468l215.659-3.764c6.014-.105 10.807-5.088 10.702-11.132-.106-6.04-5.067-10.856-11.084-10.751l-117.576 2.053c-5.362.093-9.783-4.195-9.877-9.581-.094-5.386 4.174-9.826 9.537-9.92l25.285-.441c4.173-.073 7.497-3.531 7.424-7.722-.073-4.192-3.516-7.532-7.689-7.46l-6.074.107-158.818 2.772c-4.983.087-9.092-3.899-9.179-8.904-.098-5.411-4.544-9.724-9.935-9.63zm113.355-51.396c.095 5.426-4.207 9.903-9.612 9.997l-7.315.128c-5.402.094-9.706 4.569-9.612 9.997.095 5.425 4.551 9.75 9.955 9.655l141.821-2.475c5.402-.094 9.706-4.569 9.611-9.997-.094-5.426-4.55-9.75-9.954-9.656l-72.576 1.267c-5.401.094-9.86-4.227-9.954-9.655-.095-5.426 4.207-9.903 9.611-9.997l11.332-.198c5.401-.095 9.706-4.569 9.611-9.997-.095-5.426-4.55-9.75-9.954-9.656L207.699 4.406c-5.402.094-9.707 4.569-9.612 9.997.095 5.425 4.55 9.75 9.955 9.655l53.155-.927c5.402-.095 9.86 4.23 9.955 9.655zM443.815 59.26l-9.901.173c-5.433.095-9.917-4.252-10.012-9.71-.095-5.457 4.231-9.96 9.667-10.055l9.901-.173c5.432-.095 9.916 4.251 10.011 9.71.096 5.46-4.234 9.96-9.666 10.055z" fill="#fff"/><path opacity=".2" d="M396.185 115.885l-12.478.218c-4.677.082-8.537-3.66-8.619-8.36-.082-4.697 3.643-8.574 8.322-8.656l12.478-.218c4.677-.081 8.537 3.66 8.619 8.36.079 4.7-3.645 8.575-8.322 8.656z" fill="gray"/><path d="M123.63 283.606c-43.089.752-78.632-33.723-79.387-77.003l-1.825-104.544c-.755-43.28 33.563-78.974 76.652-79.726 43.089-.752 78.631 33.723 79.387 77.003l1.825 104.543c.758 43.277-33.56 78.974-76.652 79.727z" fill="#005CE1"/><path d="M127.144 336.107c-2.574.045-4.696-2.013-4.741-4.598l-4.107-235.272c-.045-2.586 2.004-4.717 4.578-4.762 2.574-.045 4.696 2.014 4.741 4.6l4.107 235.274c.045 2.583-2.004 4.713-4.578 4.758z" fill="#0090FC"/><path d="M123.182 151.002l-1.773.031c-26.086.455-47.683-20.493-48.14-46.694-.045-2.586 2.004-4.717 4.578-4.762 2.575-.045 4.696 2.014 4.742 4.599.367 21.042 17.708 37.862 38.656 37.496l1.774-.031c2.574-.045 4.696 2.013 4.741 4.599.045 2.586-2.006 4.717-4.578 4.762zm1.381 37.214c-2.574.045-4.696-2.013-4.741-4.599-.046-2.585 2.003-4.716 4.577-4.761 19.856-.347 35.724-16.851 35.376-36.795-.045-2.585 2.004-4.716 4.578-4.761 2.574-.045 4.696 2.013 4.741 4.599.438 25.103-19.538 45.881-44.531 46.317zm.891 51.065l-6.146.107c-24.08.421-44.015-18.915-44.437-43.101-.045-2.586 2.004-4.717 4.578-4.762 2.575-.045 4.696 2.013 4.742 4.599.332 19.026 16.011 34.235 34.953 33.904l6.147-.107c2.574-.045 4.696 2.013 4.741 4.599.045 2.585-2.004 4.716-4.578 4.761z" fill="#0090FC"/><path d="M80.172 77.47c2.943-.052 5.286-2.49 5.235-5.445-.052-2.956-2.48-5.311-5.422-5.26-2.943.052-5.287 2.49-5.235 5.445.051 2.956 2.479 5.31 5.422 5.26zm85.176 20.67c2.943-.05 5.287-2.489 5.235-5.445-.052-2.955-2.479-5.31-5.422-5.259-2.943.052-5.287 2.49-5.235 5.445.052 2.956 2.479 5.31 5.422 5.26zM67 171.452c2.942-.051 5.286-2.489 5.234-5.445-.051-2.956-2.479-5.311-5.422-5.259-2.942.051-5.286 2.489-5.235 5.445.052 2.956 2.48 5.31 5.422 5.259z" fill="#fff" fill-opacity=".77"/><path d="M401.976 282.517c31.898-.557 57.303-26.981 56.743-59.02l-1.432-82.052c-.559-32.039-26.871-57.56-58.769-57.003-31.898.556-57.303 26.981-56.744 59.02l1.433 82.051c.556 32.039 26.871 57.561 58.769 57.004z" fill="#0090FC"/><path d="M400.901 331.178c-2.619.046-4.781-2.051-4.827-4.682l-3.268-187.255c-.046-2.631 2.041-4.802 4.661-4.848 2.619-.045 4.781 2.052 4.827 4.682l3.268 187.256c.046 2.631-2.041 4.802-4.661 4.847z" fill="#005CE1"/><path d="M400.136 181.017l-1.312.023c-2.62.046-4.782-2.051-4.828-4.682-.045-2.631 2.042-4.802 4.661-4.848l1.313-.023c10.808-.189 20.4-6.819 24.435-16.891a4.735 4.735 0 016.173-2.641c2.432.983 3.608 3.76 2.63 6.2-5.463 13.635-18.444 22.607-33.072 22.862zm-1.374 27.594c-19.214.336-35.123-15.095-35.46-34.394l-.264-15.156c-.046-2.631 2.041-4.802 4.661-4.848 2.619-.046 4.781 2.051 4.827 4.682l.264 15.156c.245 14.046 11.821 25.275 25.806 25.031 2.619-.046 4.781 2.051 4.827 4.682.046 2.631-2.042 4.802-4.661 4.847zm5.21 37.721l-4.55.079c-2.619.046-4.781-2.051-4.827-4.682-.046-2.631 2.042-4.802 4.661-4.847l4.55-.08a23.919 23.919 0 0013.701-4.573 24.205 24.205 0 008.532-11.277c.907-2.47 3.634-3.735 6.093-2.823 2.459.911 3.716 3.651 2.811 6.121a33.703 33.703 0 01-11.876 15.703 33.351 33.351 0 01-19.095 6.379z" fill="#005CE1"/><path d="M420.874 196.753c2.943-.051 5.287-2.489 5.235-5.445-.051-2.956-2.479-5.31-5.422-5.259-2.942.051-5.286 2.489-5.235 5.445.052 2.956 2.479 5.311 5.422 5.259zm12.138-70.635c2.943-.051 5.287-2.489 5.235-5.445-.052-2.955-2.479-5.31-5.422-5.259-2.943.052-5.287 2.49-5.235 5.445.052 2.956 2.479 5.311 5.422 5.259zm-50.791-7.547c2.943-.052 5.287-2.49 5.235-5.445-.052-2.956-2.479-5.311-5.422-5.26-2.943.052-5.287 2.49-5.235 5.446.052 2.955 2.479 5.31 5.422 5.259z" fill="#fff" fill-opacity=".74"/><path d="M110.641 218.353l-17.24-1.76-5.412 3.412 32.973 20.953-10.321-22.605z" fill="#EA0000"/><path d="M174.592 226.722l-43.765 27.586c-2.163 1.365-5.029.503-6.093-1.83l-20.606-45.201a4.262 4.262 0 011.596-5.367l32.801-20.672a4.218 4.218 0 015.506.889l31.569 38.289c1.629 1.977 1.155 4.944-1.008 6.306z" fill="#FF0025"/><path d="M166.676 216.136l-3.697-4.349 9.916-8.503-13.599-15.996a2.36 2.36 0 00-3.336-.264l-8.115 6.961-3.697-4.349 8.115-6.961c3.379-2.897 8.478-2.494 11.362.9l14.762 17.365a3.936 3.936 0 01-.433 5.525l-11.278 9.671z" fill="#FF0025"/><path d="M165.794 232.269l8.798-5.547c2.163-1.365 2.64-4.329 1.008-6.309l-31.569-38.288a4.217 4.217 0 00-5.506-.89l-7.889 4.975 35.158 46.059z" fill="#EA0000"/><path d="M121.469 226.192a2.034 2.034 0 01-2.737-.915l-6.627-13.243a2.052 2.052 0 01.911-2.749 2.035 2.035 0 012.737.915l6.627 13.243a2.053 2.053 0 01-.911 2.749zm2.03 6.579a2.02 2.02 0 001.98-2.06 2.019 2.019 0 00-2.05-1.988 2.02 2.02 0 00-1.98 2.059 2.02 2.02 0 002.05 1.989z" opacity=".8" fill="#fff"/><path d="M87.543 233.565s-6.807 6.898-6.74 12.496c.064 5.601 4.804 6.883 7.464 5.82 2.443-.975 4.426-4.313 1.92-9.163-2.434-4.707-2.644-9.153-2.644-9.153zM70.29 262.876s-4.87 4.934-4.823 8.943c.048 4.008 3.437 4.923 5.341 4.162 1.748-.697 2.76-2.903 1.376-6.556-1.397-3.677-1.894-6.549-1.894-6.549zm30.552 9.155s-2.605 3.601-3.278 7.552c-.674 3.948 2.496 5.465 4.507 5.06 1.844-.371 3.668-2.461 2.529-6.2-1.112-3.626-3.758-6.412-3.758-6.412z" fill="#fff"/><path d="M452.499 332.117l-403.8 7.048c-3.631.064-6.625-2.841-6.689-6.488-.063-3.647 2.828-6.654 6.459-6.717l403.8-7.048c3.631-.064 6.625 2.84 6.689 6.487.063 3.648-2.828 6.654-6.459 6.718z" fill="#BACED9"/><path d="M104.881 295.991l7.577-.133.133 7.611c.206 11.799-9.152 21.532-20.899 21.737l-7.577.132-.133-7.61c-.206-11.802 9.152-21.532 20.899-21.737z" fill="#00AF04"/><path d="M62.338 296.733l-7.577.132.133 7.611c.206 11.799 9.897 21.199 21.644 20.994l7.577-.132-.133-7.61c-.206-11.803-9.897-21.2-21.644-20.995zm149.106-2.602l7.577-.133.132 7.611c.206 11.799-9.151 21.532-20.899 21.737l-7.576.132-.133-7.61c-.206-11.802 9.148-21.532 20.899-21.737zm-42.547.742l-7.577.132.133 7.611c.206 11.799 9.897 21.199 21.644 20.994l7.577-.132-.133-7.61c-.203-11.803-9.894-21.2-21.644-20.995zm228.729-3.992l7.577-.133.133 7.611c.206 11.799-9.151 21.532-20.899 21.737l-7.577.132-.133-7.61c-.206-11.802 9.152-21.532 20.899-21.737z" fill="#00AF04"/><path d="M355.083 291.623l-7.577.132.133 7.611c.206 11.799 9.897 21.199 21.645 20.994l7.576-.132-.132-7.61c-.206-11.802-9.898-21.2-21.645-20.995z" fill="#00AF04"/><path d="M302.277 286.527c51.947-.907 93.32-43.94 92.409-96.116-.911-52.177-43.76-93.74-95.707-92.833-51.947.907-93.32 43.939-92.41 96.116.911 52.177 43.761 93.74 95.708 92.833z" fill="#FF8D00"/><path d="M306.356 320.984c-4.132.072-7.538-3.232-7.61-7.381l-.792-45.383c-.073-4.15 3.216-7.57 7.347-7.642 4.131-.072 7.537 3.231 7.61 7.381l.792 45.383c.072 4.149-3.216 7.57-7.347 7.642zm-33.171.579c-4.132.072-7.537-3.232-7.61-7.381l-.792-45.383c-.072-4.149 3.216-7.57 7.347-7.642 4.132-.072 7.537 3.232 7.61 7.381l.792 45.383c.072 4.149-3.216 7.57-7.347 7.642zm-108.37-119.742c-3.71 2.488-3.882 7.89-.351 10.632 2.268 1.762 5.21 3.611 8.905 5.142 5.766 2.39 12.235 3.542 19.227 3.423l.023-.001c8.383-.146 17.564-2.136 27.281-5.912 3.37-1.309 5.047-5.117 3.742-8.502-1.304-3.385-5.095-5.07-8.465-3.76-24.243 9.422-37.182 3.523-42.685-.743-2.232-1.732-5.304-1.87-7.646-.299l-.031.02z" fill="#FFD300"/><path d="M282.19 286.824c51.947-.906 93.32-43.939 92.409-96.116-.911-52.177-43.76-93.74-95.707-92.833-51.947.907-93.32 43.94-92.409 96.117.91 52.176 43.76 93.739 95.707 92.832z" fill="#FFE700"/><path d="M198.77 239.078c8.838 15.565 21.942 28.342 37.694 36.753l125.85-130.209c-8.837-15.565-21.942-28.342-37.694-36.753L198.77 239.078z" fill="#FFEE7A"/><path d="M281.778 263.192c38.952-.68 69.976-32.948 69.293-72.073-.683-39.125-32.814-70.291-71.766-69.611-38.953.68-69.976 32.948-69.294 72.073.683 39.125 32.814 70.291 71.767 69.611z" fill="#FFCE00"/><path d="M306.035 192.933c2.279-.035 4.096 1.97 3.824 4.242-1.858 15.498-14.882 27.615-30.854 27.852-15.972.236-29.347-11.489-31.666-26.925-.341-2.264 1.417-4.319 3.696-4.353l55-.816z" fill="#EA0000"/><path d="M279.008 225.027c12.111-.18 22.514-7.195 27.65-17.332a42.58 42.58 0 00-14.897-2.433c-13.063.194-24.363 6.067-30.396 14.626 5.073 3.32 11.134 5.236 17.643 5.139z" fill="#FF0025"/><path d="M254.394 184.829c-3.294.05-6.005-2.594-6.055-5.903l-.048-3.257c-.049-3.309 2.582-6.032 5.876-6.081 3.294-.049 6.005 2.595 6.055 5.903l.048 3.258c.049 3.309-2.582 6.031-5.876 6.08z" fill="url(#paint0_linear_6106_8230)"/><path d="M301.47 184.132c-3.294.049-6.005-2.595-6.054-5.903l-.049-3.258c-.049-3.309 2.582-6.031 5.876-6.08 3.294-.049 6.006 2.594 6.055 5.903l.048 3.257c.05 3.309-2.582 6.032-5.876 6.081z" fill="url(#paint1_linear_6106_8230)"/><path opacity=".8" d="M216.95 198.138c-.579-39.126 30.528-71.311 69.482-71.889 13.567-.2 26.295 3.463 37.151 9.971-12.183-9.439-27.511-14.962-44.09-14.718-38.954.575-70.061 32.763-69.482 71.89.378 25.499 14.123 47.648 34.433 59.828-16.443-12.736-27.16-32.608-27.494-55.082z" fill="#FF9F00"/><path d="M388.621 277.987c-3.614.063-6.597-2.83-6.66-6.46l-1.158-66.351c-.064-3.63 2.813-6.626 6.43-6.689 3.617-.063 6.597 2.83 6.661 6.46l1.158 66.351c.06 3.633-2.817 6.626-6.431 6.689z" fill="#FFD300"/><defs><linearGradient id="paint0_linear_6106_8230" x1="254.193" y1="171.28" x2="254.425" y2="186.968" gradientUnits="userSpaceOnUse"><stop stop-color="#3D3C3E"/><stop offset=".079" stop-color="#313032"/><stop offset=".26" stop-color="#1B1B1C"/><stop offset=".458" stop-color="#0C0C0C"/><stop offset=".684" stop-color="#030303"/><stop offset="1"/></linearGradient><linearGradient id="paint1_linear_6106_8230" x1="301.269" y1="170.582" x2="301.502" y2="186.271" gradientUnits="userSpaceOnUse"><stop stop-color="#3D3C3E"/><stop offset=".079" stop-color="#313032"/><stop offset=".26" stop-color="#1B1B1C"/><stop offset=".458" stop-color="#0C0C0C"/><stop offset=".684" stop-color="#030303"/><stop offset="1"/></linearGradient></defs></svg>