<svg width="1440" height="808" viewBox="0 0 1440 808" fill="none" xmlns="http://www.w3.org/2000/svg"><mask id="a" style="mask-type:luminance" maskUnits="userSpaceOnUse" x="0" y="0" width="1440" height="808"><path d="M1440 .36H0v806.999h1440v-807z" fill="#fff"/></mask><g mask="url(#a)"><path d="M522.616 736.931c28.319-38.786 98.663-73.001 129.483-109.643 9.315-11.074 24.197-17.624 40.037-17.624H795.42c7.541 0 14.799-1.478 21.326-4.173 19.328-7.98 38.128-22.643 59.038-22.408l201.056 2.26c7.49-16.279 25.71-26.968 45.99-26.968h167.52c19.62 0 37.38 10.016 45.29 25.529 7.91 15.512 133.11 275.758 133.11 275.758 14.42 28.272-9.54 60.023-45.29 60.023H299.65c-39.136 0-62.788-37.4-41.661-65.869l57.317-77.235c9.103-12.266 24.804-19.682 41.661-19.682h123.781c16.997 0 32.801-7.545 41.868-19.968z" fill="url(#paint0_linear_6106_8441)"/></g><mask id="b" style="mask-type:luminance" maskUnits="userSpaceOnUse" x="0" y="0" width="1440" height="808"><path d="M1440 .36H0v806.999h1440v-807z" fill="#fff"/></mask><g mask="url(#b)"><path d="M850.455 846.701l-383.247-360.46c-19.948-18.763-45.175-29.052-71.235-29.052h-79.092c-26.059 0-27.881-29.052-142.381-29.052h-245l24.929 418.564h896.026z" fill="url(#paint1_linear_6106_8441)"/></g><mask id="c" style="mask-type:luminance" maskUnits="userSpaceOnUse" x="0" y="0" width="1440" height="808"><path d="M1440 .36H0v806.999h1440v-807z" fill="#fff"/></mask><g mask="url(#c)" fill="#fff"><path opacity=".2" d="M835.902 196.617h-47.119c-12.672 0-22.941-10.235-22.941-22.856 0-12.625 10.273-22.856 22.941-22.856h47.119c12.672 0 22.941 10.236 22.941 22.856.005 12.621-10.269 22.856-22.941 22.856zm-218.362-.551h98.41c11.759 0 21.848-8.89 22.698-20.574.95-13.029-9.378-23.892-22.252-23.892H553.019c-12.326 0-22.316-9.953-22.316-22.233 0-12.279 9.99-22.232 22.316-22.232h110.713c12.159 0 22.437-9.5 22.77-21.61.347-12.562-9.774-22.856-22.306-22.856H245.867c-12.159 0-22.437 9.496-22.77 21.61-.347 12.562 9.774 22.856 22.306 22.856h166.266c12.326 0 22.316 9.953 22.316 22.232 0 12.28-9.99 22.233-22.316 22.233h-32.431c-12.159 0-22.437 9.501-22.77 21.61-.347 12.562 9.774 22.856 22.306 22.856h135.185c12.325 0 22.315 9.953 22.315 22.233 0 12.28-9.99 22.233-22.315 22.233H292.257c-12.325 0-22.315 9.953-22.315 22.233 0 12.279 9.99 22.232 22.315 22.232H654.8c12.325 0 22.315-9.953 22.315-22.232 0-12.28-9.99-22.233-22.315-22.233h-37.265c-12.325 0-22.315-9.953-22.315-22.233.004-12.275 9.994-22.233 22.32-22.233z"/></g><mask id="d" style="mask-type:luminance" maskUnits="userSpaceOnUse" x="0" y="0" width="1440" height="808"><path d="M1440 .36H0v806.999h1440v-807z" fill="#fff"/></mask><g mask="url(#d)" fill="#fff"><path opacity=".6" d="M1537.65 101.448h82.91c8.86 0 16.47-6.702 17.11-15.507.71-9.823-7.07-18.014-16.78-18.014h-131.88c-9.29 0-16.82-7.506-16.82-16.76 0-9.257 7.53-16.758 16.82-16.758h83.47c9.16 0 16.91-7.16 17.16-16.288.26-9.473-7.36-17.234-16.81-17.234h-313.91c-9.16 0-16.91 7.16-17.16 16.288-.26 9.473 7.36 17.234 16.81 17.234h123.88c9.29 0 16.82 7.505 16.82 16.759 0 9.258-7.53 16.759-16.82 16.759H1358c-9.17 0-16.91 7.16-17.17 16.287-.26 9.474 7.37 17.234 16.82 17.234h101.91c9.29 0 16.82 7.505 16.82 16.759 0 9.258-7.53 16.759-16.82 16.759h-152.99c-9.3 0-16.82 7.505-16.82 16.758 0 9.259 7.53 16.759 16.82 16.759h259.18c9.29 0 16.82-7.505 16.82-16.759 0-9.258-7.53-16.758-16.82-16.758h-28.1c-9.29 0-16.82-7.505-16.82-16.759 0-9.258 7.53-16.759 16.82-16.759zm-1451.746 140h82.904c8.865 0 16.47-6.702 17.109-15.507.715-9.823-7.07-18.015-16.776-18.015H37.259c-9.293 0-16.821-7.505-16.821-16.758 0-9.258 7.533-16.759 16.821-16.759h83.466c9.166 0 16.916-7.16 17.168-16.288.261-9.473-7.367-17.234-16.817-17.234h-313.902c-9.166 0-16.915 7.16-17.167 16.288-.261 9.473 7.366 17.234 16.816 17.234h123.876c9.293 0 16.821 7.505 16.821 16.759 0 9.258-7.533 16.758-16.82 16.758h-24.45c-9.166 0-16.915 7.16-17.167 16.288-.261 9.474 7.367 17.234 16.817 17.234H7.81c9.293 0 16.821 7.505 16.821 16.759 0 9.258-7.533 16.759-16.821 16.759h-152.995c-9.293 0-16.821 7.505-16.821 16.758 0 9.259 7.533 16.759 16.821 16.759h259.182c9.292 0 16.821-7.505 16.821-16.759 0-9.258-7.533-16.758-16.821-16.758H85.904c-9.292 0-16.821-7.505-16.821-16.759 0-9.258 7.529-16.759 16.821-16.759z"/></g><mask id="e" style="mask-type:luminance" maskUnits="userSpaceOnUse" x="0" y="0" width="1440" height="808"><path d="M1440 .36H0v806.999h1440v-807z" fill="#fff"/></mask><g opacity=".4" fill="#fff" mask="url(#e)"><path d="M130.667 600.973H-4.815c-9.22 0-17.118 6.923-17.914 16.078-.914 10.464 7.34 19.238 17.653 19.238h172.557c9.788 0 17.721 7.904 17.721 17.655 0 9.751-7.933 17.655-17.721 17.655h-42.282c-9.598 0-17.883 7.815-18.031 17.373-.153 9.882 7.839 17.938 17.721 17.938h186.07c9.599 0 17.883-7.814 18.032-17.373.153-9.881-7.839-17.938-17.717-17.938h-17.109c-9.787 0-17.721-7.904-17.721-17.655 0-9.751 7.934-17.655 17.721-17.655h55.607c9.598 0 17.883-7.815 18.031-17.373.153-9.882-7.839-17.938-17.721-17.938H223.749c-9.787 0-17.721-7.904-17.721-17.655 0-9.752 7.934-17.656 17.721-17.656h30.645c9.788 0 17.721-7.904 17.721-17.655 0-9.751-7.933-17.656-17.721-17.656H40.954c-9.787 0-17.72 7.905-17.72 17.656 0 9.751 7.933 17.655 17.72 17.655h89.713c9.787 0 17.721 7.904 17.721 17.656 0 9.746-7.934 17.65-17.721 17.65zM419.864 706.91h-43.007c-9.787 0-17.721-7.904-17.721-17.656 0-9.751 7.934-17.655 17.721-17.655h43.007c9.787 0 17.721 7.904 17.721 17.655 0 9.752-7.934 17.656-17.721 17.656z"/></g><mask id="f" style="mask-type:luminance" maskUnits="userSpaceOnUse" x="0" y="0" width="1440" height="808"><path d="M1440 .36H0v806.999h1440v-807z" fill="#fff"/></mask><g opacity=".4" fill="#fff" mask="url(#f)"><path d="M1192.54 503.246h-14.1c-7.18 0-12.99-5.797-12.99-12.943 0-7.151 5.81-12.944 12.99-12.944h14.1c7.17 0 12.99 5.797 12.99 12.944 0 7.151-5.82 12.943-12.99 12.943zm266.86-77.669H1298c-7.18 0-12.99 5.797-12.99 12.943 0 7.151 5.82 12.943 12.99 12.943h30.41c7.18 0 12.99 5.797 12.99 12.944 0 7.151-5.81 12.943-12.99 12.943h-90.36c-6.85 0-12.72 5.174-13.22 11.98-.55 7.585 5.47 13.911 12.96 13.911h169.71c7.08 0 13.06-5.528 13.26-12.58.2-7.317-5.69-13.306-12.99-13.306h-16.33c-7.18 0-13-5.797-13-12.944 0-7.151 5.82-12.943 13-12.943h67.96c7.18 0 12.99-5.797 12.99-12.943.01-7.151-5.81-12.948-12.99-12.948z"/></g><mask id="g" style="mask-type:luminance" maskUnits="userSpaceOnUse" x="0" y="0" width="1440" height="808"><path d="M1440 .36H0v806.999h1440v-807z" fill="#fff"/></mask><g mask="url(#g)"><path d="M84.937 848.808c-63.247 0-114.516-51.079-114.516-114.092v-152.2c0-63.014 51.269-114.092 114.516-114.092 63.248 0 114.516 51.078 114.516 114.092v152.2c0 63.009-51.268 114.092-114.516 114.092z" fill="#005CE1"/><path d="M88.749 925.311c-3.776 0-6.84-3.048-6.84-6.814V575.961c0-3.761 3.06-6.815 6.84-6.815s6.84 3.049 6.84 6.815v342.536c0 3.766-3.065 6.814-6.84 6.814z" fill="#007DEB"/><path d="M87.673 655.796h-2.6c-38.291 0-69.44-31.038-69.44-69.183 0-3.761 3.06-6.814 6.84-6.814s6.84 3.048 6.84 6.814c0 30.635 25.015 55.558 55.764 55.558h2.6c3.776 0 6.84 3.049 6.84 6.815 0 3.766-3.068 6.81-6.844 6.81zM88.749 710c-3.776 0-6.84-3.049-6.84-6.815 0-3.766 3.06-6.815 6.84-6.815 29.142 0 52.848-23.622 52.848-52.652 0-3.762 3.06-6.815 6.84-6.815s6.84 3.049 6.84 6.815c0 36.548-29.844 66.282-66.528 66.282zm0 74.342h-9.023c-35.343 0-64.098-28.649-64.098-63.861 0-3.761 3.06-6.814 6.84-6.814s6.84 3.048 6.84 6.814c0 27.698 22.617 50.231 50.418 50.231h9.023c3.775 0 6.84 3.049 6.84 6.815 0 3.766-3.065 6.815-6.84 6.815z" fill="#007DEB"/></g><mask id="h" style="mask-type:luminance" maskUnits="userSpaceOnUse" x="0" y="0" width="1440" height="808"><path d="M1440 .36H0v806.999h1440v-807z" fill="#fff"/></mask><g mask="url(#h)"><path d="M238.225 876.394c34.272 0 62.051-27.68 62.051-61.821v-87.438c0-34.145-27.783-61.821-62.051-61.821-34.272 0-62.05 27.68-62.05 61.821v87.438c0 34.141 27.783 61.821 62.05 61.821z" fill="#0086EB"/><path d="M236.16 928.217c-2.817 0-5.099-2.273-5.099-5.08V723.584c0-2.807 2.282-5.08 5.099-5.08s5.098 2.273 5.098 5.08v199.553c0 2.802-2.281 5.08-5.098 5.08z" fill="#005FDD"/><path d="M238.153 768.229h-1.409c-2.817 0-5.098-2.273-5.098-5.079 0-2.807 2.281-5.08 5.098-5.08h1.409c11.61 0 22.036-6.887 26.559-17.539a5.104 5.104 0 016.678-2.699c2.592 1.094 3.807 4.071 2.709 6.653-6.12 14.428-20.228 23.744-35.946 23.744zm-1.993 29.37c-20.646 0-37.44-16.731-37.44-37.301v-16.153c0-2.807 2.281-5.08 5.098-5.08 2.817 0 5.099 2.273 5.099 5.08v16.149c0 14.965 12.222 27.142 27.247 27.142 2.817 0 5.099 2.273 5.099 5.079 0 2.807-2.286 5.084-5.103 5.084zm4.891 40.283h-4.891c-2.817 0-5.099-2.273-5.099-5.079 0-2.807 2.282-5.08 5.099-5.08h4.887c10.782 0 20.268-6.465 24.178-16.476a5.101 5.101 0 016.597-2.892 5.071 5.071 0 012.903 6.573c-2.61 6.684-7.124 12.392-13.05 16.507-6.071 4.219-13.203 6.447-20.624 6.447z" fill="#005FDD"/></g><mask id="i" style="mask-type:luminance" maskUnits="userSpaceOnUse" x="0" y="0" width="1440" height="808"><path d="M1440 .36H0v806.999h1440v-807z" fill="#fff"/></mask><g mask="url(#i)"><path d="M1296.21 844.208c23.56 0 42.67-19.032 42.67-42.507V741.58c0-23.475-19.11-42.507-42.67-42.507-23.56 0-42.66 19.032-42.66 42.507v60.121c0 23.475 19.09 42.507 42.66 42.507z" fill="url(#paint2_linear_6106_8441)"/><path d="M1294.79 879.841a3.5 3.5 0 01-3.51-3.492V739.141a3.501 3.501 0 013.51-3.493 3.5 3.5 0 013.5 3.493v137.208a3.498 3.498 0 01-3.5 3.492z" fill="#0086EB"/><path d="M1296.16 769.838h-.97a3.5 3.5 0 01-3.51-3.492 3.501 3.501 0 013.51-3.493h.97c7.98 0 15.15-4.734 18.26-12.06a3.505 3.505 0 014.59-1.856 3.499 3.499 0 011.87 4.578c-4.21 9.917-13.91 16.323-24.72 16.323zm-1.37 20.193c-14.19 0-25.75-11.504-25.75-25.649v-11.105c0-1.928 1.58-3.493 3.51-3.493 1.94 0 3.51 1.565 3.51 3.493v11.105c0 10.294 8.4 18.664 18.73 18.664a3.5 3.5 0 013.5 3.493 3.499 3.499 0 01-3.5 3.492zm3.36 27.698h-3.36a3.5 3.5 0 01-3.51-3.492 3.501 3.501 0 013.51-3.493h3.36c7.41 0 13.94-4.447 16.62-11.325a3.517 3.517 0 014.54-1.99c1.8.699 2.7 2.721 2 4.519-3.75 9.585-12.83 15.781-23.16 15.781z" fill="#0086EB"/></g><mask id="j" style="mask-type:luminance" maskUnits="userSpaceOnUse" x="0" y="0" width="1440" height="808"><path d="M1440 .36H0v806.999h1440v-807z" fill="#fff"/></mask><g mask="url(#j)"><path d="M1402.8 850.059c-39.4 0-71.34-31.823-71.34-71.075v-94.813c0-39.252 31.94-71.074 71.34-71.074 39.4 0 71.34 31.822 71.34 71.074v94.813c0 39.257-31.94 71.075-71.34 71.075z" fill="#005CE1"/><path d="M1405.17 897.721c-2.35 0-4.26-1.901-4.26-4.245V680.091c0-2.344 1.91-4.245 4.26-4.245 2.36 0 4.27 1.901 4.27 4.245v213.385c0 2.344-1.91 4.245-4.27 4.245z" fill="#007DEB"/><path d="M1404.5 729.825h-1.62c-23.85 0-43.25-19.332-43.25-43.098 0-2.345 1.9-4.246 4.26-4.246 2.35 0 4.26 1.901 4.26 4.246 0 19.085 15.58 34.611 34.74 34.611h1.62c2.35 0 4.26 1.901 4.26 4.246 0 2.345-1.91 4.241-4.27 4.241zm.67 33.764a4.255 4.255 0 01-4.26-4.246c0-2.345 1.91-4.245 4.26-4.245 18.16 0 32.93-14.715 32.93-32.801 0-2.344 1.9-4.245 4.26-4.245 2.35 0 4.26 1.901 4.26 4.245 0 22.771-18.59 41.292-41.45 41.292zm0 46.313h-5.62c-22.01 0-39.92-17.848-39.92-39.781 0-2.345 1.9-4.246 4.26-4.246 2.35 0 4.26 1.901 4.26 4.246 0 17.257 14.09 31.294 31.41 31.294h5.62c2.35 0 4.26 1.901 4.26 4.246 0 2.344-1.91 4.241-4.27 4.241z" fill="#007DEB"/></g><defs><linearGradient id="paint0_linear_6106_8441" x1="861.545" y1="295.822" x2="861.545" y2="870.847" gradientUnits="userSpaceOnUse"><stop stop-color="#059BEF"/><stop offset=".37" stop-color="#0898EE"/><stop offset=".675" stop-color="#128EED"/><stop offset=".956" stop-color="#247DEA"/><stop offset="1" stop-color="#277AE9"/></linearGradient><linearGradient id="paint1_linear_6106_8441" x1="402.441" y1="293.16" x2="402.441" y2="838.813" gradientUnits="userSpaceOnUse"><stop stop-color="#57B2FB"/><stop offset=".535" stop-color="#56B0FA"/><stop offset=".789" stop-color="#51A8F6"/><stop offset=".984" stop-color="#4A9BF0"/><stop offset="1" stop-color="#499AEF"/></linearGradient><linearGradient id="paint2_linear_6106_8441" x1="1253.54" y1="771.641" x2="1338.87" y2="771.641" gradientUnits="userSpaceOnUse"><stop stop-color="#00B2FB"/><stop offset=".541" stop-color="#00B0FA"/><stop offset=".798" stop-color="#00A8F6"/><stop offset=".995" stop-color="#009BEF"/><stop offset="1" stop-color="#009BEF"/></linearGradient></defs></svg>