<svg width="1440" height="807" viewBox="0 0 1440 807" fill="none" xmlns="http://www.w3.org/2000/svg">
  <g clip-path="url(#clip0_6104_6856)">
    <mask id="a" style="mask-type:luminance" maskUnits="userSpaceOnUse" x="0" y="0" width="1440" height="807">
      <path d="M1440 0H0v807h1440V0z" fill="#fff"/>
    </mask>
    <g mask="url(#a)">
      <path d="M1065.1 262.45c-2.39 0-4.34-1.937-4.34-4.327V162.35c0-2.389 1.95-4.326 4.34-4.326 2.4 0 4.35 1.937 4.35 4.326v95.773c0 2.386-1.95 4.327-4.35 4.327z" fill="#733426"/>
      <path d="M1133.03 186.43l-63.58-23.802v47.604l63.58-23.802z" fill="#FF0028"/>
    </g>
    <mask id="b" style="mask-type:luminance" maskUnits="userSpaceOnUse" x="0" y="0" width="1440" height="807">
      <path d="M1440 0H0v807h1440V0z" fill="#fff"/>
    </mask>
    <g mask="url(#b)">
      <path d="M522.616 736.571c28.319-38.785 98.663-123 129.483-159.642 9.315-11.074 24.197-17.624 40.037-17.624H795.42c20.272 0 38.497-10.684 45.99-26.967l95.427-207.355c7.492-16.279 25.717-26.967 45.99-26.967h167.523c19.62 0 37.38 10.016 45.29 25.528l273.11 535.759c14.42 28.271-9.54 60.022-45.29 60.022H299.65c-39.136 0-62.788-37.4-41.661-65.869l57.317-77.234c9.103-12.267 24.804-19.682 41.661-19.682h123.781c16.997 0 32.801-7.545 41.868-19.969z" fill="url(#paint0_linear_6104_6856)"/>
      <path d="M1213.29 378.165c4.02 3.474 8.85 5.837 13.95 7.097l-55.55-109.389c-7.34-14.45-23.87-23.784-42.14-23.784h-127.8c-18.846 0-35.784 9.926-42.755 25.053l-50.121 108.765c6.998-.69 13.788-3.349 19.152-7.989l9.428-8.151c6.309-5.451 14.575-8.177 22.842-8.177 8.266 0 16.533 2.726 22.842 8.177l9.432 8.151c6.304 5.452 14.57 8.173 22.84 8.178 8.26 0 16.53-2.726 22.83-8.178l9.44-8.151c6.31-5.451 14.57-8.177 22.84-8.177s16.53 2.726 22.84 8.177l9.43 8.151c12.62 10.904 33.07 10.904 45.68 0l9.43-8.151c12.62-10.903 33.07-10.903 45.68 0l9.71 8.398z" fill="#fff"/>
    </g>
    <mask id="c" style="mask-type:luminance" maskUnits="userSpaceOnUse" x="0" y="0" width="1440" height="807">
      <path d="M1440 0H0v807h1440V0z" fill="#fff"/>
    </mask>
    <g mask="url(#c)">
      <path d="M850.455 846.341l-383.247-360.46c-19.948-18.763-45.175-29.052-71.235-29.052h-79.092c-26.059 0-51.286-10.289-71.235-29.052L-45.571 153.872v692.469h896.026z" fill="url(#paint1_linear_6104_6856)"/>
    </g>
    <mask id="d" style="mask-type:luminance" maskUnits="userSpaceOnUse" x="0" y="0" width="1440" height="807">
      <path d="M1440 0H0v807h1440V0z" fill="#fff"/>
    </mask>
    <g mask="url(#d)" fill="#fff">
      <path opacity=".2" d="M835.902 196.258h-47.119c-12.672 0-22.941-10.236-22.941-22.856 0-12.625 10.273-22.856 22.941-22.856h47.119c12.672 0 22.941 10.235 22.941 22.856.005 12.62-10.269 22.856-22.941 22.856zm-218.362-.552h98.41c11.759 0 21.848-8.89 22.698-20.574.95-13.028-9.378-23.891-22.252-23.891H553.019c-12.326 0-22.316-9.953-22.316-22.233 0-12.28 9.99-22.233 22.316-22.233h110.713c12.159 0 22.437-9.5 22.77-21.61.347-12.562-9.774-22.856-22.306-22.856H245.867c-12.159 0-22.437 9.496-22.77 21.61-.347 12.562 9.774 22.856 22.306 22.856h166.266c12.326 0 22.316 9.953 22.316 22.233 0 12.28-9.99 22.233-22.316 22.233h-32.431c-12.159 0-22.437 9.5-22.77 21.609-.347 12.563 9.774 22.856 22.306 22.856h135.185c12.325 0 22.315 9.953 22.315 22.233 0 12.28-9.99 22.233-22.315 22.233H292.257c-12.325 0-22.315 9.953-22.315 22.233 0 12.28 9.99 22.233 22.315 22.233H654.8c12.325 0 22.315-9.953 22.315-22.233 0-12.28-9.99-22.233-22.315-22.233h-37.265c-12.325 0-22.315-9.953-22.315-22.233.004-12.275 9.994-22.233 22.32-22.233z"/>
    </g>
    <mask id="e" style="mask-type:luminance" maskUnits="userSpaceOnUse" x="0" y="0" width="1440" height="807">
      <path d="M1440 0H0v807h1440V0z" fill="#fff"/>
    </mask>
    <g mask="url(#e)">
      <path opacity=".6" d="M1537.65 251.089h82.91c8.86 0 16.47-6.702 17.11-15.508.71-9.823-7.07-18.014-16.78-18.014h-131.88c-9.29 0-16.82-7.505-16.82-16.758 0-9.259 7.53-16.759 16.82-16.759h83.47c9.16 0 16.91-7.16 17.16-16.288.26-9.473-7.36-17.234-16.81-17.234h-313.91c-9.16 0-16.91 7.16-17.16 16.288-.26 9.473 7.36 17.234 16.81 17.234h123.88c9.29 0 16.82 7.505 16.82 16.759 0 9.258-7.53 16.758-16.82 16.758H1358c-9.17 0-16.91 7.16-17.17 16.288-.26 9.473 7.37 17.234 16.82 17.234h101.91c9.29 0 16.82 7.505 16.82 16.759 0 9.258-7.53 16.759-16.82 16.759h-152.99c-9.3 0-16.82 7.505-16.82 16.758 0 9.258 7.53 16.759 16.82 16.759h259.18c9.29 0 16.82-7.505 16.82-16.759 0-9.258-7.53-16.758-16.82-16.758h-28.1c-9.29 0-16.82-7.506-16.82-16.759 0-9.258 7.53-16.759 16.82-16.759z" fill="#fff"/>
    </g>
    <mask id="f" style="mask-type:luminance" maskUnits="userSpaceOnUse" x="0" y="0" width="1440" height="807">
      <path d="M1440 0H0v807h1440V0z" fill="#fff"/>
    </mask>
    <g opacity=".4" fill="#fff" mask="url(#f)">
      <path d="M130.667 600.614H-4.815c-9.22 0-17.118 6.923-17.914 16.078-.914 10.464 7.34 19.238 17.653 19.238h172.557c9.788 0 17.721 7.904 17.721 17.655 0 9.751-7.933 17.655-17.721 17.655h-42.282c-9.598 0-17.883 7.815-18.031 17.373-.153 9.881 7.839 17.938 17.721 17.938h186.07c9.599 0 17.883-7.815 18.032-17.373.153-9.881-7.839-17.938-17.717-17.938h-17.109c-9.787 0-17.721-7.904-17.721-17.655 0-9.751 7.934-17.655 17.721-17.655h55.607c9.598 0 17.883-7.815 18.031-17.373.153-9.882-7.839-17.938-17.721-17.938H223.749c-9.787 0-17.721-7.904-17.721-17.656 0-9.751 7.934-17.655 17.721-17.655h30.645c9.788 0 17.721-7.904 17.721-17.655 0-9.752-7.933-17.656-17.721-17.656H40.954c-9.787 0-17.72 7.904-17.72 17.656 0 9.751 7.933 17.655 17.72 17.655h89.713c9.787 0 17.721 7.904 17.721 17.655 0 9.747-7.934 17.651-17.721 17.651zm289.197 105.937h-43.007c-9.787 0-17.721-7.904-17.721-17.655 0-9.752 7.934-17.656 17.721-17.656h43.007c9.787 0 17.721 7.904 17.721 17.656 0 9.751-7.934 17.655-17.721 17.655z"/>
    </g>
    <mask id="g" style="mask-type:luminance" maskUnits="userSpaceOnUse" x="0" y="0" width="1440" height="807">
      <path d="M1440 0H0v807h1440V0z" fill="#fff"/>
    </mask>
    <g opacity=".4" fill="#fff" mask="url(#g)">
      <path d="M1192.54 502.887h-14.1c-7.18 0-12.99-5.797-12.99-12.944 0-7.151 5.81-12.943 12.99-12.943h14.1c7.17 0 12.99 5.797 12.99 12.943 0 7.151-5.82 12.944-12.99 12.944zm266.86-77.67H1298c-7.18 0-12.99 5.797-12.99 12.944 0 7.151 5.82 12.943 12.99 12.943h30.41c7.18 0 12.99 5.797 12.99 12.943 0 7.151-5.81 12.944-12.99 12.944h-90.36c-6.85 0-12.72 5.174-13.22 11.979-.55 7.586 5.47 13.912 12.96 13.912h169.71c7.08 0 13.06-5.528 13.26-12.58.2-7.317-5.69-13.307-12.99-13.307h-16.33c-7.18 0-13-5.797-13-12.943 0-7.151 5.82-12.943 13-12.943h67.96c7.18 0 12.99-5.797 12.99-12.944.01-7.151-5.81-12.948-12.99-12.948z"/>
    </g>
    <mask id="h" style="mask-type:luminance" maskUnits="userSpaceOnUse" x="0" y="0" width="1440" height="807">
      <path d="M1440 0H0v807h1440V0z" fill="#fff"/>
    </mask>

    <mask id="i" style="mask-type:luminance" maskUnits="userSpaceOnUse" x="0" y="0" width="1440" height="807">
      <path d="M1440 0H0v807h1440V0z" fill="#fff"/>
    </mask>
    <g mask="url(#i)">
      <path d="M238.225 876.034c34.272 0 62.051-27.68 62.051-61.82v-87.439c0-34.145-27.783-61.82-62.051-61.82-34.272 0-62.05 27.68-62.05 61.82v87.439c0 34.14 27.783 61.82 62.05 61.82z" fill="#0086EB"/>
      <path d="M236.16 927.857c-2.817 0-5.099-2.273-5.099-5.079V723.224c0-2.806 2.282-5.079 5.099-5.079s5.098 2.273 5.098 5.079v199.554c0 2.802-2.281 5.079-5.098 5.079z" fill="#005FDD"/>
      <path d="M238.153 767.869h-1.409c-2.817 0-5.098-2.273-5.098-5.079 0-2.807 2.281-5.08 5.098-5.08h1.409c11.61 0 22.036-6.886 26.559-17.539a5.104 5.104 0 016.678-2.699c2.592 1.094 3.807 4.071 2.709 6.654-6.12 14.427-20.228 23.743-35.946 23.743zm-1.993 29.371c-20.646 0-37.44-16.732-37.44-37.302v-16.153c0-2.807 2.281-5.08 5.098-5.08 2.817 0 5.099 2.273 5.099 5.08v16.149c0 14.965 12.222 27.142 27.247 27.142 2.817 0 5.099 2.273 5.099 5.08 0 2.806-2.286 5.084-5.103 5.084zm4.891 40.283h-4.891c-2.817 0-5.099-2.274-5.099-5.08 0-2.807 2.282-5.08 5.099-5.08h4.887c10.782 0 20.268-6.465 24.178-16.476a5.102 5.102 0 016.597-2.892 5.071 5.071 0 012.903 6.573c-2.61 6.685-7.124 12.392-13.05 16.507-6.071 4.219-13.203 6.448-20.624 6.448z" fill="#005FDD"/>
    </g>
    <mask id="j" style="mask-type:luminance" maskUnits="userSpaceOnUse" x="0" y="0" width="1440" height="807">
      <path d="M1440 0H0v807h1440V0z" fill="#fff"/>
    </mask>
    <g mask="url(#j)">
      <path d="M1296.21 843.849c23.56 0 42.67-19.032 42.67-42.507v-60.121c0-23.475-19.11-42.507-42.67-42.507-23.56 0-42.66 19.032-42.66 42.507v60.121c0 23.475 19.09 42.507 42.66 42.507z" fill="url(#paint2_linear_6104_6856)"/>
      <path d="M1294.79 879.482a3.501 3.501 0 01-3.51-3.492V738.782a3.501 3.501 0 013.51-3.493 3.5 3.5 0 013.5 3.493V875.99a3.499 3.499 0 01-3.5 3.492z" fill="#0086EB"/>
      <path d="M1296.16 769.479h-.97a3.501 3.501 0 01-3.51-3.492 3.501 3.501 0 013.51-3.493h.97c7.98 0 15.15-4.734 18.26-12.06a3.503 3.503 0 014.59-1.856 3.498 3.498 0 011.87 4.577c-4.21 9.917-13.91 16.324-24.72 16.324zm-1.37 20.193c-14.19 0-25.75-11.504-25.75-25.649v-11.105c0-1.928 1.58-3.493 3.51-3.493 1.94 0 3.51 1.565 3.51 3.493v11.105c0 10.294 8.4 18.664 18.73 18.664a3.5 3.5 0 013.5 3.493 3.499 3.499 0 01-3.5 3.492zm3.36 27.698h-3.36a3.501 3.501 0 01-3.51-3.492 3.501 3.501 0 013.51-3.493h3.36c7.41 0 13.94-4.447 16.62-11.325a3.516 3.516 0 014.54-1.99c1.8.699 2.7 2.721 2 4.519-3.75 9.585-12.83 15.781-23.16 15.781z" fill="#0086EB"/>
    </g>
    <mask id="k" style="mask-type:luminance" maskUnits="userSpaceOnUse" x="0" y="0" width="1440" height="807">
      <path d="M1440 0H0v807h1440V0z" fill="#fff"/>
    </mask>
    <g mask="url(#k)">
      <path d="M1402.8 849.699c-39.4 0-71.34-31.823-71.34-71.074v-94.814c0-39.251 31.94-71.074 71.34-71.074 39.4 0 71.34 31.823 71.34 71.074v94.814c0 39.256-31.94 71.074-71.34 71.074z" fill="#005CE1"/>
      <path d="M1405.17 897.362a4.255 4.255 0 01-4.26-4.246V679.732a4.255 4.255 0 014.26-4.246c2.36 0 4.27 1.901 4.27 4.246v213.384c0 2.345-1.91 4.246-4.27 4.246z" fill="#007DEB"/>
      <path d="M1404.5 729.465h-1.62c-23.85 0-43.25-19.332-43.25-43.098 0-2.345 1.9-4.246 4.26-4.246 2.35 0 4.26 1.901 4.26 4.246 0 19.085 15.58 34.611 34.74 34.611h1.62c2.35 0 4.26 1.901 4.26 4.246 0 2.345-1.91 4.241-4.27 4.241zm.67 33.764a4.255 4.255 0 01-4.26-4.246c0-2.344 1.91-4.245 4.26-4.245 18.16 0 32.93-14.715 32.93-32.8 0-2.345 1.9-4.246 4.26-4.246 2.35 0 4.26 1.901 4.26 4.246 0 22.771-18.59 41.291-41.45 41.291zm0 46.313h-5.62c-22.01 0-39.92-17.848-39.92-39.781 0-2.344 1.9-4.245 4.26-4.245 2.35 0 4.26 1.901 4.26 4.245 0 17.257 14.09 31.294 31.41 31.294h5.62c2.35 0 4.26 1.901 4.26 4.246 0 2.345-1.91 4.241-4.27 4.241z" fill="#007DEB"/>
    </g>    
  </g>
  <defs>
    <linearGradient id="paint0_linear_6104_6856" x1="861.545" y1="295.463" x2="861.545" y2="870.488" gradientUnits="userSpaceOnUse">
      <stop stop-color="#059BEF"/>
      <stop offset=".37" stop-color="#0898EE"/>
      <stop offset=".675" stop-color="#128EED"/>
      <stop offset=".956" stop-color="#247DEA"/>
      <stop offset="1" stop-color="#277AE9"/>
    </linearGradient>
    <linearGradient id="paint1_linear_6104_6856" x1="402.441" y1="292.801" x2="402.441" y2="838.454" gradientUnits="userSpaceOnUse">
      <stop stop-color="#57B2FB"/>
      <stop offset=".535" stop-color="#56B0FA"/>
      <stop offset=".789" stop-color="#51A8F6"/>
      <stop offset=".984" stop-color="#4A9BF0"/>
      <stop offset="1" stop-color="#499AEF"/>
    </linearGradient>
    <linearGradient id="paint2_linear_6104_6856" x1="1253.54" y1="771.282" x2="1338.87" y2="771.282" gradientUnits="userSpaceOnUse">
      <stop stop-color="#00B2FB"/>
      <stop offset=".541" stop-color="#00B0FA"/>
      <stop offset=".798" stop-color="#00A8F6"/>
      <stop offset=".995" stop-color="#009BEF"/>
      <stop offset="1" stop-color="#009BEF"/>
    </linearGradient>
    <linearGradient id="paint3_linear_6104_6856" x1="286.558" y1="245.714" x2="282.855" y2="265.69" gradientUnits="userSpaceOnUse">
      <stop stop-color="#3D3C3E"/>
      <stop offset=".079" stop-color="#313032"/>
      <stop offset=".26" stop-color="#1B1B1C"/>
      <stop offset=".458" stop-color="#0C0C0C"/>
      <stop offset=".684" stop-color="#030303"/>
      <stop offset="1"/>
    </linearGradient>
    <linearGradient id="paint4_linear_6104_6856" x1="346.974" y1="256.913" x2="343.271" y2="276.889" gradientUnits="userSpaceOnUse">
      <stop stop-color="#3D3C3E"/>
      <stop offset=".079" stop-color="#313032"/>
      <stop offset=".26" stop-color="#1B1B1C"/>
      <stop offset=".458" stop-color="#0C0C0C"/>
      <stop offset=".684" stop-color="#030303"/>
      <stop offset="1"/>
    </linearGradient>
    <linearGradient id="paint5_linear_6104_6856" x1="656.867" y1="502.404" x2="652.931" y2="521.971" gradientUnits="userSpaceOnUse">
      <stop stop-color="#3D3C3E"/>
      <stop offset=".079" stop-color="#313032"/>
      <stop offset=".26" stop-color="#1B1B1C"/>
      <stop offset=".458" stop-color="#0C0C0C"/>
      <stop offset=".684" stop-color="#030303"/>
      <stop offset="1"/>
    </linearGradient>
    <linearGradient id="paint6_linear_6104_6856" x1="716.044" y1="514.307" x2="712.108" y2="533.874" gradientUnits="userSpaceOnUse">
      <stop stop-color="#3D3C3E"/>
      <stop offset=".079" stop-color="#313032"/>
      <stop offset=".26" stop-color="#1B1B1C"/>
      <stop offset=".458" stop-color="#0C0C0C"/>
      <stop offset=".684" stop-color="#030303"/>
      <stop offset="1"/>
    </linearGradient>
    <linearGradient id="paint7_linear_6104_6856" x1="1048.35" y1="585.71" x2="1051.57" y2="601.521" gradientUnits="userSpaceOnUse">
      <stop stop-color="#3D3C3E"/>
      <stop offset=".079" stop-color="#313032"/>
      <stop offset=".26" stop-color="#1B1B1C"/>
      <stop offset=".458" stop-color="#0C0C0C"/>
      <stop offset=".684" stop-color="#030303"/>
      <stop offset="1"/>
    </linearGradient>
    <linearGradient id="paint8_linear_6104_6856" x1="1093.11" y1="608.391" x2="1088.15" y2="623.747" gradientUnits="userSpaceOnUse">
      <stop stop-color="#3D3C3E"/>
      <stop offset=".079" stop-color="#313032"/>
      <stop offset=".26" stop-color="#1B1B1C"/>
      <stop offset=".458" stop-color="#0C0C0C"/>
      <stop offset=".684" stop-color="#030303"/>
      <stop offset="1"/>
    </linearGradient>
    <clipPath id="clip0_6104_6856">
      <path fill="#fff" d="M0 0h1440v807H0z"/>
    </clipPath>
  </defs>
</svg>